<?xml version="1.0" encoding="utf-8"?>
<!-- Generator: Adobe Illustrator 18.1.1, SVG Export Plug-In . SVG Version: 6.00 Build 0)  -->
<!DOCTYPE svg PUBLIC "-//W3C//DTD SVG 1.1//EN" "http://www.w3.org/Graphics/SVG/1.1/DTD/svg11.dtd">
<svg version="1.1" xmlns="http://www.w3.org/2000/svg" xmlns:xlink="http://www.w3.org/1999/xlink" x="0px" y="0px" width="1000px"
	 height="1000px" viewBox="0 0 1000 1000" enable-background="new 0 0 1000 1000" xml:space="preserve">
<g id="stacked">
	<path id="mark" fill="#CC0000" d="M932.8-80.8l-249.9-66.9l67-116l-249.9,67v-133.9L317.1-147.7l-67-116L183.2-13.8l-116-67
		l67,249.9H0.3L183.2,352l-116,67l249.9,66.9l-67,116l249.9-67v133.9l182.9-182.9l66.9,116L816.8,352l116,67l-67-249.9h133.9
		L816.8-13.8L932.8-80.8z M649.3-89.4L670,70.9l88.5-51.1l-62.2,149.2h102.2L670,267.2l88.5,51.1l-160.3,20.8l51.1,88.5L500,365.4
		v102.2l-98.2-128.5l-51.1,88.5L330,267.2l-88.5,51.1l62.2-149.2H201.5L330,70.9l-88.5-51.1L401.9-0.9l-51.1-88.5L500-27.2v-102.2
		L598.2-0.9L649.3-89.4z"/>
	<g id="aten">
		<path fill="#414042" d="M330.8,983h-64.6v-41H442v41h-64.6v185.5h-46.6V983z"/>
		<path fill="#414042" d="M543,942h154.6v41H589.6v52h91.3v40h-91.3v52.6h107.9v41H543V942z"/>
		<path fill="#414042" d="M874.8,1063.3c-11.3-10.7-27-31-27-31s3.3,25,3.3,41.3v94.9h-43.6V940h4.7l114.3,107.3
			c11,10.3,26.6,31,26.6,31s-3-25.6-3-41.3V942h43.6v228.5h-4.7L874.8,1063.3z"/>
		<path fill="#414042" d="M164.5,1168.5h49L109.9,940h-4L6.3,1168.5h45l17.8-43.4h77.2L164.5,1168.5z M85.1,1086.1l8.8-21.6
			c6.3-15.6,13-39.3,13.3-40.3c0.7,2.3,7.3,25.3,13.7,40.3l9.1,21.6H85.1z"/>
	</g>
	<g id="design">
		<g>
			<path fill="#414042" d="M552.4,1293.4c0-21.4,15.1-37.1,37-37.1c11.8,0,20.4,3.2,26.3,10l-10.1,10c-3.6-3.7-7.8-6.6-16.2-6.6
				c-13.1,0-21.6,10.1-21.6,23.7s8.7,23.9,24,23.9c4.7,0,10.4-0.9,14.2-2.7v-11.7h-17.5v-13.1h31.1v32.4c-4.2,3.4-14.6,8.4-27.8,8.4
				C568,1330.7,552.4,1314.9,552.4,1293.4z"/>
			<path fill="#414042" d="M654.9,1257.2h26.9c14.8,0,27,6.9,27,23.9c0,11-5.8,17.9-14.2,21.2l16.5,27.4H694l-14.7-25.2h-9.5v25.2
				h-14.9V1257.2z M681.4,1291.9c7.4,0,12-2.9,12-10.9c0-8.1-4.9-10.8-12-10.8h-11.5v21.6H681.4z"/>
			<path fill="#414042" d="M740.3,1293.4c0-21.4,16.6-37.2,37.5-37.2c20.9,0,37.5,15.8,37.5,37.2c0,21.4-16.6,37.2-37.5,37.2
				C756.9,1330.7,740.3,1314.9,740.3,1293.4z M800,1293.4c0-13.5-9-23.9-22.2-23.9c-13.2,0-22.2,10.3-22.2,23.9s9,23.9,22.2,23.9
				C791.1,1317.3,800,1307,800,1293.4z"/>
			<path fill="#414042" d="M849,1303.5v-46.3H864v45.4c0,10.6,4.6,14.6,14.5,14.6c9.8,0,14.3-4.1,14.3-14.6v-45.4h14.9v46.3
				c0,18.3-12.7,27.2-29.2,27.2C861.7,1330.7,849,1321.8,849,1303.5z"/>
			<path fill="#414042" d="M943.8,1257.2h25.5c14.8,0,27,7.4,27,24.3c0,17-12.3,24.4-27,24.4h-10.6v23.8h-14.9V1257.2z
				 M968.9,1292.8c7.4,0,12.1-3.3,12.1-11.3c0-8.1-4.9-11.2-12.1-11.2h-10.1v22.5H968.9z"/>
		</g>
		<g>
			<path fill="#414042" d="M3.8,1257.2H26c22.3,0,38.2,14.8,38.2,36.3c0,21.4-15.8,36.3-38.2,36.3H3.8V1257.2z M25.3,1316.6
				c16.1,0,23.5-9.6,23.5-23.1s-7.4-23.1-23.5-23.1h-6.6v46.3H25.3z"/>
			<path fill="#414042" d="M177,1315.4l12.2-7c3.2,5.2,7.4,9.1,14.7,9.1c6.2,0,10.1-3.1,10.1-7.4c0-5.1-4.1-6.9-10.9-9.9l-3.7-1.6
				c-10.8-4.6-17.9-10.3-17.9-22.5c0-11.2,8.5-19.7,21.9-19.7c9.5,0,16.3,3.3,21.2,11.9l-11.6,7.5c-2.6-4.6-5.3-6.4-9.6-6.4
				c-4.4,0-7.1,2.8-7.1,6.4c0,4.5,2.8,6.3,9.2,9.1l3.7,1.6c12.7,5.4,19.8,11,19.8,23.5c0,13.4-10.6,20.8-24.7,20.8
				C190.3,1330.7,181.4,1324,177,1315.4z"/>
			<path fill="#414042" d="M262.2,1257.2h14.9v72.5h-14.9V1257.2z"/>
			<path fill="#414042" d="M311.3,1293.4c0-21.4,15.1-37.1,37-37.1c11.8,0,20.4,3.2,26.3,10l-10.1,10c-3.6-3.7-7.8-6.6-16.2-6.6
				c-13.1,0-21.6,10.1-21.6,23.7s8.7,23.9,24,23.9c4.7,0,10.4-0.9,14.2-2.7v-11.7h-17.5v-13.1h31.1v32.4c-4.2,3.4-14.6,8.4-27.8,8.4
				C327,1330.7,311.3,1314.9,311.3,1293.4z"/>
			<path fill="#414042" d="M435.4,1296c-3.6-3.4-8.6-9.9-8.6-9.9s1.1,8,1.1,13.2v30.4h-14v-73.1h1.5l36.6,34.3
				c3.5,3.3,8.5,9.9,8.5,9.9s-1-8.2-1-13.2v-30.4h14v73.1H472L435.4,1296z"/>
			<path fill="#414042" d="M98.1,1257.2h49.5v13.1H113v16.6h29.2v12.8H113v16.8h34.5v13.1H98.1V1257.2z"/>
		</g>
	</g>
</g>
<g id="mark_2_">
	<path id="mark_1_" fill="#CC0000" d="M930.3,251.6L681.9,185l66.6-115.3L500,136.3V3.1L318.1,185L251.6,69.7L185,318.1L69.7,251.6
		L136.3,500H3.1L185,681.9L69.7,748.4L318.1,815l-66.6,115.3L500,863.7v133.1L681.9,815l66.6,115.3L815,681.9l115.3,66.6L863.7,500
		h133.1L815,318.1L930.3,251.6z M648.4,243L669,402.4l88-50.8L695.2,500h101.6L669,597.6l88,50.8L597.6,669l50.8,88L500,695.2v101.6
		L402.4,669l-50.8,88L331,597.6l-88,50.8L304.8,500H203.2L331,402.4l-88-50.8L402.4,331l-50.8-88L500,304.8V203.2L597.6,331
		L648.4,243z"/>
</g>
<g id="horizontal">
	<g>
		<path id="horizontal-mark" fill="#CC0000" d="M300.9,245.8L50.3,178.6l67.2-116.3l-250.6,67.2V-4.8l-183.5,183.5l-67.2-116.3
			l-67.1,250.6l-116.3-67.2l67.2,250.6h-134.3l183.5,183.5L-567.2,747l250.6,67.1l-67.2,116.3l250.6-67.2v134.3L50.3,814.1
			l67.1,116.3l67.1-250.6L300.9,747l-67.2-250.6h134.3L184.6,312.9L300.9,245.8z M16.5,237.1l20.8,160.8l88.8-51.2L63.7,496.4h102.5
			L37.4,594.8l88.8,51.2l-160.8,20.8l51.2,88.8l-149.7-62.4v102.5l-98.5-128.9l-51.2,88.8l-20.8-160.8l-88.8,51.2l62.4-149.7h-102.5
			l128.9-98.5l-88.8-51.2l160.8-20.8l-51.2-88.8l149.7,62.4V197l98.5,128.9L16.5,237.1z"/>
		<g id="horizontal-aten">
			<path fill="#414042" d="M969.5,433.6h-64.8v-41.1H1081v41.1h-64.8v186.1h-46.8V433.6z"/>
			<path fill="#414042" d="M1182.3,392.5h155v41.1h-108.2v52.1h91.5v40.1h-91.5v52.8h108.2v41.1h-155V392.5z"/>
			<path fill="#414042" d="M1515.1,514.1c-11.4-10.7-27.1-31.1-27.1-31.1s3.3,25.1,3.3,41.4v95.2h-43.8V390.5h4.7l114.6,107.6
				c11,10.4,26.7,31.1,26.7,31.1s-3-25.7-3-41.4v-95.2h43.8v229.2h-4.7L1515.1,514.1z"/>
			<path fill="#414042" d="M802.7,619.7h49.1L747.9,390.5h-4L644,619.7h45.1l17.9-43.5h77.5L802.7,619.7z M723,537.1l8.9-21.6
				c6.3-15.7,13-39.4,13.4-40.4c0.7,2.3,7.4,25.4,13.7,40.4l9.1,21.6H723z"/>
		</g>
	</g>
	<g>
	</g>
	<g>
	</g>
	<g>
	</g>
	<g>
	</g>
	<g>
	</g>
	<g>
	</g>
	<g>
	</g>
	<g>
	</g>
	<g>
	</g>
	<g>
	</g>
	<g>
	</g>
	<g>
	</g>
	<g>
	</g>
	<g>
	</g>
	<g>
	</g>
</g>
</svg>
