
<!-- SVG Menu Generated By CIRCULUS.SVG :: http://sarasoueidan.com/tools/circulus -->
<svg xmlns="http://www.w3.org/2000/svg" xmlns:xlink="http://www.w3.org/1999/xlink" viewBox="-2 -2 504 504" id="menu" style="touch-action: none; -webkit-user-select: none;">
    <style>
        #menu {
        display: block;
        margin: 0 auto;
        /*overflow: visible;*/ /* uncomment this if you are using bouncing animations*/
        }

        a {
        cursor: pointer; /* SVG &lt;a&gt; elements don't get this by default, so you need to explicitly set it */
        outline: none;
        }

        /* You can change these default styles any way you want */

        .sector {
        transition: all .1s linear;
        fill: #404040;
        stroke: #fff;
        }


        .item:hover .sector, .item:focus .sector {
        fill: #eee;
        }

        .icon {
          fill: #fff;
        }

        .menu-trigger {
          pointer-events: auto; /* KEEP THIS to make sure it stays clickable even when SVG's pointer events is disabled */
        }

        .menu-trigger:hover, .menu-trigger:focus {
          cursor: pointer;
        }

        .trigger-circle {
          fill: #999;
          stroke: #fff;
          transition: fill .2s ease-in-out;
        }

        .trigger-circle:hover,
        .trigger-circle:focus {
          fill: #222;
        }

        symbol {
          overflow: visible; /* KEEP THIS so that text will not get cut off it it is wider than the icon width */
        }

        .item--twitter:hover .sector,
        .item--twitter:focus .sector { fill: #00aced; }

        .item--facebook:hover .sector { fill: #3b5998; }
        .item--facebook:focus .sector { fill: #3b5998; }

        .item--googleplus:hover .sector { fill: #dd4b39; }
        .item--googleplus:focus .sector { fill: #dd4b39; }

        .item--mail:hover .sector { fill: #EA2A55; }
        .item--mail:focus .sector { fill: #EA2A55; }
    </style>
    <g id="symbolsContainer">    <symbol class="icon icon-twitter" id="icon-1" viewBox="0 0 24 24"><path d="M20 9.531q-0.875 0.391-1.891 0.531 1.062-0.625 1.453-1.828-1.016 0.594-2.094 0.797-0.953-1.031-2.391-1.031-1.359 0-2.32 0.961t-0.961 2.32q0 0.453 0.078 0.75-2.016-0.109-3.781-1.016t-3-2.422q-0.453 0.781-0.453 1.656 0 1.781 1.422 2.734-0.734-0.016-1.563-0.406v0.031q0 1.172 0.781 2.086t1.922 1.133q-0.453 0.125-0.797 0.125-0.203 0-0.609-0.063 0.328 0.984 1.164 1.625t1.898 0.656q-1.813 1.406-4.078 1.406-0.406 0-0.781-0.047 2.312 1.469 5.031 1.469 1.75 0 3.281-0.555t2.625-1.484 1.883-2.141 1.172-2.531 0.383-2.633q0-0.281-0.016-0.422 0.984-0.703 1.641-1.703zM24 6.5v15q0 1.859-1.32 3.18t-3.18 1.32h-15q-1.859 0-3.18-1.32t-1.32-3.18v-15q0-1.859 1.32-3.18t3.18-1.32h15q1.859 0 3.18 1.32t1.32 3.18z"></path></symbol>

    <symbol class="icon icon--googleplus" id="icon-2" viewBox="0 0 24 24"><path d="M12.953 19.031q0 1.188-0.914 1.758t-2.18 0.57q-0.641 0-1.258-0.148t-1.18-0.445-0.906-0.828-0.344-1.219q0-0.719 0.391-1.25t1.023-0.805 1.281-0.391 1.32-0.117q0.313 0 0.484 0.031 0.031 0.016 0.359 0.258t0.406 0.297 0.359 0.281 0.383 0.344 0.297 0.352 0.266 0.406 0.141 0.414 0.070 0.492zM11.797 10.516q0 0.938-0.516 1.555t-1.437 0.617q-0.828 0-1.453-0.664t-0.898-1.508-0.273-1.656q0-0.953 0.5-1.625t1.437-0.672q0.828 0 1.461 0.703t0.906 1.578 0.273 1.672zM13.453 6.5l1.375-1h-4.141q-1.328 0-2.516 0.5t-1.992 1.531-0.805 2.391q0 1.453 1.008 2.414t2.477 0.961q0.344 0 0.672-0.047-0.203 0.453-0.203 0.844 0 0.688 0.625 1.469-2.734 0.187-4.016 0.984-0.734 0.453-1.18 1.141t-0.445 1.484q0 0.672 0.289 1.211t0.758 0.883 1.078 0.578 1.211 0.328 1.195 0.094q0.938 0 1.883-0.242t1.773-0.719 1.344-1.289 0.516-1.828q0-0.766-0.313-1.398t-0.766-1.039-0.906-0.742-0.766-0.688-0.313-0.695 0.242-0.664 0.586-0.617 0.688-0.656 0.586-0.93 0.242-1.289q0-0.938-0.352-1.555t-1.133-1.414h1.297zM18 13.5h2v-1h-2v-2h-1v2h-2v1h2v2.5h1v-2.5zM24 6.5v15q0 1.859-1.32 3.18t-3.18 1.32h-15q-1.859 0-3.18-1.32t-1.32-3.18v-15q0-1.859 1.32-3.18t3.18-1.32h15q1.859 0 3.18 1.32t1.32 3.18z"></path></symbol>

    <symbol class="icon icon--facebook" id="icon-3" viewBox="0 0 24 24"><path d="M19.5 2q1.859 0 3.18 1.32t1.32 3.18v15q0 1.859-1.32 3.18t-3.18 1.32h-2.938v-9.297h3.109l0.469-3.625h-3.578v-2.312q0-0.875 0.367-1.313t1.43-0.438l1.906-0.016v-3.234q-0.984-0.141-2.781-0.141-2.125 0-3.398 1.25t-1.273 3.531v2.672h-3.125v3.625h3.125v9.297h-8.313q-1.859 0-3.18-1.32t-1.32-3.18v-15q0-1.859 1.32-3.18t3.18-1.32h15z"></path></symbol>

    <symbol class="icon icon--mail" id="icon-4" viewBox="0 0 24 24"><path d="M19.5 2q1.859 0 3.18 1.32t1.32 3.18v15q0 1.859-1.32 3.18t-3.18 1.32h-15q-1.859 0-3.18-1.32t-1.32-3.18v-15q0-1.859 1.32-3.18t3.18-1.32h15zM20 18.5v-6.813q-0.484 0.547-1 0.859-0.531 0.344-2.070 1.328t-2.367 1.547q-1.531 1.078-2.562 1.078v0 0q-1.031 0-2.562-1.078-0.719-0.5-2.211-1.445t-2.227-1.445q-0.187-0.125-0.516-0.422t-0.484-0.422v6.813q0 0.625 0.438 1.062t1.062 0.438h13q0.625 0 1.062-0.438t0.438-1.062zM20 9.547q0-0.641-0.43-1.094t-1.070-0.453h-13q-0.625 0-1.062 0.438t-0.438 1.062q0 0.578 0.477 1.195t1.055 1.008q0.734 0.5 2.148 1.391t2.023 1.297q0.047 0.031 0.266 0.18t0.328 0.219 0.328 0.203 0.367 0.203 0.336 0.148 0.352 0.117 0.32 0.039 0.32-0.039 0.352-0.117 0.336-0.148 0.367-0.203 0.328-0.203 0.328-0.219 0.266-0.18l4.172-2.719q0.547-0.359 1.039-0.977t0.492-1.148z"></path></symbol>

    <symbol class="icon icon--share" id="icon-share" viewBox="0 0 24 24"><path fill="#ffffff" d="M19 16q2.078 0 3.539 1.461t1.461 3.539-1.461 3.539-3.539 1.461-3.539-1.461-1.461-3.539q0-0.187 0.031-0.531l-5.625-2.812q-1.437 1.344-3.406 1.344-2.078 0-3.539-1.461t-1.461-3.539 1.461-3.539 3.539-1.461q1.969 0 3.406 1.344l5.625-2.812q-0.031-0.344-0.031-0.531 0-2.078 1.461-3.539t3.539-1.461 3.539 1.461 1.461 3.539-1.461 3.539-3.539 1.461q-1.969 0-3.406-1.344l-5.625 2.812q0.031 0.344 0.031 0.531t-0.031 0.531l5.625 2.812q1.437-1.344 3.406-1.344z"></path></symbol>

</g>
<g id="itemsContainer">        <a class="item item--twitter" id="item-1" role="link" tabindex="0" xlink:href="" xlink:title="" xlink:target="_parent" transform="matrix(1,0,0,1,0,0)" data-svg-origin="250 250" style=""><path fill="none" stroke="#111" stroke-width="1" class="sector" d="M250,250 l250,0 A250,250 0 0,0 426.7766952966369,73.22330470336314 z"></path><use xlink:href="#icon-1" width="45" height="45" x="406.7326354980469" y="153.25941467285156" transform="rotate(67.5 429.2326354980469 175.75941467285156)"></use></a>
<a class="item item--googleplus" id="item-2" role="link" tabindex="0" xlink:href="" xlink:title="" xlink:target="_parent" transform="matrix(0.7071,-0.7071,0.7071,0.7071,-103.55339059327378,249.99999999999997)" data-svg-origin="250 250" style=""><path fill="none" stroke="#111" stroke-width="1" class="sector" d="M250,250 l250,0 A250,250 0 0,0 426.7766952966369,73.22330470336314 z"></path><use xlink:href="#icon-2" width="45" height="45" x="406.7326354980469" y="153.25941467285156" transform="rotate(67.5 429.2326354980469 175.75941467285156)"></use></a>
<a class="item item--facebook" id="item-3" role="link" tabindex="0" xlink:href="" xlink:title="" xlink:target="_parent" transform="matrix(0,-1,1,0,0,500)" data-svg-origin="250 250" style=""><path fill="none" stroke="#111" stroke-width="1" class="sector" d="M250,250 l250,0 A250,250 0 0,0 426.7766952966369,73.22330470336314 z"></path><use xlink:href="#icon-3" width="45" height="45" x="406.7326354980469" y="153.25941467285156" transform="rotate(67.5 429.2326354980469 175.75941467285156)"></use></a>
<a class="item item--mail" id="item-4" role="link" tabindex="0" xlink:href="" xlink:title="" xlink:target="_parent" transform="matrix(-0.7071,-0.7071,0.7071,-0.7071,249.99999999999997,603.5533905932738)" data-svg-origin="250 250" style=""><path fill="none" stroke="#111" stroke-width="1" class="sector" d="M250,250 l250,0 A250,250 0 0,0 426.7766952966369,73.22330470336314 z"></path><use xlink:href="#icon-4" width="45" height="45" x="406.7326354980469" y="153.25941467285156" transform="rotate(67.5 429.2326354980469 175.75941467285156)"></use></a>
</g>
<g id="trigger" class="trigger menu-trigger" role="button">
    <circle class="trigger-circle" cx="250" cy="250" r="35"></circle>
    <use xlink:href="#icon-share" width="30" height="30" x="233" y="232" class="trigger-icon"></use>
</g>
</svg>
