<?xml version="1.0" encoding="utf-8"?>
<!-- Generator: Adobe Illustrator 18.1.1, SVG Export Plug-In . SVG Version: 6.00 Build 0)  -->
<!DOCTYPE svg PUBLIC "-//W3C//DTD SVG 1.1//EN" "http://www.w3.org/Graphics/SVG/1.1/DTD/svg11.dtd">
<svg version="1.1" id="Layer_1" xmlns="http://www.w3.org/2000/svg" xmlns:xlink="http://www.w3.org/1999/xlink" x="0px" y="0px"
	 width="1147.2px" height="768px" viewBox="0 0 1147.2 768" enable-background="new 0 0 1147.2 768" xml:space="preserve">
<rect x="51.7" y="160.9" fill="#E0E0E0" width="422.8" height="369.5"/>
<rect x="585.7" y="160.9" fill="#E0E0E0" width="422.8" height="369.5"/>
<g>
	<g>
		<path fill="#F0AB00" d="M193.1,283.5h7.7v-38.6h-7.7V283.5z M203.4,283.5h7.7v-25.7h-7.7V283.5z M213.7,283.5h7.7v-46.3h-7.7
			V283.5z M224,270.6v12.9h7.7v-12.9H224z"/>
	</g>
</g>
<path fill="#003F6A" d="M304.6,265.3l-6.1-6.1l21.2-21.2h3l3,3v3L304.6,265.3z M295.5,271.4l-3-3l3.6-5.5l4.9,4.9L295.5,271.4z
	 M289.5,271.4l3,3l12.1-3l9.1-9.1v21.2h-33.4V241h30.3l-18.2,18.2L289.5,271.4z"/>
<g>
	<g>
		<path fill="#E98324" d="M387.6,263.3v-19.7c-11,0-20,8.9-20,20c0,11,8.9,19.9,20,19.9c11,0,20-8.9,20-19.9c0-0.1,0-0.2,0-0.3
			L387.6,263.3L387.6,263.3z M392.6,238.6v19.7h19.9C412.4,247.4,403.5,238.6,392.6,238.6z"/>
	</g>
</g>
<polygon fill="#97BD3D" points="229.8,353.4 199.2,330.3 196.6,331.8 201.6,369.5 210.1,358.8 217.6,371.7 225.4,367.2 218.4,355 
	"/>
<g>
	<g>
		<path fill="#ED1A37" d="M387.4,451.8l11.6-12.1l13.5,16.6L399,421.2L387.8,441l-11.3-5.6l-7.1,18.8l6.2-8.3L387.4,451.8z
			 M399,443.8l-11.3,11.3l-11.3-5.6l-8.5,11.3h45.2L399,443.8z"/>
	</g>
</g>
<g>
	<g>
		<path fill="#2484CE" d="M309.4,460.7l9.2-9.2h-9.2V460.7z M284.8,417.6v43.2h24.7l-3.1-3.1v-9.2h9.2l3.1,3.1v-33.9H284.8z"/>
	</g>
</g>
<path fill="#7D0063" d="M313.2,356.9v-15l9.9-6.1V363L313.2,356.9z M310.8,343.4v12v2.7c0,2.7-2.2,4.9-4.9,4.9h-22.3
	c-2.7,0-4.9-2.2-4.9-4.9v-17.3c0-2.7,2.2-4.9,4.9-4.9h22.3c2.7,0,4.9,2.2,4.9,4.9V343.4z"/>
<path fill="#C51F24" d="M212.4,416.7c-8.5,0-15.4,7.1-15.4,15.9c0,0.6,0,1.2,0.1,1.8c1.1,11.5,11.9,26,15.3,26s14.2-14.5,15.3-26
	c0.1-0.6,0.1-1.2,0.1-1.8C227.8,423.8,220.9,416.7,212.4,416.7z M212.4,437.2c-2.8,0-5.1-2.3-5.1-5.1c0-2.8,2.3-5.1,5.1-5.1
	c2.8,0,5.1,2.3,5.1,5.1C217.5,434.9,215.2,437.2,212.4,437.2z"/>
<g>
	<g>
		<polygon fill="#007A4D" points="412.2,336.4 412.2,333.6 392.7,333.6 392.7,330.8 387.2,330.8 387.2,333.6 367.7,333.6 
			367.7,336.4 370.5,336.4 370.5,358.7 367.7,358.7 367.7,361.5 385.1,361.5 378.8,369.8 384.4,369.8 389.9,362.4 395.5,369.8 
			401.1,369.8 394.8,361.5 412.2,361.5 412.2,358.7 409.4,358.7 409.4,336.4 		"/>
	</g>
</g>
<g>
	<path d="M109.2,335.2l1.5,0.7l-8.8,19.8l-1.5-0.7L109.2,335.2z"/>
	<path d="M123.2,349.1c0-0.5-0.2-0.9-0.6-1.2c-0.4-0.3-0.9-0.5-1.5-0.7c-0.6-0.2-1.2-0.3-1.9-0.5s-1.3-0.3-1.9-0.6
		c-0.6-0.2-1.1-0.6-1.5-1c-0.4-0.4-0.6-1-0.6-1.7c0-0.6,0.1-1.1,0.4-1.6c0.3-0.4,0.6-0.8,1-1.1c0.4-0.3,0.9-0.5,1.5-0.6
		c0.6-0.1,1.2-0.2,1.8-0.2c1.1,0,2.1,0.1,2.9,0.4c0.8,0.3,1.5,0.6,1.9,0.9l-0.8,1.5c-0.5-0.3-1.1-0.6-1.7-0.8
		c-0.6-0.3-1.4-0.4-2.3-0.4c-0.4,0-0.7,0-1,0.1c-0.3,0.1-0.7,0.2-0.9,0.3c-0.3,0.1-0.5,0.3-0.7,0.6c-0.2,0.2-0.3,0.5-0.3,0.9
		c0,0.4,0.2,0.7,0.6,1c0.4,0.2,0.9,0.4,1.5,0.6c0.6,0.2,1.2,0.3,1.9,0.4c0.7,0.1,1.3,0.3,1.9,0.6c0.6,0.3,1.1,0.6,1.5,1
		c0.4,0.4,0.6,1,0.6,1.8c0,1.1-0.4,2-1.3,2.7c-0.9,0.7-2.2,1.1-3.9,1.1c-0.5,0-1,0-1.6-0.1c-0.5-0.1-1-0.2-1.4-0.4
		c-0.4-0.2-0.9-0.3-1.2-0.5s-0.7-0.4-0.9-0.6l1-1.6c0.2,0.2,0.4,0.4,0.8,0.6c0.3,0.2,0.7,0.4,1.1,0.5c0.4,0.2,0.8,0.3,1.2,0.4
		c0.4,0.1,0.9,0.1,1.3,0.1c0.4,0,0.8,0,1.2-0.1c0.4-0.1,0.7-0.2,1-0.3c0.3-0.2,0.5-0.4,0.7-0.6S123.2,349.4,123.2,349.1z"/>
	<path d="M134.4,350h0.3l3.8-9.7h2.1l-5.1,12h-2.1l-5.2-12h2.2L134.4,350z"/>
	<path d="M154.1,352.9c0,0.8-0.1,1.4-0.4,2c-0.3,0.6-0.7,1-1.2,1.4s-1.1,0.6-1.8,0.8c-0.7,0.2-1.4,0.3-2.2,0.3
		c-0.9,0-1.8-0.1-2.5-0.3c-0.7-0.2-1.3-0.4-1.8-0.7l0.9-1.7c0.1,0.1,0.3,0.3,0.6,0.4s0.5,0.2,0.8,0.3c0.3,0.1,0.6,0.2,1,0.3
		s0.7,0.1,1,0.1c0.7,0,1.3-0.1,1.8-0.2s0.8-0.3,1.1-0.6c0.3-0.3,0.5-0.6,0.6-1.1c0.1-0.4,0.2-1,0.2-1.6v-1.3h-0.1
		c-0.4,0.5-0.8,0.9-1.4,1.2c-0.6,0.3-1.3,0.4-2.2,0.4c-1.8,0-3.2-0.5-4-1.5s-1.3-2.6-1.3-4.7c0-2,0.5-3.6,1.6-4.6
		c1.1-1,2.7-1.6,4.8-1.6c1,0,1.8,0.1,2.5,0.2c0.7,0.1,1.3,0.3,1.9,0.5V352.9z M148.8,351c1,0,1.7-0.3,2.3-0.8
		c0.6-0.5,0.9-1.3,1.2-2.3v-5.7c-0.7-0.3-1.7-0.5-2.9-0.5c-1.3,0-2.3,0.4-3,1.1c-0.7,0.8-1.1,1.9-1.1,3.5c0,0.7,0.1,1.3,0.2,1.9
		c0.1,0.6,0.3,1.1,0.6,1.5c0.3,0.4,0.6,0.7,1.1,1S148.1,351,148.8,351z"/>
</g>
<g>
	<path d="M661.4,226.1v-1.4h3.7V217h-3.7v-1.4h5.3v9.1h3.6v1.4H661.4z M664.5,212.6c0-0.4,0.1-0.7,0.4-1s0.6-0.4,1-0.4
		c0.4,0,0.7,0.1,1,0.4s0.4,0.6,0.4,1c0,0.4-0.1,0.7-0.4,0.9s-0.6,0.4-1,0.4c-0.4,0-0.7-0.1-1-0.4S664.5,213,664.5,212.6z"/>
	<path d="M681,217.2c-0.3-0.1-0.7-0.2-1-0.3c-0.4-0.1-0.7-0.1-1.1-0.1c-1.4,0-2.4,0.3-3.1,1c-0.7,0.6-1,1.7-1,3.1
		c0,0.6,0.1,1.2,0.3,1.7c0.2,0.5,0.5,0.9,0.8,1.2c0.4,0.3,0.8,0.6,1.3,0.8c0.5,0.2,1.1,0.3,1.7,0.3c0.7,0,1.3-0.1,1.9-0.3
		s1.1-0.5,1.6-0.9l0.7,1.2c-0.2,0.2-0.4,0.3-0.7,0.5c-0.3,0.2-0.6,0.4-1,0.5c-0.4,0.2-0.8,0.3-1.3,0.4c-0.5,0.1-1,0.1-1.5,0.1
		c-0.9,0-1.7-0.1-2.4-0.4c-0.7-0.3-1.3-0.6-1.7-1.1c-0.5-0.5-0.8-1.1-1-1.7c-0.2-0.7-0.4-1.4-0.4-2.3c0-0.9,0.1-1.7,0.4-2.4
		c0.2-0.7,0.6-1.3,1.1-1.7c0.5-0.5,1-0.8,1.7-1.1s1.4-0.4,2.2-0.4c1,0,1.9,0.1,2.5,0.3c0.7,0.2,1.2,0.4,1.6,0.6l0,0.1v2.9H681V217.2
		z"/>
	<path d="M685.6,220.8c0-1.7,0.4-3,1.3-4c0.9-1,2.1-1.5,3.8-1.5c0.9,0,1.6,0.1,2.3,0.4s1.2,0.7,1.6,1.2c0.4,0.5,0.7,1.1,0.9,1.7
		c0.2,0.7,0.3,1.4,0.3,2.2c0,0.8-0.1,1.6-0.3,2.3c-0.2,0.7-0.6,1.3-1,1.7s-1,0.8-1.6,1.1c-0.6,0.3-1.4,0.4-2.2,0.4
		c-0.9,0-1.6-0.1-2.3-0.4c-0.6-0.3-1.2-0.7-1.6-1.2c-0.4-0.5-0.7-1.1-0.9-1.7C685.7,222.3,685.6,221.6,685.6,220.8z M687.3,220.8
		c0,0.5,0.1,1,0.2,1.5c0.1,0.5,0.3,0.9,0.6,1.3c0.3,0.4,0.6,0.7,1,0.9c0.4,0.2,0.9,0.4,1.6,0.4c1.1,0,2-0.3,2.5-1
		c0.6-0.7,0.8-1.7,0.8-3.1c0-0.5-0.1-1-0.2-1.5c-0.1-0.5-0.3-0.9-0.6-1.3c-0.3-0.4-0.6-0.7-1-0.9c-0.4-0.2-0.9-0.4-1.6-0.4
		c-1.1,0-2,0.3-2.5,1S687.3,219.5,687.3,220.8z"/>
	<path d="M698.9,219.3c0-0.1,0-0.3,0-0.5s0-0.4,0-0.6c0-0.2,0-0.4-0.1-0.6s0-0.4-0.1-0.5h-1.4v-1.4h2.8l0.2,1.7h0.1
		c0.1-0.2,0.3-0.5,0.6-0.7c0.2-0.2,0.5-0.4,0.8-0.6c0.3-0.2,0.7-0.3,1-0.5c0.4-0.1,0.8-0.2,1.2-0.2c0.6,0,1.2,0.1,1.7,0.2
		c0.5,0.1,0.9,0.4,1.2,0.7s0.6,0.8,0.7,1.4c0.2,0.6,0.3,1.4,0.3,2.3v6h-1.7v-5.7c0-1.2-0.2-2-0.6-2.6c-0.4-0.6-1.1-0.9-2.1-0.9
		c-0.4,0-0.7,0.1-1.1,0.2c-0.3,0.1-0.7,0.3-0.9,0.6c-0.3,0.2-0.5,0.5-0.7,0.8c-0.2,0.3-0.4,0.6-0.5,1v6.6h-1.6V219.3z"/>
	<path d="M718.8,223.3c0-0.4-0.2-0.8-0.5-1c-0.3-0.2-0.8-0.4-1.3-0.6c-0.5-0.1-1.1-0.3-1.7-0.4s-1.2-0.3-1.7-0.5
		c-0.5-0.2-0.9-0.5-1.3-0.9c-0.3-0.4-0.5-0.9-0.5-1.5c0-0.5,0.1-1,0.3-1.4c0.2-0.4,0.5-0.7,0.9-0.9c0.4-0.2,0.8-0.4,1.3-0.5
		c0.5-0.1,1-0.2,1.6-0.2c1,0,1.8,0.1,2.5,0.4s1.3,0.5,1.7,0.8l-0.7,1.3c-0.5-0.3-1-0.5-1.5-0.7c-0.5-0.2-1.2-0.3-2-0.3
		c-0.3,0-0.6,0-0.9,0.1c-0.3,0.1-0.6,0.2-0.8,0.3s-0.4,0.3-0.6,0.5c-0.1,0.2-0.2,0.5-0.2,0.7c0,0.4,0.2,0.6,0.5,0.8
		c0.3,0.2,0.8,0.4,1.3,0.5c0.5,0.1,1.1,0.3,1.7,0.4c0.6,0.1,1.2,0.3,1.7,0.5c0.5,0.2,0.9,0.5,1.3,0.9c0.3,0.4,0.5,0.9,0.5,1.5
		c0,1-0.4,1.8-1.1,2.4c-0.8,0.6-1.9,0.9-3.4,0.9c-0.5,0-0.9,0-1.4-0.1s-0.9-0.2-1.3-0.3c-0.4-0.1-0.7-0.3-1.1-0.5
		c-0.3-0.2-0.6-0.4-0.8-0.5l0.8-1.4c0.2,0.2,0.4,0.3,0.7,0.5c0.3,0.2,0.6,0.3,0.9,0.5c0.3,0.1,0.7,0.3,1.1,0.3
		c0.4,0.1,0.8,0.1,1.2,0.1c0.4,0,0.7,0,1.1-0.1s0.6-0.2,0.9-0.3c0.3-0.1,0.4-0.3,0.6-0.5C718.7,223.8,718.8,223.6,718.8,223.3z"/>
	<path d="M727.1,224.9c0-0.4,0.1-0.8,0.4-1s0.6-0.4,1-0.4c0.4,0,0.8,0.1,1.1,0.4s0.4,0.6,0.4,1c0,0.4-0.1,0.7-0.4,1
		s-0.6,0.4-1.1,0.4c-0.4,0-0.8-0.1-1-0.4S727.1,225.3,727.1,224.9z"/>
	<path d="M742.1,211.4h3.4v11.1c0,0.1,0,0.3,0,0.5s0,0.4,0.1,0.6c0,0.2,0,0.4,0.1,0.6c0,0.2,0.1,0.4,0.1,0.5h1.4v1.4h-2.8l-0.2-1.6
		h-0.1c-0.3,0.5-0.8,1-1.4,1.3c-0.6,0.4-1.3,0.5-2.1,0.5c-1.6,0-2.7-0.4-3.5-1.3c-0.7-0.9-1.1-2.3-1.1-4.1c0-0.9,0.1-1.7,0.4-2.3
		s0.6-1.2,1.1-1.7c0.5-0.5,1-0.8,1.7-1c0.7-0.2,1.4-0.4,2.2-0.4c0.3,0,0.6,0,0.8,0c0.2,0,0.4,0,0.6,0.1c0.2,0,0.4,0.1,0.6,0.1
		c0.2,0,0.4,0.1,0.6,0.2v-3h-1.8V211.4z M740.8,224.9c0.9,0,1.5-0.2,2-0.7s0.8-1.1,1-2v-4.9c-0.3-0.2-0.7-0.4-1-0.5
		c-0.4-0.1-0.9-0.1-1.5-0.1c-1.1,0-2,0.3-2.6,1c-0.6,0.7-1,1.7-1,3.1c0,0.6,0.1,1.1,0.2,1.6c0.1,0.5,0.3,0.9,0.5,1.3
		c0.2,0.4,0.6,0.7,1,0.9C739.8,224.8,740.3,224.9,740.8,224.9z"/>
	<path d="M749.7,216.4c0.6-0.3,1.3-0.6,2-0.8c0.8-0.2,1.5-0.2,2.2-0.2c0.7,0,1.3,0.1,1.8,0.3c0.5,0.2,0.8,0.5,1.1,0.9
		s0.4,0.8,0.5,1.2c0.1,0.5,0.1,0.9,0.1,1.4c0,0.5,0,1.1,0,1.7c0,0.6,0,1.2-0.1,1.8c0,0.7,0,1.4,0.1,2h1.4v1.4h-2.8l-0.2-1.6h-0.1
		c-0.1,0.1-0.2,0.3-0.4,0.5c-0.2,0.2-0.4,0.4-0.7,0.6c-0.3,0.2-0.6,0.4-1,0.5c-0.4,0.1-0.9,0.2-1.4,0.2c-1,0-1.9-0.3-2.5-0.8
		c-0.6-0.5-0.9-1.3-0.9-2.2c0-0.7,0.2-1.3,0.5-1.8c0.3-0.5,0.8-0.8,1.4-1.1s1.3-0.4,2.1-0.4c0.8,0,1.8,0,2.8,0.2
		c0.1-0.6,0.1-1.2,0-1.6s-0.2-0.8-0.3-1c-0.2-0.3-0.4-0.4-0.7-0.5c-0.3-0.1-0.7-0.2-1.2-0.2c-0.6,0-1.2,0.1-1.8,0.3
		c-0.6,0.2-1.1,0.4-1.5,0.5L749.7,216.4z M752.8,224.9c0.4,0,0.8-0.1,1.1-0.2c0.3-0.1,0.6-0.3,0.9-0.5c0.3-0.2,0.5-0.4,0.6-0.6
		c0.2-0.2,0.3-0.5,0.4-0.7v-1.5c-0.7-0.1-1.4-0.2-2-0.2s-1.1,0.1-1.6,0.2c-0.4,0.1-0.8,0.3-1,0.6c-0.3,0.3-0.4,0.6-0.4,1.1
		c0,0.5,0.2,0.9,0.5,1.2C751.5,224.7,752,224.9,752.8,224.9z"/>
	<path d="M760.6,215.6h2.5v-2.1l1.7-0.5v2.5h5.6v1.4h-5.6v5c0,1,0.2,1.8,0.7,2.3c0.5,0.5,1.2,0.7,2.1,0.7c0.6,0,1.2-0.1,1.6-0.4
		c0.5-0.2,0.9-0.5,1.3-0.8l0.5,1.2c-0.5,0.4-1.1,0.7-1.8,0.9c-0.7,0.2-1.4,0.4-2.1,0.4c-0.6,0-1.1-0.1-1.6-0.2
		c-0.5-0.2-0.9-0.4-1.3-0.7c-0.4-0.3-0.7-0.8-0.9-1.3c-0.2-0.5-0.3-1.2-0.3-1.9V217h-2.5V215.6z"/>
	<path d="M774.9,216.4c0.6-0.3,1.3-0.6,2-0.8c0.8-0.2,1.5-0.2,2.2-0.2c0.7,0,1.3,0.1,1.8,0.3c0.5,0.2,0.8,0.5,1.1,0.9
		c0.3,0.4,0.4,0.8,0.5,1.2c0.1,0.5,0.1,0.9,0.1,1.4c0,0.5,0,1.1,0,1.7c0,0.6,0,1.2-0.1,1.8c0,0.7,0,1.4,0.1,2h1.4v1.4h-2.8l-0.2-1.6
		H781c-0.1,0.1-0.2,0.3-0.4,0.5c-0.2,0.2-0.4,0.4-0.7,0.6c-0.3,0.2-0.6,0.4-1,0.5s-0.9,0.2-1.4,0.2c-1,0-1.9-0.3-2.5-0.8
		s-0.9-1.3-0.9-2.2c0-0.7,0.2-1.3,0.5-1.8c0.3-0.5,0.8-0.8,1.4-1.1c0.6-0.3,1.3-0.4,2.1-0.4c0.8,0,1.8,0,2.8,0.2
		c0.1-0.6,0.1-1.2,0-1.6s-0.2-0.8-0.3-1c-0.2-0.3-0.4-0.4-0.7-0.5s-0.7-0.2-1.2-0.2c-0.6,0-1.2,0.1-1.8,0.3
		c-0.6,0.2-1.1,0.4-1.5,0.5L774.9,216.4z M778,224.9c0.4,0,0.8-0.1,1.1-0.2c0.3-0.1,0.6-0.3,0.9-0.5c0.3-0.2,0.5-0.4,0.6-0.6
		c0.2-0.2,0.3-0.5,0.4-0.7v-1.5c-0.7-0.1-1.4-0.2-2-0.2c-0.6,0-1.1,0.1-1.6,0.2c-0.4,0.1-0.8,0.3-1.1,0.6c-0.3,0.3-0.4,0.6-0.4,1.1
		c0,0.5,0.2,0.9,0.5,1.2C776.7,224.7,777.2,224.9,778,224.9z"/>
	<path d="M790.1,224.9c0-0.4,0.1-0.8,0.4-1s0.6-0.4,1-0.4c0.4,0,0.8,0.1,1,0.4s0.4,0.6,0.4,1c0,0.4-0.1,0.7-0.4,1s-0.6,0.4-1,0.4
		c-0.4,0-0.8-0.1-1-0.4S790.1,225.3,790.1,224.9z"/>
	<path d="M807,223.3c0-0.4-0.2-0.8-0.5-1c-0.3-0.2-0.8-0.4-1.3-0.6c-0.5-0.1-1.1-0.3-1.7-0.4c-0.6-0.1-1.2-0.3-1.7-0.5
		c-0.5-0.2-0.9-0.5-1.3-0.9c-0.3-0.4-0.5-0.9-0.5-1.5c0-0.5,0.1-1,0.3-1.4c0.2-0.4,0.5-0.7,0.9-0.9c0.4-0.2,0.8-0.4,1.3-0.5
		c0.5-0.1,1-0.2,1.6-0.2c1,0,1.8,0.1,2.5,0.4c0.7,0.2,1.3,0.5,1.7,0.8l-0.7,1.3c-0.5-0.3-1-0.5-1.5-0.7c-0.5-0.2-1.2-0.3-2-0.3
		c-0.3,0-0.6,0-0.9,0.1c-0.3,0.1-0.6,0.2-0.8,0.3s-0.4,0.3-0.6,0.5c-0.1,0.2-0.2,0.5-0.2,0.7c0,0.4,0.2,0.6,0.5,0.8
		c0.3,0.2,0.8,0.4,1.3,0.5c0.5,0.1,1.1,0.3,1.7,0.4c0.6,0.1,1.2,0.3,1.7,0.5c0.5,0.2,0.9,0.5,1.3,0.9c0.3,0.4,0.5,0.9,0.5,1.5
		c0,1-0.4,1.8-1.1,2.4c-0.8,0.6-1.9,0.9-3.4,0.9c-0.5,0-0.9,0-1.4-0.1c-0.4-0.1-0.9-0.2-1.3-0.3c-0.4-0.1-0.8-0.3-1.1-0.5
		c-0.3-0.2-0.6-0.4-0.8-0.5l0.8-1.4c0.2,0.2,0.4,0.3,0.7,0.5c0.3,0.2,0.6,0.3,0.9,0.5c0.3,0.1,0.7,0.3,1.1,0.3
		c0.4,0.1,0.8,0.1,1.2,0.1c0.4,0,0.7,0,1.1-0.1s0.6-0.2,0.9-0.3c0.3-0.1,0.5-0.3,0.6-0.5C806.9,223.8,807,223.6,807,223.3z"/>
	<path d="M816.7,224.1h0.2l3.3-8.5h1.8l-4.4,10.5h-1.8l-4.5-10.5h1.9L816.7,224.1z"/>
	<path d="M834,226.6c0,0.7-0.1,1.2-0.4,1.7s-0.6,0.9-1,1.2c-0.4,0.3-1,0.6-1.5,0.7c-0.6,0.2-1.2,0.2-1.9,0.2c-0.8,0-1.5-0.1-2.2-0.3
		s-1.1-0.4-1.6-0.7l0.8-1.5c0.1,0.1,0.3,0.2,0.5,0.3c0.2,0.1,0.4,0.2,0.7,0.3c0.3,0.1,0.5,0.2,0.8,0.2c0.3,0.1,0.6,0.1,0.9,0.1
		c0.6,0,1.1-0.1,1.5-0.2c0.4-0.1,0.7-0.3,1-0.5c0.3-0.2,0.4-0.5,0.5-0.9c0.1-0.4,0.2-0.8,0.2-1.4v-1.2h-0.1
		c-0.3,0.5-0.7,0.8-1.2,1.1c-0.5,0.3-1.2,0.4-1.9,0.4c-1.6,0-2.8-0.4-3.5-1.3c-0.7-0.9-1.1-2.3-1.1-4.1c0-1.8,0.5-3.1,1.4-4.1
		s2.4-1.4,4.2-1.4c0.9,0,1.6,0.1,2.2,0.2c0.6,0.1,1.2,0.3,1.7,0.5V226.6z M829.3,224.9c0.8,0,1.5-0.2,2-0.7c0.5-0.4,0.8-1.1,1-2v-5
		c-0.6-0.3-1.5-0.4-2.6-0.4c-1.1,0-2,0.3-2.6,1s-1,1.7-1,3c0,0.6,0.1,1.2,0.2,1.6c0.1,0.5,0.3,0.9,0.5,1.3c0.2,0.4,0.6,0.6,1,0.9
		C828.2,224.8,828.7,224.9,829.3,224.9z"/>
	<path d="M840.5,224.9c0-0.4,0.1-0.8,0.4-1s0.6-0.4,1-0.4c0.4,0,0.8,0.1,1.1,0.4s0.4,0.6,0.4,1c0,0.4-0.1,0.7-0.4,1
		s-0.6,0.4-1.1,0.4c-0.4,0-0.8-0.1-1-0.4S840.5,225.3,840.5,224.9z"/>
	<path d="M857.4,217.2c-0.3-0.1-0.7-0.2-1-0.3c-0.4-0.1-0.7-0.1-1.1-0.1c-1.4,0-2.4,0.3-3.1,1c-0.7,0.6-1,1.7-1,3.1
		c0,0.6,0.1,1.2,0.3,1.7c0.2,0.5,0.5,0.9,0.8,1.2s0.8,0.6,1.3,0.8s1.1,0.3,1.7,0.3c0.7,0,1.3-0.1,1.9-0.3c0.6-0.2,1.1-0.5,1.6-0.9
		l0.7,1.2c-0.2,0.2-0.4,0.3-0.7,0.5c-0.3,0.2-0.6,0.4-1,0.5c-0.4,0.2-0.8,0.3-1.3,0.4c-0.5,0.1-1,0.1-1.5,0.1
		c-0.9,0-1.7-0.1-2.4-0.4c-0.7-0.3-1.3-0.6-1.7-1.1c-0.5-0.5-0.8-1.1-1.1-1.7c-0.2-0.7-0.4-1.4-0.4-2.3c0-0.9,0.1-1.7,0.4-2.4
		c0.2-0.7,0.6-1.3,1.1-1.7c0.5-0.5,1-0.8,1.7-1.1c0.7-0.2,1.4-0.4,2.2-0.4c1,0,1.9,0.1,2.5,0.3c0.7,0.2,1.2,0.4,1.6,0.6l0,0.1v2.9
		h-1.5V217.2z"/>
	<path d="M870,223.3c0-0.4-0.2-0.8-0.5-1c-0.3-0.2-0.8-0.4-1.3-0.6s-1.1-0.3-1.7-0.4c-0.6-0.1-1.2-0.3-1.7-0.5s-0.9-0.5-1.3-0.9
		c-0.3-0.4-0.5-0.9-0.5-1.5c0-0.5,0.1-1,0.3-1.4c0.2-0.4,0.5-0.7,0.9-0.9s0.8-0.4,1.3-0.5c0.5-0.1,1-0.2,1.6-0.2
		c1,0,1.8,0.1,2.5,0.4c0.7,0.2,1.3,0.5,1.7,0.8l-0.7,1.3c-0.5-0.3-1-0.5-1.5-0.7s-1.2-0.3-2-0.3c-0.3,0-0.6,0-0.9,0.1
		s-0.6,0.2-0.8,0.3s-0.4,0.3-0.6,0.5c-0.1,0.2-0.2,0.5-0.2,0.7c0,0.4,0.2,0.6,0.5,0.8c0.3,0.2,0.8,0.4,1.3,0.5
		c0.5,0.1,1.1,0.3,1.7,0.4c0.6,0.1,1.2,0.3,1.7,0.5c0.5,0.2,0.9,0.5,1.3,0.9s0.5,0.9,0.5,1.5c0,1-0.4,1.8-1.1,2.4
		c-0.8,0.6-1.9,0.9-3.4,0.9c-0.5,0-0.9,0-1.4-0.1c-0.4-0.1-0.9-0.2-1.3-0.3c-0.4-0.1-0.7-0.3-1.1-0.5c-0.3-0.2-0.6-0.4-0.8-0.5
		l0.8-1.4c0.2,0.2,0.4,0.3,0.7,0.5c0.3,0.2,0.6,0.3,0.9,0.5c0.3,0.1,0.7,0.3,1.1,0.3c0.4,0.1,0.8,0.1,1.2,0.1c0.4,0,0.7,0,1.1-0.1
		s0.6-0.2,0.9-0.3c0.3-0.1,0.5-0.3,0.6-0.5C869.9,223.8,870,223.6,870,223.3z"/>
	<path d="M882.6,223.3c0-0.4-0.2-0.8-0.5-1c-0.3-0.2-0.8-0.4-1.3-0.6s-1.1-0.3-1.7-0.4c-0.6-0.1-1.2-0.3-1.7-0.5s-0.9-0.5-1.3-0.9
		c-0.3-0.4-0.5-0.9-0.5-1.5c0-0.5,0.1-1,0.3-1.4c0.2-0.4,0.5-0.7,0.9-0.9s0.8-0.4,1.3-0.5c0.5-0.1,1-0.2,1.6-0.2
		c1,0,1.8,0.1,2.5,0.4c0.7,0.2,1.3,0.5,1.7,0.8l-0.7,1.3c-0.5-0.3-1-0.5-1.5-0.7s-1.2-0.3-2-0.3c-0.3,0-0.6,0-0.9,0.1
		s-0.6,0.2-0.8,0.3s-0.4,0.3-0.6,0.5c-0.1,0.2-0.2,0.5-0.2,0.7c0,0.4,0.2,0.6,0.5,0.8c0.3,0.2,0.8,0.4,1.3,0.5
		c0.5,0.1,1.1,0.3,1.7,0.4c0.6,0.1,1.2,0.3,1.7,0.5c0.5,0.2,0.9,0.5,1.3,0.9s0.5,0.9,0.5,1.5c0,1-0.4,1.8-1.1,2.4
		c-0.8,0.6-1.9,0.9-3.4,0.9c-0.5,0-0.9,0-1.4-0.1c-0.4-0.1-0.9-0.2-1.3-0.3c-0.4-0.1-0.7-0.3-1.1-0.5c-0.3-0.2-0.6-0.4-0.8-0.5
		l0.8-1.4c0.2,0.2,0.4,0.3,0.7,0.5c0.3,0.2,0.6,0.3,0.9,0.5c0.3,0.1,0.7,0.3,1.1,0.3c0.4,0.1,0.8,0.1,1.2,0.1c0.4,0,0.7,0,1.1-0.1
		s0.6-0.2,0.9-0.3c0.3-0.1,0.5-0.3,0.6-0.5C882.5,223.8,882.6,223.6,882.6,223.3z"/>
	<path d="M661.4,268.1v-1.4h3.7V259h-3.7v-1.4h5.3v9.1h3.6v1.4H661.4z M664.5,254.6c0-0.4,0.1-0.7,0.4-1s0.6-0.4,1-0.4
		c0.4,0,0.7,0.1,1,0.4s0.4,0.6,0.4,1c0,0.4-0.1,0.7-0.4,0.9s-0.6,0.4-1,0.4c-0.4,0-0.7-0.1-1-0.4S664.5,255,664.5,254.6z"/>
	<path d="M681,259.2c-0.3-0.1-0.7-0.2-1-0.3c-0.4-0.1-0.7-0.1-1.1-0.1c-1.4,0-2.4,0.3-3.1,1c-0.7,0.6-1,1.7-1,3.1
		c0,0.6,0.1,1.2,0.3,1.7c0.2,0.5,0.5,0.9,0.8,1.2c0.4,0.3,0.8,0.6,1.3,0.8c0.5,0.2,1.1,0.3,1.7,0.3c0.7,0,1.3-0.1,1.9-0.3
		s1.1-0.5,1.6-0.9l0.7,1.2c-0.2,0.2-0.4,0.3-0.7,0.5c-0.3,0.2-0.6,0.4-1,0.5c-0.4,0.2-0.8,0.3-1.3,0.4c-0.5,0.1-1,0.1-1.5,0.1
		c-0.9,0-1.7-0.1-2.4-0.4c-0.7-0.3-1.3-0.6-1.7-1.1c-0.5-0.5-0.8-1.1-1-1.7c-0.2-0.7-0.4-1.4-0.4-2.3c0-0.9,0.1-1.7,0.4-2.4
		c0.2-0.7,0.6-1.3,1.1-1.7c0.5-0.5,1-0.8,1.7-1.1s1.4-0.4,2.2-0.4c1,0,1.9,0.1,2.5,0.3c0.7,0.2,1.2,0.4,1.6,0.6l0,0.1v2.9H681V259.2
		z"/>
	<path d="M685.6,262.8c0-1.7,0.4-3,1.3-4c0.9-1,2.1-1.5,3.8-1.5c0.9,0,1.6,0.1,2.3,0.4s1.2,0.7,1.6,1.2c0.4,0.5,0.7,1.1,0.9,1.7
		c0.2,0.7,0.3,1.4,0.3,2.2c0,0.8-0.1,1.6-0.3,2.3c-0.2,0.7-0.6,1.3-1,1.7s-1,0.8-1.6,1.1c-0.6,0.3-1.4,0.4-2.2,0.4
		c-0.9,0-1.6-0.1-2.3-0.4c-0.6-0.3-1.2-0.7-1.6-1.2c-0.4-0.5-0.7-1.1-0.9-1.7C685.7,264.3,685.6,263.6,685.6,262.8z M687.3,262.8
		c0,0.5,0.1,1,0.2,1.5c0.1,0.5,0.3,0.9,0.6,1.3c0.3,0.4,0.6,0.7,1,0.9c0.4,0.2,0.9,0.4,1.6,0.4c1.1,0,2-0.3,2.5-1
		c0.6-0.7,0.8-1.7,0.8-3.1c0-0.5-0.1-1-0.2-1.5c-0.1-0.5-0.3-0.9-0.6-1.3c-0.3-0.4-0.6-0.7-1-0.9c-0.4-0.2-0.9-0.4-1.6-0.4
		c-1.1,0-2,0.3-2.5,1S687.3,261.5,687.3,262.8z"/>
	<path d="M698.9,261.3c0-0.1,0-0.3,0-0.5s0-0.4,0-0.6c0-0.2,0-0.4-0.1-0.6s0-0.4-0.1-0.5h-1.4v-1.4h2.8l0.2,1.7h0.1
		c0.1-0.2,0.3-0.5,0.6-0.7c0.2-0.2,0.5-0.4,0.8-0.6c0.3-0.2,0.7-0.3,1-0.5c0.4-0.1,0.8-0.2,1.2-0.2c0.6,0,1.2,0.1,1.7,0.2
		c0.5,0.1,0.9,0.4,1.2,0.7s0.6,0.8,0.7,1.4c0.2,0.6,0.3,1.4,0.3,2.3v6h-1.7v-5.7c0-1.2-0.2-2-0.6-2.6c-0.4-0.6-1.1-0.9-2.1-0.9
		c-0.4,0-0.7,0.1-1.1,0.2c-0.3,0.1-0.7,0.3-0.9,0.6c-0.3,0.2-0.5,0.5-0.7,0.8c-0.2,0.3-0.4,0.6-0.5,1v6.6h-1.6V261.3z"/>
	<path d="M718.8,265.3c0-0.4-0.2-0.8-0.5-1c-0.3-0.2-0.8-0.4-1.3-0.6c-0.5-0.1-1.1-0.3-1.7-0.4s-1.2-0.3-1.7-0.5
		c-0.5-0.2-0.9-0.5-1.3-0.9c-0.3-0.4-0.5-0.9-0.5-1.5c0-0.5,0.1-1,0.3-1.4c0.2-0.4,0.5-0.7,0.9-0.9c0.4-0.2,0.8-0.4,1.3-0.5
		c0.5-0.1,1-0.2,1.6-0.2c1,0,1.8,0.1,2.5,0.4s1.3,0.5,1.7,0.8l-0.7,1.3c-0.5-0.3-1-0.5-1.5-0.7c-0.5-0.2-1.2-0.3-2-0.3
		c-0.3,0-0.6,0-0.9,0.1c-0.3,0.1-0.6,0.2-0.8,0.3s-0.4,0.3-0.6,0.5c-0.1,0.2-0.2,0.5-0.2,0.7c0,0.4,0.2,0.6,0.5,0.8
		c0.3,0.2,0.8,0.4,1.3,0.5c0.5,0.1,1.1,0.3,1.7,0.4c0.6,0.1,1.2,0.3,1.7,0.5c0.5,0.2,0.9,0.5,1.3,0.9c0.3,0.4,0.5,0.9,0.5,1.5
		c0,1-0.4,1.8-1.1,2.4c-0.8,0.6-1.9,0.9-3.4,0.9c-0.5,0-0.9,0-1.4-0.1s-0.9-0.2-1.3-0.3c-0.4-0.1-0.7-0.3-1.1-0.5
		c-0.3-0.2-0.6-0.4-0.8-0.5l0.8-1.4c0.2,0.2,0.4,0.3,0.7,0.5c0.3,0.2,0.6,0.3,0.9,0.5c0.3,0.1,0.7,0.3,1.1,0.3
		c0.4,0.1,0.8,0.1,1.2,0.1c0.4,0,0.7,0,1.1-0.1s0.6-0.2,0.9-0.3c0.3-0.1,0.4-0.3,0.6-0.5C718.7,265.8,718.8,265.6,718.8,265.3z"/>
	<path d="M727.1,266.9c0-0.4,0.1-0.8,0.4-1s0.6-0.4,1-0.4c0.4,0,0.8,0.1,1.1,0.4s0.4,0.6,0.4,1c0,0.4-0.1,0.7-0.4,1
		s-0.6,0.4-1.1,0.4c-0.4,0-0.8-0.1-1-0.4S727.1,267.3,727.1,266.9z"/>
	<path d="M742.1,253.4h3.4v11.1c0,0.1,0,0.3,0,0.5s0,0.4,0.1,0.6c0,0.2,0,0.4,0.1,0.6c0,0.2,0.1,0.4,0.1,0.5h1.4v1.4h-2.8l-0.2-1.6
		h-0.1c-0.3,0.5-0.8,1-1.4,1.3c-0.6,0.4-1.3,0.5-2.1,0.5c-1.6,0-2.7-0.4-3.5-1.3c-0.7-0.9-1.1-2.3-1.1-4.1c0-0.9,0.1-1.7,0.4-2.3
		s0.6-1.2,1.1-1.7c0.5-0.5,1-0.8,1.7-1c0.7-0.2,1.4-0.4,2.2-0.4c0.3,0,0.6,0,0.8,0c0.2,0,0.4,0,0.6,0.1c0.2,0,0.4,0.1,0.6,0.1
		c0.2,0,0.4,0.1,0.6,0.2v-3h-1.8V253.4z M740.8,266.9c0.9,0,1.5-0.2,2-0.7s0.8-1.1,1-2v-4.9c-0.3-0.2-0.7-0.4-1-0.5
		c-0.4-0.1-0.9-0.1-1.5-0.1c-1.1,0-2,0.3-2.6,1c-0.6,0.7-1,1.7-1,3.1c0,0.6,0.1,1.1,0.2,1.6c0.1,0.5,0.3,0.9,0.5,1.3
		c0.2,0.4,0.6,0.7,1,0.9C739.8,266.8,740.3,266.9,740.8,266.9z"/>
	<path d="M749.7,258.4c0.6-0.3,1.3-0.6,2-0.8c0.8-0.2,1.5-0.2,2.2-0.2c0.7,0,1.3,0.1,1.8,0.3c0.5,0.2,0.8,0.5,1.1,0.9
		s0.4,0.8,0.5,1.2c0.1,0.5,0.1,0.9,0.1,1.4c0,0.5,0,1.1,0,1.7c0,0.6,0,1.2-0.1,1.8c0,0.7,0,1.4,0.1,2h1.4v1.4h-2.8l-0.2-1.6h-0.1
		c-0.1,0.1-0.2,0.3-0.4,0.5c-0.2,0.2-0.4,0.4-0.7,0.6c-0.3,0.2-0.6,0.4-1,0.5c-0.4,0.1-0.9,0.2-1.4,0.2c-1,0-1.9-0.3-2.5-0.8
		c-0.6-0.5-0.9-1.3-0.9-2.2c0-0.7,0.2-1.3,0.5-1.8c0.3-0.5,0.8-0.8,1.4-1.1s1.3-0.4,2.1-0.4c0.8,0,1.8,0,2.8,0.2
		c0.1-0.6,0.1-1.2,0-1.6s-0.2-0.8-0.3-1c-0.2-0.3-0.4-0.4-0.7-0.5c-0.3-0.1-0.7-0.2-1.2-0.2c-0.6,0-1.2,0.1-1.8,0.3
		c-0.6,0.2-1.1,0.4-1.5,0.5L749.7,258.4z M752.8,266.9c0.4,0,0.8-0.1,1.1-0.2c0.3-0.1,0.6-0.3,0.9-0.5c0.3-0.2,0.5-0.4,0.6-0.6
		c0.2-0.2,0.3-0.5,0.4-0.7v-1.5c-0.7-0.1-1.4-0.2-2-0.2s-1.1,0.1-1.6,0.2c-0.4,0.1-0.8,0.3-1,0.6c-0.3,0.3-0.4,0.6-0.4,1.1
		c0,0.5,0.2,0.9,0.5,1.2C751.5,266.7,752,266.9,752.8,266.9z"/>
	<path d="M760.6,257.6h2.5v-2.1l1.7-0.5v2.5h5.6v1.4h-5.6v5c0,1,0.2,1.8,0.7,2.3c0.5,0.5,1.2,0.7,2.1,0.7c0.6,0,1.2-0.1,1.6-0.4
		c0.5-0.2,0.9-0.5,1.3-0.8l0.5,1.2c-0.5,0.4-1.1,0.7-1.8,0.9c-0.7,0.2-1.4,0.4-2.1,0.4c-0.6,0-1.1-0.1-1.6-0.2
		c-0.5-0.2-0.9-0.4-1.3-0.7c-0.4-0.3-0.7-0.8-0.9-1.3c-0.2-0.5-0.3-1.2-0.3-1.9V259h-2.5V257.6z"/>
	<path d="M774.9,258.4c0.6-0.3,1.3-0.6,2-0.8c0.8-0.2,1.5-0.2,2.2-0.2c0.7,0,1.3,0.1,1.8,0.3c0.5,0.2,0.8,0.5,1.1,0.9
		c0.3,0.4,0.4,0.8,0.5,1.2c0.1,0.5,0.1,0.9,0.1,1.4c0,0.5,0,1.1,0,1.7c0,0.6,0,1.2-0.1,1.8c0,0.7,0,1.4,0.1,2h1.4v1.4h-2.8l-0.2-1.6
		H781c-0.1,0.1-0.2,0.3-0.4,0.5c-0.2,0.2-0.4,0.4-0.7,0.6c-0.3,0.2-0.6,0.4-1,0.5s-0.9,0.2-1.4,0.2c-1,0-1.9-0.3-2.5-0.8
		s-0.9-1.3-0.9-2.2c0-0.7,0.2-1.3,0.5-1.8c0.3-0.5,0.8-0.8,1.4-1.1c0.6-0.3,1.3-0.4,2.1-0.4c0.8,0,1.8,0,2.8,0.2
		c0.1-0.6,0.1-1.2,0-1.6s-0.2-0.8-0.3-1c-0.2-0.3-0.4-0.4-0.7-0.5s-0.7-0.2-1.2-0.2c-0.6,0-1.2,0.1-1.8,0.3
		c-0.6,0.2-1.1,0.4-1.5,0.5L774.9,258.4z M778,266.9c0.4,0,0.8-0.1,1.1-0.2c0.3-0.1,0.6-0.3,0.9-0.5c0.3-0.2,0.5-0.4,0.6-0.6
		c0.2-0.2,0.3-0.5,0.4-0.7v-1.5c-0.7-0.1-1.4-0.2-2-0.2c-0.6,0-1.1,0.1-1.6,0.2c-0.4,0.1-0.8,0.3-1.1,0.6c-0.3,0.3-0.4,0.6-0.4,1.1
		c0,0.5,0.2,0.9,0.5,1.2C776.7,266.7,777.2,266.9,778,266.9z"/>
	<path d="M790.1,266.9c0-0.4,0.1-0.8,0.4-1s0.6-0.4,1-0.4c0.4,0,0.8,0.1,1,0.4s0.4,0.6,0.4,1c0,0.4-0.1,0.7-0.4,1s-0.6,0.4-1,0.4
		c-0.4,0-0.8-0.1-1-0.4S790.1,267.3,790.1,266.9z"/>
	<path d="M799.8,261.3c0-0.1,0-0.3,0-0.5s0-0.4,0-0.6c0-0.2,0-0.4-0.1-0.6s0-0.4-0.1-0.5h-1.4v-1.4h2.8l0.2,1.5h0.1
		c0.4-0.5,0.9-0.9,1.4-1.2c0.6-0.3,1.3-0.5,2.1-0.5c1.5,0,2.6,0.4,3.4,1.2c0.8,0.8,1.1,2.2,1.1,4.1c0,0.9-0.1,1.7-0.4,2.4
		c-0.3,0.7-0.6,1.3-1.1,1.8c-0.5,0.5-1.1,0.9-1.7,1.1s-1.4,0.4-2.2,0.4c-0.3,0-0.6,0-0.8,0s-0.4,0-0.6-0.1c-0.2,0-0.4-0.1-0.6-0.1
		s-0.4-0.1-0.6-0.2v4.4h-1.6V261.3z M804.6,258.9c-0.4,0-0.8,0.1-1.2,0.2c-0.4,0.2-0.7,0.4-1,0.6s-0.5,0.5-0.7,0.8s-0.3,0.6-0.3,0.9
		v4.8c0.3,0.2,0.7,0.4,1,0.5c0.4,0.1,0.9,0.2,1.5,0.2c1.1,0,2-0.4,2.7-1.1c0.7-0.7,1-1.8,1-3.2c0-1.2-0.2-2.1-0.7-2.8
		C806.5,259.2,805.7,258.9,804.6,258.9z"/>
	<path d="M812.3,261.3c0-0.1,0-0.3,0-0.5s0-0.4,0-0.6c0-0.2,0-0.4-0.1-0.6s0-0.4-0.1-0.5h-1.4v-1.4h2.8l0.2,1.7h0.1
		c0.1-0.2,0.3-0.5,0.6-0.7c0.2-0.2,0.5-0.4,0.8-0.6c0.3-0.2,0.7-0.3,1-0.5c0.4-0.1,0.8-0.2,1.2-0.2c0.6,0,1.2,0.1,1.7,0.2
		c0.5,0.1,0.9,0.4,1.2,0.7s0.6,0.8,0.7,1.4c0.2,0.6,0.3,1.4,0.3,2.3v6h-1.7v-5.7c0-1.2-0.2-2-0.6-2.6c-0.4-0.6-1.1-0.9-2.1-0.9
		c-0.4,0-0.7,0.1-1.1,0.2c-0.3,0.1-0.7,0.3-0.9,0.6c-0.3,0.2-0.5,0.5-0.7,0.8c-0.2,0.3-0.4,0.6-0.5,1v6.6h-1.6V261.3z"/>
	<path d="M834,268.6c0,0.7-0.1,1.2-0.4,1.7s-0.6,0.9-1,1.2c-0.4,0.3-1,0.6-1.5,0.7c-0.6,0.2-1.2,0.2-1.9,0.2c-0.8,0-1.5-0.1-2.2-0.3
		s-1.1-0.4-1.6-0.7l0.8-1.5c0.1,0.1,0.3,0.2,0.5,0.3c0.2,0.1,0.4,0.2,0.7,0.3c0.3,0.1,0.5,0.2,0.8,0.2c0.3,0.1,0.6,0.1,0.9,0.1
		c0.6,0,1.1-0.1,1.5-0.2c0.4-0.1,0.7-0.3,1-0.5c0.3-0.2,0.4-0.5,0.5-0.9c0.1-0.4,0.2-0.8,0.2-1.4v-1.2h-0.1
		c-0.3,0.5-0.7,0.8-1.2,1.1c-0.5,0.3-1.2,0.4-1.9,0.4c-1.6,0-2.8-0.4-3.5-1.3c-0.7-0.9-1.1-2.3-1.1-4.1c0-1.8,0.5-3.1,1.4-4.1
		s2.4-1.4,4.2-1.4c0.9,0,1.6,0.1,2.2,0.2c0.6,0.1,1.2,0.3,1.7,0.5V268.6z M829.3,266.9c0.8,0,1.5-0.2,2-0.7c0.5-0.4,0.8-1.1,1-2v-5
		c-0.6-0.3-1.5-0.4-2.6-0.4c-1.1,0-2,0.3-2.6,1s-1,1.7-1,3c0,0.6,0.1,1.2,0.2,1.6c0.1,0.5,0.3,0.9,0.5,1.3c0.2,0.4,0.6,0.6,1,0.9
		C828.2,266.8,828.7,266.9,829.3,266.9z"/>
	<path d="M840.5,266.9c0-0.4,0.1-0.8,0.4-1s0.6-0.4,1-0.4c0.4,0,0.8,0.1,1.1,0.4s0.4,0.6,0.4,1c0,0.4-0.1,0.7-0.4,1
		s-0.6,0.4-1.1,0.4c-0.4,0-0.8-0.1-1-0.4S840.5,267.3,840.5,266.9z"/>
	<path d="M857.4,259.2c-0.3-0.1-0.7-0.2-1-0.3c-0.4-0.1-0.7-0.1-1.1-0.1c-1.4,0-2.4,0.3-3.1,1c-0.7,0.6-1,1.7-1,3.1
		c0,0.6,0.1,1.2,0.3,1.7c0.2,0.5,0.5,0.9,0.8,1.2s0.8,0.6,1.3,0.8s1.1,0.3,1.7,0.3c0.7,0,1.3-0.1,1.9-0.3c0.6-0.2,1.1-0.5,1.6-0.9
		l0.7,1.2c-0.2,0.2-0.4,0.3-0.7,0.5c-0.3,0.2-0.6,0.4-1,0.5c-0.4,0.2-0.8,0.3-1.3,0.4c-0.5,0.1-1,0.1-1.5,0.1
		c-0.9,0-1.7-0.1-2.4-0.4c-0.7-0.3-1.3-0.6-1.7-1.1c-0.5-0.5-0.8-1.1-1.1-1.7c-0.2-0.7-0.4-1.4-0.4-2.3c0-0.9,0.1-1.7,0.4-2.4
		c0.2-0.7,0.6-1.3,1.1-1.7c0.5-0.5,1-0.8,1.7-1.1c0.7-0.2,1.4-0.4,2.2-0.4c1,0,1.9,0.1,2.5,0.3c0.7,0.2,1.2,0.4,1.6,0.6l0,0.1v2.9
		h-1.5V259.2z"/>
	<path d="M870,265.3c0-0.4-0.2-0.8-0.5-1c-0.3-0.2-0.8-0.4-1.3-0.6s-1.1-0.3-1.7-0.4c-0.6-0.1-1.2-0.3-1.7-0.5s-0.9-0.5-1.3-0.9
		c-0.3-0.4-0.5-0.9-0.5-1.5c0-0.5,0.1-1,0.3-1.4c0.2-0.4,0.5-0.7,0.9-0.9s0.8-0.4,1.3-0.5c0.5-0.1,1-0.2,1.6-0.2
		c1,0,1.8,0.1,2.5,0.4c0.7,0.2,1.3,0.5,1.7,0.8l-0.7,1.3c-0.5-0.3-1-0.5-1.5-0.7s-1.2-0.3-2-0.3c-0.3,0-0.6,0-0.9,0.1
		s-0.6,0.2-0.8,0.3s-0.4,0.3-0.6,0.5c-0.1,0.2-0.2,0.5-0.2,0.7c0,0.4,0.2,0.6,0.5,0.8c0.3,0.2,0.8,0.4,1.3,0.5
		c0.5,0.1,1.1,0.3,1.7,0.4c0.6,0.1,1.2,0.3,1.7,0.5c0.5,0.2,0.9,0.5,1.3,0.9s0.5,0.9,0.5,1.5c0,1-0.4,1.8-1.1,2.4
		c-0.8,0.6-1.9,0.9-3.4,0.9c-0.5,0-0.9,0-1.4-0.1c-0.4-0.1-0.9-0.2-1.3-0.3c-0.4-0.1-0.7-0.3-1.1-0.5c-0.3-0.2-0.6-0.4-0.8-0.5
		l0.8-1.4c0.2,0.2,0.4,0.3,0.7,0.5c0.3,0.2,0.6,0.3,0.9,0.5c0.3,0.1,0.7,0.3,1.1,0.3c0.4,0.1,0.8,0.1,1.2,0.1c0.4,0,0.7,0,1.1-0.1
		s0.6-0.2,0.9-0.3c0.3-0.1,0.5-0.3,0.6-0.5C869.9,265.8,870,265.6,870,265.3z"/>
	<path d="M882.6,265.3c0-0.4-0.2-0.8-0.5-1c-0.3-0.2-0.8-0.4-1.3-0.6s-1.1-0.3-1.7-0.4c-0.6-0.1-1.2-0.3-1.7-0.5s-0.9-0.5-1.3-0.9
		c-0.3-0.4-0.5-0.9-0.5-1.5c0-0.5,0.1-1,0.3-1.4c0.2-0.4,0.5-0.7,0.9-0.9s0.8-0.4,1.3-0.5c0.5-0.1,1-0.2,1.6-0.2
		c1,0,1.8,0.1,2.5,0.4c0.7,0.2,1.3,0.5,1.7,0.8l-0.7,1.3c-0.5-0.3-1-0.5-1.5-0.7s-1.2-0.3-2-0.3c-0.3,0-0.6,0-0.9,0.1
		s-0.6,0.2-0.8,0.3s-0.4,0.3-0.6,0.5c-0.1,0.2-0.2,0.5-0.2,0.7c0,0.4,0.2,0.6,0.5,0.8c0.3,0.2,0.8,0.4,1.3,0.5
		c0.5,0.1,1.1,0.3,1.7,0.4c0.6,0.1,1.2,0.3,1.7,0.5c0.5,0.2,0.9,0.5,1.3,0.9s0.5,0.9,0.5,1.5c0,1-0.4,1.8-1.1,2.4
		c-0.8,0.6-1.9,0.9-3.4,0.9c-0.5,0-0.9,0-1.4-0.1c-0.4-0.1-0.9-0.2-1.3-0.3c-0.4-0.1-0.7-0.3-1.1-0.5c-0.3-0.2-0.6-0.4-0.8-0.5
		l0.8-1.4c0.2,0.2,0.4,0.3,0.7,0.5c0.3,0.2,0.6,0.3,0.9,0.5c0.3,0.1,0.7,0.3,1.1,0.3c0.4,0.1,0.8,0.1,1.2,0.1c0.4,0,0.7,0,1.1-0.1
		s0.6-0.2,0.9-0.3c0.3-0.1,0.5-0.3,0.6-0.5C882.5,265.8,882.6,265.6,882.6,265.3z"/>
	<path d="M661.4,310.1v-1.4h3.7V301h-3.7v-1.4h5.3v9.1h3.6v1.4H661.4z M664.5,296.6c0-0.4,0.1-0.7,0.4-1s0.6-0.4,1-0.4
		c0.4,0,0.7,0.1,1,0.4s0.4,0.6,0.4,1c0,0.4-0.1,0.7-0.4,0.9s-0.6,0.4-1,0.4c-0.4,0-0.7-0.1-1-0.4S664.5,297,664.5,296.6z"/>
	<path d="M681,301.2c-0.3-0.1-0.7-0.2-1-0.3c-0.4-0.1-0.7-0.1-1.1-0.1c-1.4,0-2.4,0.3-3.1,1c-0.7,0.6-1,1.7-1,3.1
		c0,0.6,0.1,1.2,0.3,1.7c0.2,0.5,0.5,0.9,0.8,1.2c0.4,0.3,0.8,0.6,1.3,0.8c0.5,0.2,1.1,0.3,1.7,0.3c0.7,0,1.3-0.1,1.9-0.3
		s1.1-0.5,1.6-0.9l0.7,1.2c-0.2,0.2-0.4,0.3-0.7,0.5c-0.3,0.2-0.6,0.4-1,0.5c-0.4,0.2-0.8,0.3-1.3,0.4c-0.5,0.1-1,0.1-1.5,0.1
		c-0.9,0-1.7-0.1-2.4-0.4c-0.7-0.3-1.3-0.6-1.7-1.1c-0.5-0.5-0.8-1.1-1-1.7c-0.2-0.7-0.4-1.4-0.4-2.3c0-0.9,0.1-1.7,0.4-2.4
		c0.2-0.7,0.6-1.3,1.1-1.7c0.5-0.5,1-0.8,1.7-1.1s1.4-0.4,2.2-0.4c1,0,1.9,0.1,2.5,0.3c0.7,0.2,1.2,0.4,1.6,0.6l0,0.1v2.9H681V301.2
		z"/>
	<path d="M685.6,304.8c0-1.7,0.4-3,1.3-4c0.9-1,2.1-1.5,3.8-1.5c0.9,0,1.6,0.1,2.3,0.4s1.2,0.7,1.6,1.2c0.4,0.5,0.7,1.1,0.9,1.7
		c0.2,0.7,0.3,1.4,0.3,2.2c0,0.8-0.1,1.6-0.3,2.3c-0.2,0.7-0.6,1.3-1,1.7s-1,0.8-1.6,1.1c-0.6,0.3-1.4,0.4-2.2,0.4
		c-0.9,0-1.6-0.1-2.3-0.4c-0.6-0.3-1.2-0.7-1.6-1.2c-0.4-0.5-0.7-1.1-0.9-1.7C685.7,306.3,685.6,305.6,685.6,304.8z M687.3,304.8
		c0,0.5,0.1,1,0.2,1.5c0.1,0.5,0.3,0.9,0.6,1.3c0.3,0.4,0.6,0.7,1,0.9c0.4,0.2,0.9,0.4,1.6,0.4c1.1,0,2-0.3,2.5-1
		c0.6-0.7,0.8-1.7,0.8-3.1c0-0.5-0.1-1-0.2-1.5c-0.1-0.5-0.3-0.9-0.6-1.3c-0.3-0.4-0.6-0.7-1-0.9c-0.4-0.2-0.9-0.4-1.6-0.4
		c-1.1,0-2,0.3-2.5,1S687.3,303.5,687.3,304.8z"/>
	<path d="M698.9,303.3c0-0.1,0-0.3,0-0.5s0-0.4,0-0.6c0-0.2,0-0.4-0.1-0.6s0-0.4-0.1-0.5h-1.4v-1.4h2.8l0.2,1.7h0.1
		c0.1-0.2,0.3-0.5,0.6-0.7c0.2-0.2,0.5-0.4,0.8-0.6c0.3-0.2,0.7-0.3,1-0.5c0.4-0.1,0.8-0.2,1.2-0.2c0.6,0,1.2,0.1,1.7,0.2
		c0.5,0.1,0.9,0.4,1.2,0.7s0.6,0.8,0.7,1.4c0.2,0.6,0.3,1.4,0.3,2.3v6h-1.7v-5.7c0-1.2-0.2-2-0.6-2.6c-0.4-0.6-1.1-0.9-2.1-0.9
		c-0.4,0-0.7,0.1-1.1,0.2c-0.3,0.1-0.7,0.3-0.9,0.6c-0.3,0.2-0.5,0.5-0.7,0.8c-0.2,0.3-0.4,0.6-0.5,1v6.6h-1.6V303.3z"/>
	<path d="M718.8,307.3c0-0.4-0.2-0.8-0.5-1c-0.3-0.2-0.8-0.4-1.3-0.6c-0.5-0.1-1.1-0.3-1.7-0.4s-1.2-0.3-1.7-0.5
		c-0.5-0.2-0.9-0.5-1.3-0.9c-0.3-0.4-0.5-0.9-0.5-1.5c0-0.5,0.1-1,0.3-1.4c0.2-0.4,0.5-0.7,0.9-0.9c0.4-0.2,0.8-0.4,1.3-0.5
		c0.5-0.1,1-0.2,1.6-0.2c1,0,1.8,0.1,2.5,0.4s1.3,0.5,1.7,0.8l-0.7,1.3c-0.5-0.3-1-0.5-1.5-0.7c-0.5-0.2-1.2-0.3-2-0.3
		c-0.3,0-0.6,0-0.9,0.1c-0.3,0.1-0.6,0.2-0.8,0.3s-0.4,0.3-0.6,0.5c-0.1,0.2-0.2,0.5-0.2,0.7c0,0.4,0.2,0.6,0.5,0.8
		c0.3,0.2,0.8,0.4,1.3,0.5c0.5,0.1,1.1,0.3,1.7,0.4c0.6,0.1,1.2,0.3,1.7,0.5c0.5,0.2,0.9,0.5,1.3,0.9c0.3,0.4,0.5,0.9,0.5,1.5
		c0,1-0.4,1.8-1.1,2.4c-0.8,0.6-1.9,0.9-3.4,0.9c-0.5,0-0.9,0-1.4-0.1s-0.9-0.2-1.3-0.3c-0.4-0.1-0.7-0.3-1.1-0.5
		c-0.3-0.2-0.6-0.4-0.8-0.5l0.8-1.4c0.2,0.2,0.4,0.3,0.7,0.5c0.3,0.2,0.6,0.3,0.9,0.5c0.3,0.1,0.7,0.3,1.1,0.3
		c0.4,0.1,0.8,0.1,1.2,0.1c0.4,0,0.7,0,1.1-0.1s0.6-0.2,0.9-0.3c0.3-0.1,0.4-0.3,0.6-0.5C718.7,307.8,718.8,307.6,718.8,307.3z"/>
	<path d="M727.1,308.9c0-0.4,0.1-0.8,0.4-1s0.6-0.4,1-0.4c0.4,0,0.8,0.1,1.1,0.4s0.4,0.6,0.4,1c0,0.4-0.1,0.7-0.4,1
		s-0.6,0.4-1.1,0.4c-0.4,0-0.8-0.1-1-0.4S727.1,309.3,727.1,308.9z"/>
	<path d="M736.6,310.1v-1.4h2.5V301h-2.5v-1.4h2.5V299c0-1.3,0.3-2.3,1-2.9c0.7-0.6,1.7-0.9,2.9-0.9c0.5,0,0.9,0,1.2,0.1
		c0.4,0.1,0.8,0.2,1.2,0.3l-0.4,1.4c-0.4-0.2-0.7-0.3-1-0.3c-0.3,0-0.6-0.1-0.9-0.1c-0.9,0-1.5,0.2-1.9,0.7
		c-0.3,0.5-0.5,1.2-0.5,2.2h4.3v1.4h-4.3v7.7h4.3v1.4H736.6z"/>
	<path d="M749.7,300.4c0.6-0.3,1.3-0.6,2-0.8c0.8-0.2,1.5-0.2,2.2-0.2c0.7,0,1.3,0.1,1.8,0.3c0.5,0.2,0.8,0.5,1.1,0.9
		s0.4,0.8,0.5,1.2c0.1,0.5,0.1,0.9,0.1,1.4c0,0.5,0,1.1,0,1.7c0,0.6,0,1.2-0.1,1.8c0,0.7,0,1.4,0.1,2h1.4v1.4h-2.8l-0.2-1.6h-0.1
		c-0.1,0.1-0.2,0.3-0.4,0.5c-0.2,0.2-0.4,0.4-0.7,0.6c-0.3,0.2-0.6,0.4-1,0.5c-0.4,0.1-0.9,0.2-1.4,0.2c-1,0-1.9-0.3-2.5-0.8
		c-0.6-0.5-0.9-1.3-0.9-2.2c0-0.7,0.2-1.3,0.5-1.8c0.3-0.5,0.8-0.8,1.4-1.1s1.3-0.4,2.1-0.4c0.8,0,1.8,0,2.8,0.2
		c0.1-0.6,0.1-1.2,0-1.6s-0.2-0.8-0.3-1c-0.2-0.3-0.4-0.4-0.7-0.5c-0.3-0.1-0.7-0.2-1.2-0.2c-0.6,0-1.2,0.1-1.8,0.3
		c-0.6,0.2-1.1,0.4-1.5,0.5L749.7,300.4z M752.8,308.9c0.4,0,0.8-0.1,1.1-0.2c0.3-0.1,0.6-0.3,0.9-0.5c0.3-0.2,0.5-0.4,0.6-0.6
		c0.2-0.2,0.3-0.5,0.4-0.7v-1.5c-0.7-0.1-1.4-0.2-2-0.2s-1.1,0.1-1.6,0.2c-0.4,0.1-0.8,0.3-1,0.6c-0.3,0.3-0.4,0.6-0.4,1.1
		c0,0.5,0.2,0.9,0.5,1.2C751.5,308.7,752,308.9,752.8,308.9z"/>
	<path d="M762.5,295.4h3.5v11.2c0,0.9,0.1,1.5,0.4,1.8c0.3,0.4,0.7,0.5,1.3,0.5c0.4,0,0.8-0.1,1.1-0.2c0.4-0.1,0.8-0.4,1.2-0.7
		l0.8,1.2c-0.2,0.2-0.5,0.4-0.7,0.5c-0.3,0.2-0.5,0.3-0.8,0.4c-0.3,0.1-0.6,0.2-0.8,0.2c-0.3,0.1-0.5,0.1-0.8,0.1
		c-0.5,0-1-0.1-1.4-0.2c-0.4-0.1-0.7-0.3-1-0.6s-0.5-0.7-0.6-1.2s-0.2-1.1-0.2-1.8v-9.8h-1.8V295.4z"/>
	<path d="M775.1,295.4h3.5v11.2c0,0.9,0.1,1.5,0.4,1.8c0.3,0.4,0.7,0.5,1.3,0.5c0.4,0,0.8-0.1,1.1-0.2c0.4-0.1,0.8-0.4,1.2-0.7
		l0.8,1.2c-0.2,0.2-0.5,0.4-0.7,0.5c-0.3,0.2-0.5,0.3-0.8,0.4c-0.3,0.1-0.6,0.2-0.8,0.2c-0.3,0.1-0.5,0.1-0.8,0.1
		c-0.5,0-1-0.1-1.4-0.2c-0.4-0.1-0.7-0.3-1-0.6c-0.3-0.3-0.5-0.7-0.6-1.2s-0.2-1.1-0.2-1.8v-9.8h-1.8V295.4z"/>
	<path d="M785.2,295.4h3.4v5.4h0.1c0.4-0.5,0.8-0.8,1.4-1.1c0.6-0.3,1.2-0.4,1.9-0.4c3.1,0,4.6,1.8,4.6,5.3c0,1.8-0.5,3.2-1.5,4.1
		c-1,1-2.4,1.4-4.2,1.4c-0.9,0-1.7-0.1-2.4-0.3s-1.2-0.4-1.5-0.6v-12.6h-1.7V295.4z M791.8,300.7c-0.8,0-1.5,0.2-2,0.7
		s-0.9,1.1-1.1,2v4.8c0.3,0.2,0.7,0.3,1.2,0.4c0.4,0.1,0.9,0.1,1.4,0.1c0.6,0,1.1-0.1,1.5-0.2c0.5-0.2,0.8-0.4,1.2-0.8
		s0.6-0.8,0.7-1.3c0.2-0.5,0.3-1.2,0.3-1.9c0-0.5-0.1-1-0.2-1.5c-0.1-0.5-0.3-0.9-0.5-1.2c-0.2-0.4-0.6-0.6-1-0.8
		C792.8,300.8,792.3,300.7,791.8,300.7z"/>
	<path d="M800.1,300.4c0.6-0.3,1.3-0.6,2-0.8c0.8-0.2,1.5-0.2,2.2-0.2c0.7,0,1.3,0.1,1.8,0.3c0.5,0.2,0.8,0.5,1.1,0.9
		c0.3,0.4,0.4,0.8,0.5,1.2c0.1,0.5,0.1,0.9,0.1,1.4c0,0.5,0,1.1,0,1.7c0,0.6,0,1.2-0.1,1.8c0,0.7,0,1.4,0.1,2h1.4v1.4h-2.8l-0.2-1.6
		h-0.1c-0.1,0.1-0.2,0.3-0.4,0.5c-0.2,0.2-0.4,0.4-0.7,0.6c-0.3,0.2-0.6,0.4-1,0.5s-0.9,0.2-1.4,0.2c-1,0-1.9-0.3-2.5-0.8
		s-0.9-1.3-0.9-2.2c0-0.7,0.2-1.3,0.5-1.8c0.3-0.5,0.8-0.8,1.4-1.1c0.6-0.3,1.3-0.4,2.1-0.4c0.8,0,1.8,0,2.8,0.2
		c0.1-0.6,0.1-1.2,0-1.6s-0.2-0.8-0.3-1c-0.2-0.3-0.4-0.4-0.7-0.5s-0.7-0.2-1.2-0.2c-0.6,0-1.2,0.1-1.8,0.3
		c-0.6,0.2-1.1,0.4-1.5,0.5L800.1,300.4z M803.2,308.9c0.4,0,0.8-0.1,1.1-0.2c0.3-0.1,0.6-0.3,0.9-0.5c0.3-0.2,0.5-0.4,0.6-0.6
		c0.2-0.2,0.3-0.5,0.4-0.7v-1.5c-0.7-0.1-1.4-0.2-2-0.2c-0.6,0-1.1,0.1-1.6,0.2c-0.4,0.1-0.8,0.3-1.1,0.6c-0.3,0.3-0.4,0.6-0.4,1.1
		c0,0.5,0.2,0.9,0.5,1.2C801.9,308.7,802.4,308.9,803.2,308.9z"/>
	<path d="M819.6,301.2c-0.3-0.1-0.7-0.2-1-0.3c-0.4-0.1-0.7-0.1-1.1-0.1c-1.4,0-2.4,0.3-3.1,1c-0.7,0.6-1,1.7-1,3.1
		c0,0.6,0.1,1.2,0.3,1.7c0.2,0.5,0.5,0.9,0.8,1.2c0.4,0.3,0.8,0.6,1.3,0.8c0.5,0.2,1.1,0.3,1.7,0.3c0.7,0,1.3-0.1,1.9-0.3
		c0.6-0.2,1.1-0.5,1.6-0.9l0.7,1.2c-0.2,0.2-0.4,0.3-0.7,0.5s-0.6,0.4-1,0.5c-0.4,0.2-0.8,0.3-1.3,0.4c-0.5,0.1-1,0.1-1.5,0.1
		c-0.9,0-1.7-0.1-2.4-0.4c-0.7-0.3-1.3-0.6-1.7-1.1s-0.8-1.1-1-1.7c-0.2-0.7-0.4-1.4-0.4-2.3c0-0.9,0.1-1.7,0.4-2.4
		c0.2-0.7,0.6-1.3,1.1-1.7c0.5-0.5,1-0.8,1.7-1.1c0.7-0.2,1.4-0.4,2.2-0.4c1,0,1.9,0.1,2.5,0.3c0.7,0.2,1.2,0.4,1.6,0.6l0,0.1v2.9
		h-1.5V301.2z"/>
	<path d="M823.5,295.4h3.4v8.7h1.2l4.1-4.5h2l-4.6,5l3.8,4.1h1.4v1.4h-2.2l-4.5-4.7h-1.2v4.7h-1.6v-13.3h-1.8V295.4z"/>
	<path d="M840.5,308.9c0-0.4,0.1-0.8,0.4-1s0.6-0.4,1-0.4c0.4,0,0.8,0.1,1.1,0.4s0.4,0.6,0.4,1c0,0.4-0.1,0.7-0.4,1
		s-0.6,0.4-1.1,0.4c-0.4,0-0.8-0.1-1-0.4S840.5,309.3,840.5,308.9z"/>
	<path d="M857.4,301.2c-0.3-0.1-0.7-0.2-1-0.3c-0.4-0.1-0.7-0.1-1.1-0.1c-1.4,0-2.4,0.3-3.1,1c-0.7,0.6-1,1.7-1,3.1
		c0,0.6,0.1,1.2,0.3,1.7c0.2,0.5,0.5,0.9,0.8,1.2s0.8,0.6,1.3,0.8s1.1,0.3,1.7,0.3c0.7,0,1.3-0.1,1.9-0.3c0.6-0.2,1.1-0.5,1.6-0.9
		l0.7,1.2c-0.2,0.2-0.4,0.3-0.7,0.5c-0.3,0.2-0.6,0.4-1,0.5c-0.4,0.2-0.8,0.3-1.3,0.4c-0.5,0.1-1,0.1-1.5,0.1
		c-0.9,0-1.7-0.1-2.4-0.4c-0.7-0.3-1.3-0.6-1.7-1.1c-0.5-0.5-0.8-1.1-1.1-1.7c-0.2-0.7-0.4-1.4-0.4-2.3c0-0.9,0.1-1.7,0.4-2.4
		c0.2-0.7,0.6-1.3,1.1-1.7c0.5-0.5,1-0.8,1.7-1.1c0.7-0.2,1.4-0.4,2.2-0.4c1,0,1.9,0.1,2.5,0.3c0.7,0.2,1.2,0.4,1.6,0.6l0,0.1v2.9
		h-1.5V301.2z"/>
	<path d="M870,307.3c0-0.4-0.2-0.8-0.5-1c-0.3-0.2-0.8-0.4-1.3-0.6s-1.1-0.3-1.7-0.4c-0.6-0.1-1.2-0.3-1.7-0.5s-0.9-0.5-1.3-0.9
		c-0.3-0.4-0.5-0.9-0.5-1.5c0-0.5,0.1-1,0.3-1.4c0.2-0.4,0.5-0.7,0.9-0.9s0.8-0.4,1.3-0.5c0.5-0.1,1-0.2,1.6-0.2
		c1,0,1.8,0.1,2.5,0.4c0.7,0.2,1.3,0.5,1.7,0.8l-0.7,1.3c-0.5-0.3-1-0.5-1.5-0.7s-1.2-0.3-2-0.3c-0.3,0-0.6,0-0.9,0.1
		s-0.6,0.2-0.8,0.3s-0.4,0.3-0.6,0.5c-0.1,0.2-0.2,0.5-0.2,0.7c0,0.4,0.2,0.6,0.5,0.8c0.3,0.2,0.8,0.4,1.3,0.5
		c0.5,0.1,1.1,0.3,1.7,0.4c0.6,0.1,1.2,0.3,1.7,0.5c0.5,0.2,0.9,0.5,1.3,0.9s0.5,0.9,0.5,1.5c0,1-0.4,1.8-1.1,2.4
		c-0.8,0.6-1.9,0.9-3.4,0.9c-0.5,0-0.9,0-1.4-0.1c-0.4-0.1-0.9-0.2-1.3-0.3c-0.4-0.1-0.7-0.3-1.1-0.5c-0.3-0.2-0.6-0.4-0.8-0.5
		l0.8-1.4c0.2,0.2,0.4,0.3,0.7,0.5c0.3,0.2,0.6,0.3,0.9,0.5c0.3,0.1,0.7,0.3,1.1,0.3c0.4,0.1,0.8,0.1,1.2,0.1c0.4,0,0.7,0,1.1-0.1
		s0.6-0.2,0.9-0.3c0.3-0.1,0.5-0.3,0.6-0.5C869.9,307.8,870,307.6,870,307.3z"/>
	<path d="M882.6,307.3c0-0.4-0.2-0.8-0.5-1c-0.3-0.2-0.8-0.4-1.3-0.6s-1.1-0.3-1.7-0.4c-0.6-0.1-1.2-0.3-1.7-0.5s-0.9-0.5-1.3-0.9
		c-0.3-0.4-0.5-0.9-0.5-1.5c0-0.5,0.1-1,0.3-1.4c0.2-0.4,0.5-0.7,0.9-0.9s0.8-0.4,1.3-0.5c0.5-0.1,1-0.2,1.6-0.2
		c1,0,1.8,0.1,2.5,0.4c0.7,0.2,1.3,0.5,1.7,0.8l-0.7,1.3c-0.5-0.3-1-0.5-1.5-0.7s-1.2-0.3-2-0.3c-0.3,0-0.6,0-0.9,0.1
		s-0.6,0.2-0.8,0.3s-0.4,0.3-0.6,0.5c-0.1,0.2-0.2,0.5-0.2,0.7c0,0.4,0.2,0.6,0.5,0.8c0.3,0.2,0.8,0.4,1.3,0.5
		c0.5,0.1,1.1,0.3,1.7,0.4c0.6,0.1,1.2,0.3,1.7,0.5c0.5,0.2,0.9,0.5,1.3,0.9s0.5,0.9,0.5,1.5c0,1-0.4,1.8-1.1,2.4
		c-0.8,0.6-1.9,0.9-3.4,0.9c-0.5,0-0.9,0-1.4-0.1c-0.4-0.1-0.9-0.2-1.3-0.3c-0.4-0.1-0.7-0.3-1.1-0.5c-0.3-0.2-0.6-0.4-0.8-0.5
		l0.8-1.4c0.2,0.2,0.4,0.3,0.7,0.5c0.3,0.2,0.6,0.3,0.9,0.5c0.3,0.1,0.7,0.3,1.1,0.3c0.4,0.1,0.8,0.1,1.2,0.1c0.4,0,0.7,0,1.1-0.1
		s0.6-0.2,0.9-0.3c0.3-0.1,0.5-0.3,0.6-0.5C882.5,307.8,882.6,307.6,882.6,307.3z"/>
	<path d="M670.2,352.6c0,0.7-0.1,1.2-0.4,1.7s-0.6,0.9-1,1.2s-1,0.6-1.5,0.7c-0.6,0.2-1.2,0.2-1.9,0.2c-0.8,0-1.5-0.1-2.2-0.3
		c-0.6-0.2-1.1-0.4-1.6-0.7l0.8-1.5c0.1,0.1,0.3,0.2,0.5,0.3c0.2,0.1,0.4,0.2,0.7,0.3c0.3,0.1,0.5,0.2,0.8,0.2
		c0.3,0.1,0.6,0.1,0.9,0.1c0.6,0,1.1-0.1,1.5-0.2c0.4-0.1,0.7-0.3,1-0.5c0.3-0.2,0.4-0.5,0.5-0.9c0.1-0.4,0.2-0.8,0.2-1.4v-1.2h-0.1
		c-0.3,0.5-0.7,0.8-1.2,1.1c-0.5,0.3-1.2,0.4-1.9,0.4c-1.6,0-2.8-0.4-3.5-1.3c-0.7-0.9-1.1-2.3-1.1-4.1c0-1.8,0.5-3.1,1.4-4.1
		c1-0.9,2.4-1.4,4.2-1.4c0.9,0,1.6,0.1,2.2,0.2c0.6,0.1,1.2,0.3,1.7,0.5V352.6z M665.5,350.9c0.8,0,1.5-0.2,2-0.7s0.8-1.1,1-2v-5
		c-0.6-0.3-1.5-0.4-2.6-0.4c-1.1,0-2,0.3-2.6,1c-0.6,0.7-1,1.7-1,3c0,0.6,0.1,1.2,0.2,1.6c0.1,0.5,0.3,0.9,0.5,1.3
		c0.2,0.4,0.6,0.6,1,0.9C664.4,350.8,664.9,350.9,665.5,350.9z"/>
	<path d="M673.2,352.1v-1.4h2.8V343h-2.8v-1.4h3.9l0.3,1.4h0.1c0.5-0.4,1-0.8,1.6-1.1c0.6-0.3,1.3-0.5,2.1-0.5
		c0.5,0,0.9,0.1,1.1,0.3c0.3,0.2,0.5,0.4,0.7,0.8c0.2,0.4,0.3,0.8,0.3,1.3c0.1,0.5,0.1,1.1,0.1,1.7l-1.5,0c0-0.9-0.1-1.5-0.3-2
		c-0.2-0.4-0.5-0.6-1-0.6c-0.4,0-0.8,0.1-1.2,0.2c-0.4,0.1-0.7,0.3-0.9,0.5c-0.3,0.2-0.5,0.4-0.7,0.5c-0.2,0.2-0.3,0.3-0.4,0.5v6.2
		h4v1.4H673.2z"/>
	<path d="M692,341.6h3v7.2c0,0.7,0,1.3,0.1,2h1.4v1.4h-2.8l-0.1-1.8h-0.1c-0.4,0.6-0.8,1.1-1.4,1.5c-0.6,0.4-1.3,0.6-2.2,0.6
		c-0.6,0-1.2-0.1-1.6-0.2c-0.5-0.1-0.8-0.4-1.1-0.8c-0.3-0.4-0.5-0.9-0.7-1.5c-0.1-0.6-0.2-1.4-0.2-2.3V343h-1.4v-1.4h3.1v5.7
		c0,0.6,0,1.1,0.1,1.5c0,0.5,0.1,0.8,0.3,1.2s0.4,0.6,0.7,0.7c0.3,0.2,0.7,0.2,1.2,0.2c0.7,0,1.4-0.2,1.9-0.7
		c0.5-0.5,0.9-1.1,1.2-1.8V343H692V341.6z"/>
	<path d="M698.9,345.3c0-0.1,0-0.3,0-0.5s0-0.4,0-0.6c0-0.2,0-0.4-0.1-0.6s0-0.4-0.1-0.5h-1.4v-1.4h2.8l0.2,1.7h0.1
		c0.1-0.2,0.3-0.5,0.6-0.7c0.2-0.2,0.5-0.4,0.8-0.6c0.3-0.2,0.7-0.3,1-0.5c0.4-0.1,0.8-0.2,1.2-0.2c0.6,0,1.2,0.1,1.7,0.2
		c0.5,0.1,0.9,0.4,1.2,0.7s0.6,0.8,0.7,1.4c0.2,0.6,0.3,1.4,0.3,2.3v6h-1.7v-5.7c0-1.2-0.2-2-0.6-2.6c-0.4-0.6-1.1-0.9-2.1-0.9
		c-0.4,0-0.7,0.1-1.1,0.2c-0.3,0.1-0.7,0.3-0.9,0.6c-0.3,0.2-0.5,0.5-0.7,0.8c-0.2,0.3-0.4,0.6-0.5,1v6.6h-1.6V345.3z"/>
	<path d="M710.2,341.6h2.5v-2.1l1.7-0.5v2.5h5.6v1.4h-5.6v5c0,1,0.2,1.8,0.7,2.3c0.5,0.5,1.2,0.7,2.1,0.7c0.6,0,1.2-0.1,1.6-0.4
		c0.5-0.2,0.9-0.5,1.3-0.8l0.5,1.2c-0.5,0.4-1.1,0.7-1.8,0.9c-0.7,0.2-1.4,0.4-2.1,0.4c-0.6,0-1.1-0.1-1.6-0.2
		c-0.5-0.2-0.9-0.4-1.3-0.7s-0.7-0.8-0.9-1.3s-0.3-1.2-0.3-1.9V343h-2.5V341.6z"/>
	<path d="M724.4,352.1v-1.4h3.7V343h-3.7v-1.4h5.3v9.1h3.6v1.4H724.4z M727.5,338.6c0-0.4,0.1-0.7,0.4-1s0.6-0.4,1-0.4
		c0.4,0,0.7,0.1,1,0.4c0.3,0.3,0.4,0.6,0.4,1c0,0.4-0.1,0.7-0.4,0.9c-0.3,0.3-0.6,0.4-1,0.4c-0.4,0-0.7-0.1-1-0.4
		S727.5,339,727.5,338.6z"/>
	<path d="M744,343.2c-0.3-0.1-0.7-0.2-1-0.3c-0.4-0.1-0.7-0.1-1.1-0.1c-1.4,0-2.4,0.3-3.1,1c-0.7,0.6-1,1.7-1,3.1
		c0,0.6,0.1,1.2,0.3,1.7c0.2,0.5,0.5,0.9,0.8,1.2s0.8,0.6,1.3,0.8s1.1,0.3,1.7,0.3c0.7,0,1.3-0.1,1.9-0.3c0.6-0.2,1.1-0.5,1.6-0.9
		l0.7,1.2c-0.2,0.2-0.4,0.3-0.7,0.5c-0.3,0.2-0.6,0.4-1,0.5c-0.4,0.2-0.8,0.3-1.3,0.4c-0.5,0.1-1,0.1-1.5,0.1
		c-0.9,0-1.7-0.1-2.4-0.4c-0.7-0.3-1.3-0.6-1.7-1.1c-0.5-0.5-0.8-1.1-1.1-1.7c-0.2-0.7-0.4-1.4-0.4-2.3c0-0.9,0.1-1.7,0.4-2.4
		c0.2-0.7,0.6-1.3,1.1-1.7c0.5-0.5,1-0.8,1.7-1.1c0.7-0.2,1.4-0.4,2.2-0.4c1,0,1.9,0.1,2.5,0.3c0.7,0.2,1.2,0.4,1.6,0.6l0,0.1v2.9
		H744V343.2z"/>
	<path d="M748.6,346.8c0-1.7,0.4-3,1.3-4c0.9-1,2.1-1.5,3.8-1.5c0.9,0,1.6,0.1,2.3,0.4c0.6,0.3,1.2,0.7,1.6,1.2
		c0.4,0.5,0.7,1.1,0.9,1.7s0.3,1.4,0.3,2.2c0,0.8-0.1,1.6-0.3,2.3c-0.2,0.7-0.6,1.3-1,1.7c-0.4,0.5-1,0.8-1.6,1.1
		c-0.6,0.3-1.4,0.4-2.2,0.4c-0.9,0-1.6-0.1-2.3-0.4c-0.6-0.3-1.2-0.7-1.6-1.2c-0.4-0.5-0.7-1.1-0.9-1.7S748.6,347.6,748.6,346.8z
		 M750.3,346.8c0,0.5,0.1,1,0.2,1.5s0.3,0.9,0.6,1.3c0.3,0.4,0.6,0.7,1,0.9c0.4,0.2,0.9,0.4,1.6,0.4c1.1,0,2-0.3,2.5-1
		c0.6-0.7,0.8-1.7,0.8-3.1c0-0.5-0.1-1-0.2-1.5c-0.1-0.5-0.3-0.9-0.6-1.3c-0.3-0.4-0.6-0.7-1-0.9c-0.4-0.2-0.9-0.4-1.6-0.4
		c-1.1,0-2,0.3-2.5,1C750.6,344.5,750.3,345.5,750.3,346.8z"/>
	<path d="M761.9,345.3c0-0.1,0-0.3,0-0.5c0-0.2,0-0.4,0-0.6c0-0.2,0-0.4-0.1-0.6s0-0.4-0.1-0.5h-1.4v-1.4h2.8l0.2,1.7h0.1
		c0.1-0.2,0.3-0.5,0.6-0.7c0.2-0.2,0.5-0.4,0.8-0.6c0.3-0.2,0.7-0.3,1-0.5c0.4-0.1,0.8-0.2,1.2-0.2c0.6,0,1.2,0.1,1.7,0.2
		c0.5,0.1,0.9,0.4,1.2,0.7s0.6,0.8,0.7,1.4c0.2,0.6,0.3,1.4,0.3,2.3v6h-1.7v-5.7c0-1.2-0.2-2-0.6-2.6c-0.4-0.6-1.1-0.9-2-0.9
		c-0.4,0-0.7,0.1-1.1,0.2c-0.3,0.1-0.7,0.3-0.9,0.6c-0.3,0.2-0.5,0.5-0.7,0.8s-0.4,0.6-0.5,1v6.6h-1.6V345.3z"/>
	<path d="M777.5,350.9c0-0.4,0.1-0.8,0.4-1s0.6-0.4,1-0.4c0.4,0,0.8,0.1,1,0.4s0.4,0.6,0.4,1c0,0.4-0.1,0.7-0.4,1s-0.6,0.4-1,0.4
		c-0.4,0-0.8-0.1-1-0.4S777.5,351.3,777.5,350.9z"/>
	<path d="M787.7,337.4h3.5v11.2c0,0.9,0.1,1.5,0.4,1.8c0.3,0.4,0.7,0.5,1.3,0.5c0.4,0,0.8-0.1,1.1-0.2c0.4-0.1,0.8-0.4,1.2-0.7
		l0.8,1.2c-0.2,0.2-0.5,0.4-0.7,0.5c-0.3,0.2-0.5,0.3-0.8,0.4c-0.3,0.1-0.6,0.2-0.8,0.2c-0.3,0.1-0.5,0.1-0.8,0.1
		c-0.5,0-1-0.1-1.4-0.2c-0.4-0.1-0.7-0.3-1-0.6c-0.3-0.3-0.5-0.7-0.6-1.2s-0.2-1.1-0.2-1.8v-9.8h-1.8V337.4z"/>
	<path d="M799,346.8c0-1.7,0.4-3,1.3-4s2.1-1.5,3.8-1.5c0.9,0,1.6,0.1,2.3,0.4s1.2,0.7,1.6,1.2c0.4,0.5,0.7,1.1,0.9,1.7
		s0.3,1.4,0.3,2.2c0,0.8-0.1,1.6-0.3,2.3c-0.2,0.7-0.6,1.3-1,1.7c-0.4,0.5-1,0.8-1.6,1.1c-0.6,0.3-1.4,0.4-2.2,0.4
		c-0.9,0-1.6-0.1-2.3-0.4c-0.6-0.3-1.2-0.7-1.6-1.2c-0.4-0.5-0.7-1.1-0.9-1.7C799.1,348.3,799,347.6,799,346.8z M800.7,346.8
		c0,0.5,0.1,1,0.2,1.5s0.3,0.9,0.6,1.3c0.3,0.4,0.6,0.7,1,0.9c0.4,0.2,0.9,0.4,1.6,0.4c1.1,0,2-0.3,2.5-1c0.6-0.7,0.8-1.7,0.8-3.1
		c0-0.5-0.1-1-0.2-1.5s-0.3-0.9-0.6-1.3c-0.3-0.4-0.6-0.7-1-0.9c-0.4-0.2-0.9-0.4-1.6-0.4c-1.1,0-2,0.3-2.5,1
		C801,344.5,800.7,345.5,800.7,346.8z"/>
	<path d="M812.7,342.4c0.6-0.3,1.3-0.6,2-0.8c0.8-0.2,1.5-0.2,2.2-0.2c0.7,0,1.3,0.1,1.8,0.3c0.5,0.2,0.8,0.5,1.1,0.9
		c0.3,0.4,0.4,0.8,0.5,1.2c0.1,0.5,0.1,0.9,0.1,1.4c0,0.5,0,1.1,0,1.7c0,0.6,0,1.2-0.1,1.8c0,0.7,0,1.4,0.1,2h1.4v1.4h-2.8l-0.2-1.6
		h-0.1c-0.1,0.1-0.2,0.3-0.4,0.5c-0.2,0.2-0.4,0.4-0.7,0.6s-0.6,0.4-1,0.5c-0.4,0.1-0.9,0.2-1.4,0.2c-1,0-1.9-0.3-2.5-0.8
		s-0.9-1.3-0.9-2.2c0-0.7,0.2-1.3,0.5-1.8c0.3-0.5,0.8-0.8,1.4-1.1c0.6-0.3,1.3-0.4,2.1-0.4c0.8,0,1.8,0,2.8,0.2
		c0.1-0.6,0.1-1.2,0-1.6c0-0.4-0.2-0.8-0.3-1s-0.4-0.4-0.7-0.5s-0.7-0.2-1.2-0.2c-0.6,0-1.2,0.1-1.8,0.3c-0.6,0.2-1.1,0.4-1.5,0.5
		L812.7,342.4z M815.8,350.9c0.4,0,0.8-0.1,1.1-0.2c0.3-0.1,0.6-0.3,0.9-0.5c0.3-0.2,0.5-0.4,0.6-0.6c0.2-0.2,0.3-0.5,0.4-0.7v-1.5
		c-0.7-0.1-1.4-0.2-2-0.2s-1.1,0.1-1.6,0.2c-0.4,0.1-0.8,0.3-1.1,0.6c-0.3,0.3-0.4,0.6-0.4,1.1c0,0.5,0.2,0.9,0.5,1.2
		C814.5,350.7,815,350.9,815.8,350.9z"/>
	<path d="M830.3,337.4h3.4v11.1c0,0.1,0,0.3,0,0.5s0,0.4,0.1,0.6s0,0.4,0.1,0.6s0.1,0.4,0.1,0.5h1.4v1.4h-2.8l-0.2-1.6h-0.1
		c-0.3,0.5-0.8,1-1.4,1.3c-0.6,0.4-1.3,0.5-2.1,0.5c-1.6,0-2.7-0.4-3.5-1.3c-0.7-0.9-1.1-2.3-1.1-4.1c0-0.9,0.1-1.7,0.4-2.3
		c0.3-0.7,0.6-1.2,1.1-1.7c0.5-0.5,1-0.8,1.7-1c0.7-0.2,1.4-0.4,2.2-0.4c0.3,0,0.6,0,0.8,0c0.2,0,0.4,0,0.6,0.1
		c0.2,0,0.4,0.1,0.6,0.1c0.2,0,0.4,0.1,0.6,0.2v-3h-1.8V337.4z M829,350.9c0.9,0,1.5-0.2,2-0.7s0.8-1.1,1-2v-4.9
		c-0.3-0.2-0.7-0.4-1-0.5c-0.4-0.1-0.9-0.1-1.5-0.1c-1.1,0-2,0.3-2.6,1c-0.6,0.7-1,1.7-1,3.1c0,0.6,0.1,1.1,0.2,1.6
		c0.1,0.5,0.3,0.9,0.5,1.3c0.2,0.4,0.6,0.7,1,0.9C828,350.8,828.5,350.9,829,350.9z"/>
	<path d="M846.7,350.8c-0.3,0.2-0.5,0.4-0.9,0.6c-0.3,0.2-0.7,0.4-1.1,0.5c-0.4,0.1-0.8,0.2-1.3,0.3c-0.4,0.1-0.9,0.1-1.3,0.1
		c-0.8,0-1.6-0.1-2.2-0.4c-0.6-0.3-1.2-0.6-1.6-1.1s-0.8-1.1-1-1.7c-0.2-0.7-0.3-1.4-0.3-2.3c0-0.9,0.1-1.7,0.4-2.4
		c0.2-0.7,0.6-1.3,1.1-1.7c0.5-0.5,1-0.8,1.7-1.1s1.4-0.4,2.2-0.4c0.6,0,1.2,0.1,1.7,0.2c0.6,0.2,1.1,0.4,1.5,0.9
		c0.4,0.4,0.8,1,1,1.8c0.2,0.7,0.3,1.7,0.3,2.9h-8.1c0,1.3,0.3,2.2,1,2.8c0.7,0.6,1.6,0.9,2.7,0.9c0.4,0,0.8,0,1.1-0.1
		c0.4-0.1,0.7-0.2,1.1-0.3c0.3-0.1,0.6-0.3,0.9-0.4c0.3-0.2,0.5-0.3,0.6-0.4L846.7,350.8z M842.3,342.7c-0.5,0-0.9,0-1.3,0.1
		c-0.4,0.1-0.8,0.3-1.1,0.5s-0.6,0.5-0.8,0.9s-0.3,0.8-0.4,1.4h6.5c-0.1-0.9-0.4-1.6-0.9-2.2C843.8,343,843.1,342.7,842.3,342.7z"/>
	<path d="M849.6,352.1v-1.4h2.8V343h-2.8v-1.4h3.9l0.3,1.4h0.1c0.5-0.4,1-0.8,1.6-1.1c0.6-0.3,1.3-0.5,2.1-0.5
		c0.5,0,0.9,0.1,1.1,0.3c0.3,0.2,0.5,0.4,0.7,0.8c0.2,0.4,0.3,0.8,0.3,1.3c0.1,0.5,0.1,1.1,0.1,1.7l-1.5,0c0-0.9-0.1-1.5-0.3-2
		c-0.2-0.4-0.5-0.6-1-0.6c-0.4,0-0.8,0.1-1.2,0.2s-0.7,0.3-0.9,0.5c-0.3,0.2-0.5,0.4-0.7,0.5c-0.2,0.2-0.3,0.3-0.4,0.5v6.2h4v1.4
		H849.6z"/>
	<path d="M865.7,350.9c0-0.4,0.1-0.8,0.4-1s0.6-0.4,1-0.4c0.4,0,0.8,0.1,1.1,0.4s0.4,0.6,0.4,1c0,0.4-0.1,0.7-0.4,1
		s-0.6,0.4-1.1,0.4c-0.4,0-0.8-0.1-1-0.4S865.7,351.3,865.7,350.9z"/>
	<path d="M880.5,343h-5.1v-1.4h6.8v10.8c0,1.4-0.4,2.5-1.1,3.2s-1.7,1-3,1c-0.4,0-0.7,0-1.1-0.1c-0.4-0.1-0.7-0.2-1-0.3
		c-0.3-0.1-0.6-0.3-0.8-0.4c-0.2-0.1-0.4-0.3-0.5-0.3l0.7-1.4c0.4,0.3,0.8,0.5,1.3,0.7c0.5,0.2,1,0.3,1.5,0.3c0.8,0,1.4-0.3,1.8-0.8
		c0.4-0.5,0.5-1.2,0.5-2.2V343z M879.6,338.6c0-0.4,0.1-0.7,0.4-1s0.6-0.4,1-0.4c0.4,0,0.7,0.1,1,0.4c0.3,0.3,0.4,0.6,0.4,1
		c0,0.4-0.1,0.7-0.4,0.9c-0.3,0.3-0.6,0.4-1,0.4c-0.4,0-0.7-0.1-1-0.4S879.6,339,879.6,338.6z"/>
	<path d="M895.2,349.3c0-0.4-0.2-0.8-0.5-1c-0.3-0.2-0.8-0.4-1.3-0.6s-1.1-0.3-1.7-0.4c-0.6-0.1-1.2-0.3-1.7-0.5s-0.9-0.5-1.3-0.9
		c-0.3-0.4-0.5-0.9-0.5-1.5c0-0.5,0.1-1,0.3-1.4c0.2-0.4,0.5-0.7,0.9-0.9s0.8-0.4,1.3-0.5c0.5-0.1,1-0.2,1.6-0.2
		c1,0,1.8,0.1,2.5,0.4c0.7,0.2,1.3,0.5,1.7,0.8l-0.7,1.3c-0.5-0.3-1-0.5-1.5-0.7s-1.2-0.3-2-0.3c-0.3,0-0.6,0-0.9,0.1
		s-0.6,0.2-0.8,0.3s-0.4,0.3-0.6,0.5c-0.1,0.2-0.2,0.5-0.2,0.7c0,0.4,0.2,0.6,0.5,0.8c0.3,0.2,0.8,0.4,1.3,0.5
		c0.5,0.1,1.1,0.3,1.7,0.4c0.6,0.1,1.2,0.3,1.7,0.5c0.5,0.2,0.9,0.5,1.3,0.9s0.5,0.9,0.5,1.5c0,1-0.4,1.8-1.1,2.4
		c-0.8,0.6-1.9,0.9-3.4,0.9c-0.5,0-0.9,0-1.4-0.1c-0.4-0.1-0.9-0.2-1.3-0.3c-0.4-0.1-0.7-0.3-1.1-0.5c-0.3-0.2-0.6-0.4-0.8-0.5
		l0.8-1.4c0.2,0.2,0.4,0.3,0.7,0.5c0.3,0.2,0.6,0.3,0.9,0.5c0.3,0.1,0.7,0.3,1.1,0.3c0.4,0.1,0.8,0.1,1.2,0.1c0.4,0,0.7,0,1.1-0.1
		s0.6-0.2,0.9-0.3c0.3-0.1,0.5-0.3,0.6-0.5C895.1,349.8,895.2,349.6,895.2,349.3z"/>
	<path d="M668.7,379.1l1.3,0.6l-7.7,17.3l-1.3-0.6L668.7,379.1z"/>
	<path d="M673.8,387.3c0-0.1,0-0.3,0-0.5s0-0.4,0-0.6c0-0.2,0-0.4-0.1-0.6s0-0.4-0.1-0.5h-1.4v-1.4h2.8l0.2,1.5h0.1
		c0.4-0.5,0.9-0.9,1.4-1.2c0.6-0.3,1.3-0.5,2.1-0.5c1.5,0,2.6,0.4,3.4,1.2s1.1,2.2,1.1,4.1c0,0.9-0.1,1.7-0.4,2.4
		c-0.3,0.7-0.6,1.3-1.1,1.8c-0.5,0.5-1.1,0.9-1.7,1.1s-1.4,0.4-2.2,0.4c-0.3,0-0.6,0-0.8,0c-0.2,0-0.4,0-0.6-0.1
		c-0.2,0-0.4-0.1-0.6-0.1s-0.4-0.1-0.6-0.2v4.4h-1.6V387.3z M678.6,384.9c-0.4,0-0.8,0.1-1.2,0.2c-0.4,0.2-0.7,0.4-1,0.6
		c-0.3,0.3-0.5,0.5-0.7,0.8c-0.2,0.3-0.3,0.6-0.3,0.9v4.8c0.3,0.2,0.7,0.4,1,0.5s0.9,0.2,1.5,0.2c1.1,0,2-0.4,2.7-1.1s1-1.8,1-3.2
		c0-1.2-0.2-2.1-0.7-2.8C680.5,385.2,679.7,384.9,678.6,384.9z"/>
	<path d="M686.3,387.3c0-0.1,0-0.3,0-0.5s0-0.4,0-0.6c0-0.2,0-0.4-0.1-0.6s0-0.4-0.1-0.5h-1.4v-1.4h2.8l0.2,1.7h0.1
		c0.1-0.2,0.3-0.5,0.6-0.7c0.2-0.2,0.5-0.4,0.8-0.6c0.3-0.2,0.7-0.3,1-0.5c0.4-0.1,0.8-0.2,1.2-0.2c0.6,0,1.2,0.1,1.7,0.2
		c0.5,0.1,0.9,0.4,1.2,0.7s0.6,0.8,0.7,1.4s0.3,1.4,0.3,2.3v6h-1.7v-5.7c0-1.2-0.2-2-0.6-2.6s-1.1-0.9-2.1-0.9
		c-0.4,0-0.7,0.1-1.1,0.2c-0.3,0.1-0.7,0.3-0.9,0.6c-0.3,0.2-0.5,0.5-0.7,0.8c-0.2,0.3-0.4,0.6-0.5,1v6.6h-1.6V387.3z"/>
	<path d="M708,394.6c0,0.7-0.1,1.2-0.4,1.7s-0.6,0.9-1,1.2c-0.4,0.3-1,0.6-1.5,0.7s-1.2,0.2-1.9,0.2c-0.8,0-1.5-0.1-2.2-0.3
		s-1.1-0.4-1.6-0.7l0.8-1.5c0.1,0.1,0.3,0.2,0.5,0.3c0.2,0.1,0.4,0.2,0.7,0.3c0.3,0.1,0.5,0.2,0.8,0.2s0.6,0.1,0.9,0.1
		c0.6,0,1.1-0.1,1.5-0.2s0.7-0.3,1-0.5c0.3-0.2,0.4-0.5,0.5-0.9c0.1-0.4,0.2-0.8,0.2-1.4v-1.2h-0.1c-0.3,0.5-0.7,0.8-1.2,1.1
		c-0.5,0.3-1.2,0.4-1.9,0.4c-1.6,0-2.8-0.4-3.5-1.3c-0.7-0.9-1.1-2.3-1.1-4.1c0-1.8,0.5-3.1,1.4-4.1c1-0.9,2.4-1.4,4.2-1.4
		c0.9,0,1.6,0.1,2.2,0.2c0.6,0.1,1.2,0.3,1.7,0.5V394.6z M703.3,392.9c0.8,0,1.5-0.2,2-0.7c0.5-0.4,0.8-1.1,1-2v-5
		c-0.6-0.3-1.5-0.4-2.6-0.4c-1.1,0-2,0.3-2.6,1s-1,1.7-1,3c0,0.6,0.1,1.2,0.2,1.6c0.1,0.5,0.3,0.9,0.5,1.3c0.2,0.4,0.6,0.6,1,0.9
		C702.2,392.8,702.7,392.9,703.3,392.9z"/>
	<path d="M677.3,429.7v-12.2h1.6v10.6h5.5v1.6H677.3z"/>
	<path d="M702.5,436.1v-7c0-0.3,0-0.6,0-0.9s-0.1-0.5-0.1-0.7c-0.1-0.2-0.2-0.4-0.3-0.5c-0.1-0.1-0.3-0.2-0.6-0.2
		c-0.5,0-0.9,0.2-1.2,0.6c-0.3,0.4-0.6,0.9-0.7,1.5v7.2h-1.6v-10.5h1.1l0.3,1.3h0.1c0.1-0.2,0.3-0.4,0.4-0.6
		c0.1-0.2,0.3-0.4,0.5-0.5c0.2-0.1,0.4-0.2,0.6-0.3c0.2-0.1,0.5-0.1,0.9-0.1c0.2,0,0.4,0,0.7,0.1c0.2,0.1,0.4,0.2,0.6,0.3
		c0.2,0.1,0.4,0.3,0.5,0.5c0.1,0.2,0.2,0.5,0.3,0.8c0.3-0.5,0.7-1,1.1-1.3s0.9-0.5,1.6-0.5c0.5,0,0.8,0.1,1.1,0.2
		c0.3,0.2,0.5,0.4,0.7,0.7c0.2,0.3,0.3,0.6,0.3,1c0.1,0.4,0.1,0.8,0.1,1.3v7.5h-1.6v-7.1c0-0.3,0-0.6,0-0.8c0-0.3-0.1-0.5-0.2-0.7
		c-0.1-0.2-0.2-0.3-0.3-0.5c-0.1-0.1-0.3-0.2-0.5-0.2c-0.5,0-0.9,0.2-1.2,0.6c-0.3,0.4-0.6,1-0.8,1.7v7H702.5z"/>
	<path d="M711.9,426.4c0.6-0.3,1.3-0.6,2-0.8c0.8-0.2,1.5-0.2,2.2-0.2c0.7,0,1.3,0.1,1.8,0.3s0.8,0.5,1.1,0.9
		c0.3,0.4,0.4,0.8,0.5,1.2c0.1,0.5,0.1,0.9,0.1,1.4c0,0.5,0,1.1,0,1.7s0,1.2-0.1,1.8c0,0.7,0,1.4,0.1,2h1.4v1.4h-2.8l-0.2-1.6H718
		c-0.1,0.1-0.2,0.3-0.4,0.5c-0.2,0.2-0.4,0.4-0.7,0.6c-0.3,0.2-0.6,0.4-1,0.5s-0.9,0.2-1.4,0.2c-1,0-1.9-0.3-2.5-0.8
		c-0.6-0.5-0.9-1.3-0.9-2.2c0-0.7,0.2-1.3,0.5-1.8c0.3-0.5,0.8-0.8,1.4-1.1s1.3-0.4,2.1-0.4s1.8,0,2.8,0.2c0.1-0.6,0.1-1.2,0-1.6
		c0-0.4-0.2-0.8-0.3-1s-0.4-0.4-0.7-0.5c-0.3-0.1-0.7-0.2-1.2-0.2c-0.6,0-1.2,0.1-1.8,0.3c-0.6,0.2-1.1,0.4-1.5,0.5L711.9,426.4z
		 M715,434.9c0.4,0,0.8-0.1,1.1-0.2s0.6-0.3,0.9-0.5c0.3-0.2,0.5-0.4,0.6-0.6c0.2-0.2,0.3-0.5,0.4-0.7v-1.5c-0.7-0.1-1.4-0.2-2-0.2
		c-0.6,0-1.1,0.1-1.6,0.2c-0.4,0.1-0.8,0.3-1,0.6c-0.3,0.3-0.4,0.6-0.4,1.1c0,0.5,0.2,0.9,0.5,1.2S714.2,434.9,715,434.9z"/>
	<path d="M724.2,429.3c0-0.1,0-0.3,0-0.5c0-0.2,0-0.4,0-0.6c0-0.2,0-0.4-0.1-0.6s0-0.4-0.1-0.5h-1.4v-1.4h2.8l0.2,1.5h0.1
		c0.4-0.5,0.9-0.9,1.4-1.2c0.6-0.3,1.3-0.5,2.1-0.5c1.5,0,2.6,0.4,3.4,1.2c0.8,0.8,1.1,2.2,1.1,4.1c0,0.9-0.1,1.7-0.4,2.4
		c-0.3,0.7-0.6,1.3-1.1,1.8s-1,0.9-1.7,1.1s-1.4,0.4-2.2,0.4c-0.3,0-0.6,0-0.8,0c-0.2,0-0.4,0-0.6-0.1c-0.2,0-0.4-0.1-0.6-0.1
		c-0.2-0.1-0.4-0.1-0.6-0.2v4.4h-1.6V429.3z M729,426.9c-0.4,0-0.8,0.1-1.2,0.2s-0.7,0.4-1,0.6c-0.3,0.3-0.5,0.5-0.7,0.8
		c-0.2,0.3-0.3,0.6-0.3,0.9v4.8c0.3,0.2,0.7,0.4,1,0.5s0.9,0.2,1.5,0.2c1.1,0,2-0.4,2.7-1.1c0.7-0.7,1-1.8,1-3.2
		c0-1.2-0.2-2.1-0.7-2.8C730.9,427.2,730.1,426.9,729,426.9z"/>
	<path d="M739.7,434.9c0-0.4,0.1-0.8,0.4-1s0.6-0.4,1-0.4c0.4,0,0.8,0.1,1.1,0.4s0.4,0.6,0.4,1c0,0.4-0.1,0.7-0.4,1
		s-0.6,0.4-1.1,0.4c-0.4,0-0.8-0.1-1-0.4S739.7,435.3,739.7,434.9z"/>
	<path d="M749.4,429.3c0-0.1,0-0.3,0-0.5c0-0.2,0-0.4,0-0.6c0-0.2,0-0.4-0.1-0.6c0-0.2,0-0.4-0.1-0.5h-1.4v-1.4h2.8l0.2,1.5h0.1
		c0.4-0.5,0.9-0.9,1.4-1.2s1.3-0.5,2.1-0.5c1.5,0,2.6,0.4,3.4,1.2c0.8,0.8,1.1,2.2,1.1,4.1c0,0.9-0.1,1.7-0.4,2.4
		c-0.3,0.7-0.6,1.3-1.1,1.8c-0.5,0.5-1.1,0.9-1.7,1.1s-1.4,0.4-2.2,0.4c-0.3,0-0.6,0-0.8,0c-0.2,0-0.4,0-0.6-0.1
		c-0.2,0-0.4-0.1-0.6-0.1c-0.2-0.1-0.4-0.1-0.6-0.2v4.4h-1.6V429.3z M754.2,426.9c-0.4,0-0.8,0.1-1.2,0.2s-0.7,0.4-1,0.6
		c-0.3,0.3-0.5,0.5-0.7,0.8c-0.2,0.3-0.3,0.6-0.3,0.9v4.8c0.3,0.2,0.7,0.4,1,0.5c0.4,0.1,0.9,0.2,1.5,0.2c1.1,0,2-0.4,2.7-1.1
		c0.7-0.7,1-1.8,1-3.2c0-1.2-0.2-2.1-0.7-2.8C756.1,427.2,755.3,426.9,754.2,426.9z"/>
	<path d="M761.9,429.3c0-0.1,0-0.3,0-0.5c0-0.2,0-0.4,0-0.6c0-0.2,0-0.4-0.1-0.6s0-0.4-0.1-0.5h-1.4v-1.4h2.8l0.2,1.7h0.1
		c0.1-0.2,0.3-0.5,0.6-0.7c0.2-0.2,0.5-0.4,0.8-0.6c0.3-0.2,0.7-0.3,1-0.5s0.8-0.2,1.2-0.2c0.6,0,1.2,0.1,1.7,0.2
		c0.5,0.1,0.9,0.4,1.2,0.7c0.3,0.4,0.6,0.8,0.7,1.4s0.3,1.4,0.3,2.3v6h-1.7v-5.7c0-1.2-0.2-2-0.6-2.6c-0.4-0.6-1.1-0.9-2-0.9
		c-0.4,0-0.7,0.1-1.1,0.2c-0.3,0.1-0.7,0.3-0.9,0.6c-0.3,0.2-0.5,0.5-0.7,0.8s-0.4,0.6-0.5,1v6.6h-1.6V429.3z"/>
	<path d="M783.6,436.6c0,0.7-0.1,1.2-0.4,1.7s-0.6,0.9-1,1.2s-1,0.6-1.5,0.7s-1.2,0.2-1.9,0.2c-0.8,0-1.5-0.1-2.2-0.3
		c-0.6-0.2-1.1-0.4-1.6-0.7l0.8-1.5c0.1,0.1,0.3,0.2,0.5,0.3c0.2,0.1,0.4,0.2,0.7,0.3c0.3,0.1,0.5,0.2,0.8,0.2
		c0.3,0.1,0.6,0.1,0.9,0.1c0.6,0,1.1-0.1,1.5-0.2c0.4-0.1,0.7-0.3,1-0.5c0.3-0.2,0.4-0.5,0.5-0.9c0.1-0.4,0.2-0.8,0.2-1.4v-1.2h-0.1
		c-0.3,0.5-0.7,0.8-1.2,1.1c-0.5,0.3-1.2,0.4-1.9,0.4c-1.6,0-2.8-0.4-3.5-1.3c-0.7-0.9-1.1-2.3-1.1-4.1c0-1.8,0.5-3.1,1.4-4.1
		c1-0.9,2.4-1.4,4.2-1.4c0.9,0,1.6,0.1,2.2,0.2c0.6,0.1,1.2,0.3,1.7,0.5V436.6z M778.9,434.9c0.8,0,1.5-0.2,2-0.7
		c0.5-0.4,0.8-1.1,1-2v-5c-0.6-0.3-1.5-0.4-2.6-0.4c-1.1,0-2,0.3-2.6,1c-0.6,0.7-1,1.7-1,3c0,0.6,0.1,1.2,0.2,1.6
		c0.1,0.5,0.3,0.9,0.5,1.3c0.2,0.4,0.6,0.6,1,0.9C777.8,434.8,778.3,434.9,778.9,434.9z"/>
	<path d="M677.3,471.7v-12.2h1.6v10.6h5.5v1.6H677.3z"/>
	<path d="M701.9,476.9c0-0.4,0.1-0.8,0.4-1s0.6-0.4,1-0.4c0.4,0,0.8,0.1,1,0.4s0.4,0.6,0.4,1c0,0.4-0.1,0.7-0.4,1s-0.6,0.4-1,0.4
		c-0.4,0-0.8-0.1-1-0.4S701.9,477.3,701.9,476.9z"/>
	<path d="M714.5,476.9c0-0.4,0.1-0.8,0.4-1s0.6-0.4,1-0.4c0.4,0,0.8,0.1,1.1,0.4s0.4,0.6,0.4,1c0,0.4-0.1,0.7-0.4,1
		s-0.6,0.4-1.1,0.4c-0.4,0-0.8-0.1-1-0.4S714.5,477.3,714.5,476.9z"/>
	<path d="M727.1,476.9c0-0.4,0.1-0.8,0.4-1s0.6-0.4,1-0.4c0.4,0,0.8,0.1,1.1,0.4s0.4,0.6,0.4,1c0,0.4-0.1,0.7-0.4,1
		s-0.6,0.4-1.1,0.4c-0.4,0-0.8-0.1-1-0.4S727.1,477.3,727.1,476.9z"/>
</g>
<g id="Arrow_29">
	<g>
		<polygon fill="#231F20" points="548.6,345.3 530.5,366.9 532.2,355.8 514.1,355.8 514.1,334.7 532.2,334.7 530.5,323.6 		"/>
	</g>
</g>
<g>
</g>
<g>
</g>
<g>
</g>
<g>
</g>
<g>
</g>
<g>
</g>
<g>
</g>
<g>
</g>
<g>
</g>
<g>
</g>
<g>
</g>
<g>
</g>
<g>
</g>
<g>
</g>
<g>
</g>
<g>
</g>
</svg>
