<?xml version="1.0" encoding="utf-8"?>
<!-- Generator: Adobe Illustrator 18.1.1, SVG Export Plug-In . SVG Version: 6.00 Build 0)  -->
<!DOCTYPE svg PUBLIC "-//W3C//DTD SVG 1.1//EN" "http://www.w3.org/Graphics/SVG/1.1/DTD/svg11.dtd">
<svg version="1.1" id="Layer_1" xmlns="http://www.w3.org/2000/svg" xmlns:xlink="http://www.w3.org/1999/xlink" x="0px" y="0px"
	 width="1147.2px" height="768px" viewBox="0 0 1147.2 768" enable-background="new 0 0 1147.2 768" xml:space="preserve">
<rect x="51.7" y="181.1" fill="#E0E0E0" width="422.8" height="324.4"/>
<rect x="585.7" y="181.1" fill="#E0E0E0" width="422.8" height="324.4"/>
<g>
	<g>
		<path fill="#F0AB00" d="M193.1,283.5h7.7v-38.6h-7.7V283.5z M203.4,283.5h7.7v-25.7h-7.7V283.5z M213.7,283.5h7.7v-46.3h-7.7
			V283.5z M224,270.6v12.9h7.7v-12.9H224z"/>
	</g>
</g>
<path fill="#003F6A" d="M304.6,265.3l-6.1-6.1l21.2-21.2h3l3,3v3L304.6,265.3z M295.5,271.4l-3-3l3.6-5.5l4.9,4.9L295.5,271.4z
	 M289.5,271.4l3,3l12.1-3l9.1-9.1v21.2h-33.4V241h30.3l-18.2,18.2L289.5,271.4z"/>
<g>
	<g>
		<path fill="#E98324" d="M387.6,263.3v-19.7c-11,0-20,8.9-20,20c0,11,8.9,19.9,20,19.9c11,0,20-8.9,20-19.9c0-0.1,0-0.2,0-0.3
			L387.6,263.3L387.6,263.3z M392.6,238.6v19.7h19.9C412.4,247.4,403.5,238.6,392.6,238.6z"/>
	</g>
</g>
<polygon fill="#97BD3D" points="229.8,353.4 199.2,330.3 196.6,331.8 201.6,369.5 210.1,358.8 217.6,371.7 225.4,367.2 218.4,355 
	"/>
<g>
	<g>
		<path fill="#ED1A37" d="M387.4,451.8l11.6-12.1l13.5,16.6L399,421.2L387.8,441l-11.3-5.6l-7.1,18.8l6.2-8.3L387.4,451.8z
			 M399,443.8l-11.3,11.3l-11.3-5.6l-8.5,11.3h45.2L399,443.8z"/>
	</g>
</g>
<g>
	<g>
		<path fill="#2484CE" d="M309.4,460.7l9.2-9.2h-9.2V460.7z M284.8,417.6v43.2h24.7l-3.1-3.1v-9.2h9.2l3.1,3.1v-33.9H284.8z"/>
	</g>
</g>
<path fill="#7D0063" d="M313.2,356.9v-15l9.9-6.1V363L313.2,356.9z M310.8,343.4v12v2.7c0,2.7-2.2,4.9-4.9,4.9h-22.3
	c-2.7,0-4.9-2.2-4.9-4.9v-17.3c0-2.7,2.2-4.9,4.9-4.9h22.3c2.7,0,4.9,2.2,4.9,4.9V343.4z"/>
<path fill="#C51F24" d="M212.4,416.7c-8.5,0-15.4,7.1-15.4,15.9c0,0.6,0,1.2,0.1,1.8c1.1,11.5,11.9,26,15.3,26s14.2-14.5,15.3-26
	c0.1-0.6,0.1-1.2,0.1-1.8C227.8,423.8,220.9,416.7,212.4,416.7z M212.4,437.2c-2.8,0-5.1-2.3-5.1-5.1c0-2.8,2.3-5.1,5.1-5.1
	c2.8,0,5.1,2.3,5.1,5.1C217.5,434.9,215.2,437.2,212.4,437.2z"/>
<g>
	<g>
		<polygon fill="#007A4D" points="412.2,336.4 412.2,333.6 392.7,333.6 392.7,330.8 387.2,330.8 387.2,333.6 367.7,333.6 
			367.7,336.4 370.5,336.4 370.5,358.7 367.7,358.7 367.7,361.5 385.1,361.5 378.8,369.8 384.4,369.8 389.9,362.4 395.5,369.8 
			401.1,369.8 394.8,361.5 412.2,361.5 412.2,358.7 409.4,358.7 409.4,336.4 		"/>
	</g>
</g>
<g>
	<path d="M109.2,335.2l1.5,0.7l-8.8,19.8l-1.5-0.7L109.2,335.2z"/>
	<path d="M123.2,349.1c0-0.5-0.2-0.9-0.6-1.2c-0.4-0.3-0.9-0.5-1.5-0.7c-0.6-0.2-1.2-0.3-1.9-0.5s-1.3-0.3-1.9-0.6
		c-0.6-0.2-1.1-0.6-1.5-1c-0.4-0.4-0.6-1-0.6-1.7c0-0.6,0.1-1.1,0.4-1.6c0.3-0.4,0.6-0.8,1-1.1c0.4-0.3,0.9-0.5,1.5-0.6
		c0.6-0.1,1.2-0.2,1.8-0.2c1.1,0,2.1,0.1,2.9,0.4c0.8,0.3,1.5,0.6,1.9,0.9l-0.8,1.5c-0.5-0.3-1.1-0.6-1.7-0.8
		c-0.6-0.3-1.4-0.4-2.3-0.4c-0.4,0-0.7,0-1,0.1c-0.3,0.1-0.7,0.2-0.9,0.3c-0.3,0.1-0.5,0.3-0.7,0.6c-0.2,0.2-0.3,0.5-0.3,0.9
		c0,0.4,0.2,0.7,0.6,1c0.4,0.2,0.9,0.4,1.5,0.6c0.6,0.2,1.2,0.3,1.9,0.4c0.7,0.1,1.3,0.3,1.9,0.6c0.6,0.3,1.1,0.6,1.5,1
		c0.4,0.4,0.6,1,0.6,1.8c0,1.1-0.4,2-1.3,2.7c-0.9,0.7-2.2,1.1-3.9,1.1c-0.5,0-1,0-1.6-0.1c-0.5-0.1-1-0.2-1.4-0.4
		c-0.4-0.2-0.9-0.3-1.2-0.5s-0.7-0.4-0.9-0.6l1-1.6c0.2,0.2,0.4,0.4,0.8,0.6c0.3,0.2,0.7,0.4,1.1,0.5c0.4,0.2,0.8,0.3,1.2,0.4
		c0.4,0.1,0.9,0.1,1.3,0.1c0.4,0,0.8,0,1.2-0.1c0.4-0.1,0.7-0.2,1-0.3c0.3-0.2,0.5-0.4,0.7-0.6S123.2,349.4,123.2,349.1z"/>
	<path d="M134.4,350h0.3l3.8-9.7h2.1l-5.1,12h-2.1l-5.2-12h2.2L134.4,350z"/>
	<path d="M154.1,352.9c0,0.8-0.1,1.4-0.4,2c-0.3,0.6-0.7,1-1.2,1.4s-1.1,0.6-1.8,0.8c-0.7,0.2-1.4,0.3-2.2,0.3
		c-0.9,0-1.8-0.1-2.5-0.3c-0.7-0.2-1.3-0.4-1.8-0.7l0.9-1.7c0.1,0.1,0.3,0.3,0.6,0.4s0.5,0.2,0.8,0.3c0.3,0.1,0.6,0.2,1,0.3
		s0.7,0.1,1,0.1c0.7,0,1.3-0.1,1.8-0.2s0.8-0.3,1.1-0.6c0.3-0.3,0.5-0.6,0.6-1.1c0.1-0.4,0.2-1,0.2-1.6v-1.3h-0.1
		c-0.4,0.5-0.8,0.9-1.4,1.2c-0.6,0.3-1.3,0.4-2.2,0.4c-1.8,0-3.2-0.5-4-1.5s-1.3-2.6-1.3-4.7c0-2,0.5-3.6,1.6-4.6
		c1.1-1,2.7-1.6,4.8-1.6c1,0,1.8,0.1,2.5,0.2c0.7,0.1,1.3,0.3,1.9,0.5V352.9z M148.8,351c1,0,1.7-0.3,2.3-0.8
		c0.6-0.5,0.9-1.3,1.2-2.3v-5.7c-0.7-0.3-1.7-0.5-2.9-0.5c-1.3,0-2.3,0.4-3,1.1c-0.7,0.8-1.1,1.9-1.1,3.5c0,0.7,0.1,1.3,0.2,1.9
		c0.1,0.6,0.3,1.1,0.6,1.5c0.3,0.4,0.6,0.7,1.1,1S148.1,351,148.8,351z"/>
</g>
<g>
	<path d="M668.7,250.5l1.3,0.6l-7.7,17.3l-1.3-0.6L668.7,250.5z"/>
	<path d="M673.8,258.6c0-0.1,0-0.3,0-0.5s0-0.4,0-0.6c0-0.2,0-0.4-0.1-0.6c0-0.2,0-0.4-0.1-0.5h-1.4v-1.4h2.8l0.2,1.5h0.1
		c0.4-0.5,0.9-0.9,1.4-1.2s1.3-0.5,2.1-0.5c1.5,0,2.6,0.4,3.4,1.2c0.8,0.8,1.1,2.2,1.1,4.1c0,0.9-0.1,1.7-0.4,2.4
		c-0.3,0.7-0.6,1.3-1.1,1.8c-0.5,0.5-1,0.9-1.7,1.1s-1.4,0.4-2.2,0.4c-0.3,0-0.6,0-0.8,0s-0.4,0-0.6-0.1c-0.2,0-0.4-0.1-0.6-0.1
		s-0.4-0.1-0.6-0.2v4.4h-1.6V258.6z M678.6,256.2c-0.4,0-0.8,0.1-1.2,0.2c-0.4,0.2-0.7,0.4-1,0.6s-0.5,0.5-0.7,0.8s-0.3,0.6-0.3,0.9
		v4.8c0.3,0.2,0.7,0.4,1,0.5c0.4,0.1,0.9,0.2,1.5,0.2c1.1,0,2-0.4,2.7-1.1c0.7-0.7,1-1.8,1-3.2c0-1.2-0.2-2.1-0.7-2.8
		C680.5,256.6,679.7,256.2,678.6,256.2z"/>
	<path d="M686.3,258.6c0-0.1,0-0.3,0-0.5s0-0.4,0-0.6c0-0.2,0-0.4-0.1-0.6c0-0.2,0-0.4-0.1-0.5h-1.4v-1.4h2.8l0.2,1.7h0.1
		c0.1-0.2,0.3-0.5,0.6-0.7c0.2-0.2,0.5-0.4,0.8-0.6c0.3-0.2,0.7-0.3,1-0.5c0.4-0.1,0.8-0.2,1.2-0.2c0.6,0,1.2,0.1,1.7,0.2
		c0.5,0.1,0.9,0.4,1.2,0.7s0.6,0.8,0.7,1.4c0.2,0.6,0.3,1.4,0.3,2.3v6h-1.7v-5.7c0-1.2-0.2-2-0.6-2.6c-0.4-0.6-1.1-0.9-2-0.9
		c-0.4,0-0.7,0.1-1.1,0.2c-0.3,0.1-0.7,0.3-0.9,0.6c-0.3,0.2-0.5,0.5-0.7,0.8s-0.4,0.6-0.5,1v6.6h-1.6V258.6z"/>
	<path d="M708,266c0,0.7-0.1,1.2-0.4,1.7s-0.6,0.9-1,1.2c-0.4,0.3-1,0.6-1.5,0.7c-0.6,0.2-1.2,0.2-1.9,0.2c-0.8,0-1.5-0.1-2.2-0.3
		c-0.6-0.2-1.1-0.4-1.6-0.7l0.8-1.5c0.1,0.1,0.3,0.2,0.5,0.3c0.2,0.1,0.4,0.2,0.7,0.3c0.3,0.1,0.5,0.2,0.8,0.2
		c0.3,0.1,0.6,0.1,0.9,0.1c0.6,0,1.1-0.1,1.5-0.2c0.4-0.1,0.7-0.3,1-0.5c0.3-0.2,0.4-0.5,0.5-0.9c0.1-0.4,0.2-0.8,0.2-1.4v-1.2h-0.1
		c-0.3,0.5-0.7,0.8-1.2,1.1c-0.5,0.3-1.2,0.4-1.9,0.4c-1.6,0-2.8-0.4-3.5-1.3c-0.7-0.9-1.1-2.3-1.1-4.1c0-1.8,0.5-3.1,1.4-4.1
		s2.4-1.4,4.2-1.4c0.9,0,1.6,0.1,2.2,0.2c0.6,0.1,1.2,0.3,1.7,0.5V266z M703.3,264.3c0.8,0,1.5-0.2,2-0.7c0.5-0.4,0.8-1.1,1-2v-5
		c-0.6-0.3-1.5-0.4-2.6-0.4c-1.1,0-2,0.3-2.6,1s-1,1.7-1,3c0,0.6,0.1,1.2,0.2,1.6c0.1,0.5,0.3,0.9,0.5,1.3c0.2,0.4,0.6,0.6,1,0.9
		C702.2,264.2,702.7,264.3,703.3,264.3z"/>
	<path d="M664.7,301v-12.2h1.6v10.6h5.5v1.6H664.7z"/>
	<path d="M695.4,308c0,0.7-0.1,1.2-0.4,1.7s-0.6,0.9-1,1.2c-0.4,0.3-1,0.6-1.5,0.7c-0.6,0.2-1.2,0.2-1.9,0.2c-0.8,0-1.5-0.1-2.2-0.3
		c-0.6-0.2-1.1-0.4-1.6-0.7l0.8-1.5c0.1,0.1,0.3,0.2,0.5,0.3c0.2,0.1,0.4,0.2,0.7,0.3c0.3,0.1,0.5,0.2,0.8,0.2
		c0.3,0.1,0.6,0.1,0.9,0.1c0.6,0,1.1-0.1,1.5-0.2c0.4-0.1,0.7-0.3,1-0.5c0.3-0.2,0.4-0.5,0.5-0.9c0.1-0.4,0.2-0.8,0.2-1.4v-1.2h-0.1
		c-0.3,0.5-0.7,0.8-1.2,1.1c-0.5,0.3-1.2,0.4-1.9,0.4c-1.6,0-2.8-0.4-3.5-1.3c-0.7-0.9-1.1-2.3-1.1-4.1c0-1.8,0.5-3.1,1.4-4.1
		s2.4-1.4,4.2-1.4c0.9,0,1.6,0.1,2.2,0.2c0.6,0.1,1.2,0.3,1.7,0.5V308z M690.7,306.3c0.8,0,1.5-0.2,2-0.7c0.5-0.4,0.8-1.1,1-2v-5
		c-0.6-0.3-1.5-0.4-2.6-0.4c-1.1,0-2,0.3-2.6,1s-1,1.7-1,3c0,0.6,0.1,1.2,0.2,1.6c0.1,0.5,0.3,0.9,0.5,1.3c0.2,0.4,0.6,0.6,1,0.9
		C689.6,306.2,690.1,306.3,690.7,306.3z"/>
	<path d="M698.4,307.4V306h2.8v-7.7h-2.8v-1.4h3.9l0.3,1.4h0.1c0.5-0.4,1-0.8,1.6-1.1c0.6-0.3,1.3-0.5,2.1-0.5
		c0.5,0,0.9,0.1,1.1,0.3c0.3,0.2,0.5,0.4,0.7,0.8c0.2,0.4,0.3,0.8,0.3,1.3c0.1,0.5,0.1,1.1,0.1,1.7l-1.5,0c0-0.9-0.1-1.5-0.3-2
		c-0.2-0.4-0.5-0.6-1-0.6c-0.4,0-0.8,0.1-1.2,0.2c-0.4,0.1-0.7,0.3-0.9,0.5c-0.3,0.2-0.5,0.4-0.7,0.5c-0.2,0.2-0.3,0.3-0.4,0.5v6.2
		h4v1.4H698.4z"/>
	<path d="M717.2,296.9h3v7.2c0,0.7,0,1.3,0.1,2h1.4v1.4h-2.8l-0.1-1.8h-0.1c-0.4,0.6-0.8,1.1-1.4,1.5c-0.6,0.4-1.3,0.6-2.2,0.6
		c-0.6,0-1.2-0.1-1.6-0.2c-0.5-0.1-0.8-0.4-1.1-0.8s-0.5-0.9-0.6-1.5c-0.1-0.6-0.2-1.4-0.2-2.3v-4.6h-1.4v-1.4h3.1v5.7
		c0,0.6,0,1.1,0.1,1.5c0,0.5,0.1,0.8,0.3,1.2s0.4,0.6,0.7,0.7c0.3,0.2,0.7,0.2,1.2,0.2c0.7,0,1.4-0.2,1.9-0.7
		c0.5-0.5,0.9-1.1,1.2-1.8v-5.4h-1.3V296.9z"/>
	<path d="M724.1,300.6c0-0.1,0-0.3,0-0.5c0-0.2,0-0.4,0-0.6c0-0.2,0-0.4-0.1-0.6c0-0.2,0-0.4-0.1-0.5h-1.4v-1.4h2.8l0.2,1.7h0.1
		c0.1-0.2,0.3-0.5,0.6-0.7c0.2-0.2,0.5-0.4,0.8-0.6s0.7-0.3,1-0.5c0.4-0.1,0.8-0.2,1.2-0.2c0.6,0,1.2,0.1,1.7,0.2
		c0.5,0.1,0.9,0.4,1.2,0.7s0.6,0.8,0.7,1.4c0.2,0.6,0.3,1.4,0.3,2.3v6h-1.7v-5.7c0-1.2-0.2-2-0.6-2.6c-0.4-0.6-1.1-0.9-2.1-0.9
		c-0.4,0-0.7,0.1-1.1,0.2c-0.3,0.1-0.7,0.3-0.9,0.6c-0.3,0.2-0.5,0.5-0.7,0.8c-0.2,0.3-0.4,0.6-0.5,1v6.6h-1.6V300.6z"/>
	<path d="M735.4,296.9h2.5v-2.1l1.7-0.5v2.5h5.6v1.4h-5.6v5c0,1,0.2,1.8,0.7,2.3c0.5,0.5,1.2,0.7,2.1,0.7c0.6,0,1.2-0.1,1.6-0.4
		c0.5-0.2,0.9-0.5,1.3-0.8l0.5,1.2c-0.5,0.4-1.1,0.7-1.8,0.9s-1.4,0.4-2.1,0.4c-0.6,0-1.1-0.1-1.6-0.2c-0.5-0.2-0.9-0.4-1.3-0.7
		s-0.7-0.8-0.9-1.3c-0.2-0.5-0.3-1.2-0.3-1.9v-5.2h-2.5V296.9z"/>
	<path d="M749.6,307.4V306h3.7v-7.7h-3.7v-1.4h5.3v9.1h3.6v1.4H749.6z M752.7,294c0-0.4,0.1-0.7,0.4-1s0.6-0.4,1-0.4
		c0.4,0,0.7,0.1,1,0.4s0.4,0.6,0.4,1c0,0.4-0.1,0.7-0.4,0.9s-0.6,0.4-1,0.4c-0.4,0-0.7-0.1-1-0.4S752.7,294.3,752.7,294z"/>
	<path d="M769.2,298.6c-0.3-0.1-0.7-0.2-1-0.3c-0.4-0.1-0.7-0.1-1.1-0.1c-1.4,0-2.4,0.3-3.1,1c-0.7,0.6-1,1.7-1,3.1
		c0,0.6,0.1,1.2,0.3,1.7s0.5,0.9,0.8,1.2c0.4,0.3,0.8,0.6,1.3,0.8c0.5,0.2,1.1,0.3,1.7,0.3c0.7,0,1.3-0.1,1.9-0.3s1.1-0.5,1.6-0.9
		l0.7,1.2c-0.2,0.2-0.4,0.3-0.7,0.5s-0.6,0.4-1,0.5c-0.4,0.2-0.8,0.3-1.3,0.4c-0.5,0.1-1,0.1-1.5,0.1c-0.9,0-1.7-0.1-2.4-0.4
		c-0.7-0.3-1.3-0.6-1.7-1.1s-0.8-1.1-1-1.7c-0.2-0.7-0.4-1.4-0.4-2.3c0-0.9,0.1-1.7,0.4-2.4c0.2-0.7,0.6-1.3,1.1-1.7
		c0.5-0.5,1-0.8,1.7-1.1s1.4-0.4,2.2-0.4c1,0,1.9,0.1,2.5,0.3c0.7,0.2,1.2,0.4,1.6,0.6l0,0.1v2.9h-1.5V298.6z"/>
	<path d="M773.8,302.2c0-1.7,0.4-3,1.3-4s2.1-1.5,3.8-1.5c0.9,0,1.6,0.1,2.3,0.4s1.2,0.7,1.6,1.2c0.4,0.5,0.7,1.1,0.9,1.7
		c0.2,0.7,0.3,1.4,0.3,2.2c0,0.8-0.1,1.6-0.3,2.3c-0.2,0.7-0.6,1.3-1,1.7c-0.4,0.5-1,0.8-1.6,1.1c-0.6,0.3-1.4,0.4-2.2,0.4
		c-0.9,0-1.6-0.1-2.3-0.4c-0.6-0.3-1.2-0.7-1.6-1.2c-0.4-0.5-0.7-1.1-0.9-1.7S773.8,303,773.8,302.2z M775.5,302.2
		c0,0.5,0.1,1,0.2,1.5c0.1,0.5,0.3,0.9,0.6,1.3c0.3,0.4,0.6,0.7,1,0.9c0.4,0.2,0.9,0.4,1.6,0.4c1.1,0,2-0.3,2.5-1
		c0.6-0.7,0.8-1.7,0.8-3.1c0-0.5-0.1-1-0.2-1.5c-0.1-0.5-0.3-0.9-0.6-1.3c-0.3-0.4-0.6-0.7-1-0.9c-0.4-0.2-0.9-0.4-1.6-0.4
		c-1.1,0-2,0.3-2.5,1C775.8,299.8,775.5,300.8,775.5,302.2z"/>
	<path d="M787.1,300.6c0-0.1,0-0.3,0-0.5c0-0.2,0-0.4,0-0.6c0-0.2,0-0.4-0.1-0.6c0-0.2,0-0.4-0.1-0.5h-1.4v-1.4h2.8l0.2,1.7h0.1
		c0.1-0.2,0.3-0.5,0.6-0.7c0.2-0.2,0.5-0.4,0.8-0.6s0.7-0.3,1-0.5c0.4-0.1,0.8-0.2,1.2-0.2c0.6,0,1.2,0.1,1.7,0.2
		c0.5,0.1,0.9,0.4,1.2,0.7s0.6,0.8,0.7,1.4c0.2,0.6,0.3,1.4,0.3,2.3v6h-1.7v-5.7c0-1.2-0.2-2-0.6-2.6c-0.4-0.6-1.1-0.9-2.1-0.9
		c-0.4,0-0.7,0.1-1.1,0.2c-0.3,0.1-0.7,0.3-0.9,0.6c-0.3,0.2-0.5,0.5-0.7,0.8c-0.2,0.3-0.4,0.6-0.5,1v6.6h-1.6V300.6z"/>
	<path d="M802.7,306.3c0-0.4,0.1-0.8,0.4-1s0.6-0.4,1-0.4c0.4,0,0.8,0.1,1.1,0.4s0.4,0.6,0.4,1c0,0.4-0.1,0.7-0.4,1
		s-0.6,0.4-1.1,0.4c-0.4,0-0.8-0.1-1-0.4S802.7,306.7,802.7,306.3z"/>
	<path d="M812.9,292.7h3.5v11.2c0,0.9,0.1,1.5,0.4,1.8c0.3,0.4,0.7,0.5,1.3,0.5c0.4,0,0.8-0.1,1.1-0.2c0.4-0.1,0.8-0.4,1.2-0.7
		l0.8,1.2c-0.2,0.2-0.5,0.4-0.7,0.5c-0.3,0.2-0.5,0.3-0.8,0.4c-0.3,0.1-0.6,0.2-0.8,0.2c-0.3,0.1-0.5,0.1-0.8,0.1
		c-0.5,0-1-0.1-1.4-0.2c-0.4-0.1-0.7-0.3-1-0.6c-0.3-0.3-0.5-0.7-0.6-1.2s-0.2-1.1-0.2-1.8v-9.8h-1.8V292.7z"/>
	<path d="M824.2,302.2c0-1.7,0.4-3,1.3-4s2.1-1.5,3.8-1.5c0.9,0,1.6,0.1,2.3,0.4c0.6,0.3,1.2,0.7,1.6,1.2c0.4,0.5,0.7,1.1,0.9,1.7
		s0.3,1.4,0.3,2.2c0,0.8-0.1,1.6-0.3,2.3c-0.2,0.7-0.6,1.3-1,1.7s-1,0.8-1.6,1.1c-0.6,0.3-1.4,0.4-2.2,0.4c-0.9,0-1.6-0.1-2.3-0.4
		c-0.6-0.3-1.2-0.7-1.6-1.2c-0.4-0.5-0.7-1.1-0.9-1.7C824.3,303.7,824.2,303,824.2,302.2z M825.9,302.2c0,0.5,0.1,1,0.2,1.5
		s0.3,0.9,0.6,1.3c0.3,0.4,0.6,0.7,1,0.9c0.4,0.2,0.9,0.4,1.6,0.4c1.1,0,2-0.3,2.5-1c0.6-0.7,0.8-1.7,0.8-3.1c0-0.5-0.1-1-0.2-1.5
		c-0.1-0.5-0.3-0.9-0.6-1.3c-0.3-0.4-0.6-0.7-1-0.9c-0.4-0.2-0.9-0.4-1.6-0.4c-1.1,0-2,0.3-2.5,1S825.9,300.8,825.9,302.2z"/>
	<path d="M837.9,297.8c0.6-0.3,1.3-0.6,2-0.8c0.8-0.2,1.5-0.2,2.2-0.2c0.7,0,1.3,0.1,1.8,0.3c0.5,0.2,0.8,0.5,1.1,0.9
		c0.3,0.4,0.4,0.8,0.5,1.2c0.1,0.5,0.1,0.9,0.1,1.4c0,0.5,0,1.1,0,1.7c0,0.6,0,1.2-0.1,1.8c0,0.7,0,1.4,0.1,2h1.4v1.4h-2.8l-0.2-1.6
		H844c-0.1,0.1-0.2,0.3-0.4,0.5c-0.2,0.2-0.4,0.4-0.7,0.6c-0.3,0.2-0.6,0.4-1,0.5c-0.4,0.1-0.9,0.2-1.4,0.2c-1,0-1.9-0.3-2.5-0.8
		s-0.9-1.3-0.9-2.2c0-0.7,0.2-1.3,0.5-1.8c0.3-0.5,0.8-0.8,1.4-1.1s1.3-0.4,2.1-0.4c0.8,0,1.8,0,2.8,0.2c0.1-0.6,0.1-1.2,0-1.6
		c0-0.4-0.2-0.8-0.3-1c-0.2-0.3-0.4-0.4-0.7-0.5s-0.7-0.2-1.2-0.2c-0.6,0-1.2,0.1-1.8,0.3c-0.6,0.2-1.1,0.4-1.5,0.5L837.9,297.8z
		 M841,306.2c0.4,0,0.8-0.1,1.1-0.2c0.3-0.1,0.6-0.3,0.9-0.5c0.3-0.2,0.5-0.4,0.6-0.6c0.2-0.2,0.3-0.5,0.4-0.7v-1.5
		c-0.7-0.1-1.4-0.2-2-0.2s-1.1,0.1-1.6,0.2c-0.4,0.1-0.8,0.3-1.1,0.6c-0.3,0.3-0.4,0.6-0.4,1.1c0,0.5,0.2,0.9,0.5,1.2
		C839.7,306.1,840.2,306.2,841,306.2z"/>
	<path d="M855.5,292.7h3.4v11.1c0,0.1,0,0.3,0,0.5c0,0.2,0,0.4,0.1,0.6c0,0.2,0,0.4,0.1,0.6c0,0.2,0.1,0.4,0.1,0.5h1.4v1.4h-2.8
		l-0.2-1.6h-0.1c-0.3,0.5-0.8,1-1.4,1.3c-0.6,0.4-1.3,0.5-2.1,0.5c-1.6,0-2.7-0.4-3.5-1.3c-0.7-0.9-1.1-2.3-1.1-4.1
		c0-0.9,0.1-1.7,0.4-2.3s0.6-1.2,1.1-1.7c0.5-0.5,1-0.8,1.7-1c0.7-0.2,1.4-0.4,2.2-0.4c0.3,0,0.6,0,0.8,0c0.2,0,0.4,0,0.6,0.1
		c0.2,0,0.4,0.1,0.6,0.1c0.2,0,0.4,0.1,0.6,0.2v-3h-1.8V292.7z M854.2,306.3c0.9,0,1.5-0.2,2-0.7s0.8-1.1,1-2v-4.9
		c-0.3-0.2-0.7-0.4-1-0.5c-0.4-0.1-0.9-0.1-1.5-0.1c-1.1,0-2,0.3-2.6,1c-0.6,0.7-1,1.7-1,3.1c0,0.6,0.1,1.1,0.2,1.6
		c0.1,0.5,0.3,0.9,0.5,1.3c0.2,0.4,0.6,0.7,1,0.9C853.2,306.2,853.7,306.3,854.2,306.3z"/>
	<path d="M871.9,306.1c-0.3,0.2-0.5,0.4-0.9,0.6c-0.3,0.2-0.7,0.4-1.1,0.5c-0.4,0.1-0.8,0.2-1.3,0.3c-0.4,0.1-0.9,0.1-1.3,0.1
		c-0.8,0-1.6-0.1-2.2-0.4c-0.6-0.3-1.2-0.6-1.6-1.1c-0.4-0.5-0.8-1.1-1-1.7s-0.3-1.4-0.3-2.3c0-0.9,0.1-1.7,0.4-2.4
		c0.2-0.7,0.6-1.3,1.1-1.7c0.5-0.5,1-0.8,1.7-1.1c0.7-0.2,1.4-0.4,2.2-0.4c0.6,0,1.2,0.1,1.7,0.2c0.6,0.2,1.1,0.4,1.5,0.9
		c0.4,0.4,0.8,1,1,1.8c0.2,0.7,0.3,1.7,0.3,2.9h-8.1c0,1.3,0.3,2.2,1,2.8c0.7,0.6,1.6,0.9,2.7,0.9c0.4,0,0.8,0,1.1-0.1
		c0.4-0.1,0.7-0.2,1.1-0.3s0.6-0.3,0.9-0.4c0.3-0.2,0.5-0.3,0.6-0.4L871.9,306.1z M867.5,298.1c-0.5,0-0.9,0-1.3,0.1
		c-0.4,0.1-0.8,0.3-1.1,0.5c-0.3,0.2-0.6,0.5-0.8,0.9s-0.3,0.8-0.4,1.4h6.5c-0.1-0.9-0.4-1.6-0.9-2.2
		C869,298.3,868.3,298.1,867.5,298.1z"/>
	<path d="M874.8,307.4V306h2.8v-7.7h-2.8v-1.4h3.9l0.3,1.4h0.1c0.5-0.4,1-0.8,1.6-1.1c0.6-0.3,1.3-0.5,2.1-0.5
		c0.5,0,0.9,0.1,1.1,0.3c0.3,0.2,0.5,0.4,0.7,0.8c0.2,0.4,0.3,0.8,0.3,1.3c0.1,0.5,0.1,1.1,0.1,1.7l-1.5,0c0-0.9-0.1-1.5-0.3-2
		c-0.2-0.4-0.5-0.6-1-0.6c-0.4,0-0.8,0.1-1.2,0.2c-0.4,0.1-0.7,0.3-0.9,0.5c-0.3,0.2-0.5,0.4-0.7,0.5c-0.2,0.2-0.3,0.3-0.4,0.5v6.2
		h4v1.4H874.8z"/>
	<path d="M890.9,306.3c0-0.4,0.1-0.8,0.4-1s0.6-0.4,1-0.4c0.4,0,0.8,0.1,1,0.4s0.4,0.6,0.4,1c0,0.4-0.1,0.7-0.4,1s-0.6,0.4-1,0.4
		c-0.4,0-0.8-0.1-1-0.4S890.9,306.7,890.9,306.3z"/>
	<path d="M905.7,298.4h-5.1v-1.4h6.8v10.8c0,1.4-0.4,2.5-1.1,3.2c-0.7,0.7-1.7,1-3,1c-0.4,0-0.7,0-1.1-0.1c-0.4-0.1-0.7-0.2-1-0.3
		c-0.3-0.1-0.6-0.3-0.8-0.4c-0.2-0.1-0.4-0.3-0.5-0.3l0.7-1.4c0.4,0.3,0.8,0.5,1.3,0.7c0.5,0.2,1,0.3,1.5,0.3c0.8,0,1.4-0.3,1.8-0.8
		c0.4-0.5,0.5-1.2,0.5-2.2V298.4z M904.8,294c0-0.4,0.1-0.7,0.4-1s0.6-0.4,1-0.4c0.4,0,0.7,0.1,1,0.4c0.3,0.3,0.4,0.6,0.4,1
		c0,0.4-0.1,0.7-0.4,0.9c-0.3,0.3-0.6,0.4-1,0.4c-0.4,0-0.7-0.1-1-0.4S904.8,294.3,904.8,294z"/>
	<path d="M920.4,304.6c0-0.4-0.2-0.8-0.5-1c-0.3-0.2-0.8-0.4-1.3-0.6s-1.1-0.3-1.7-0.4c-0.6-0.1-1.2-0.3-1.7-0.5s-0.9-0.5-1.3-0.9
		c-0.3-0.4-0.5-0.9-0.5-1.5c0-0.5,0.1-1,0.3-1.4c0.2-0.4,0.5-0.7,0.9-0.9s0.8-0.4,1.3-0.5c0.5-0.1,1-0.2,1.6-0.2
		c1,0,1.8,0.1,2.5,0.4c0.7,0.2,1.3,0.5,1.7,0.8l-0.7,1.3c-0.5-0.3-1-0.5-1.5-0.7c-0.5-0.2-1.2-0.3-2-0.3c-0.3,0-0.6,0-0.9,0.1
		s-0.6,0.2-0.8,0.3s-0.4,0.3-0.6,0.5c-0.1,0.2-0.2,0.5-0.2,0.7c0,0.4,0.2,0.6,0.5,0.8c0.3,0.2,0.8,0.4,1.3,0.5
		c0.5,0.1,1.1,0.3,1.7,0.4c0.6,0.1,1.2,0.3,1.7,0.5c0.5,0.2,0.9,0.5,1.3,0.9c0.3,0.4,0.5,0.9,0.5,1.5c0,1-0.4,1.8-1.1,2.4
		c-0.8,0.6-1.9,0.9-3.4,0.9c-0.5,0-0.9,0-1.4-0.1s-0.9-0.2-1.3-0.3c-0.4-0.1-0.7-0.3-1.1-0.5c-0.3-0.2-0.6-0.4-0.8-0.5l0.8-1.4
		c0.2,0.2,0.4,0.3,0.7,0.5c0.3,0.2,0.6,0.3,0.9,0.5c0.3,0.1,0.7,0.3,1.1,0.3c0.4,0.1,0.8,0.1,1.2,0.1c0.4,0,0.7,0,1.1-0.1
		s0.6-0.2,0.9-0.3c0.3-0.1,0.5-0.3,0.6-0.5C920.3,305.2,920.4,304.9,920.4,304.6z"/>
	<path d="M664.7,343v-12.2h1.6v10.6h5.5v1.6H664.7z"/>
	<path d="M686.6,349.4V348h3.7v-7.7h-3.7v-1.4h5.3v9.1h3.6v1.4H686.6z M689.7,336c0-0.4,0.1-0.7,0.4-1s0.6-0.4,1-0.4
		c0.4,0,0.7,0.1,1,0.4s0.4,0.6,0.4,1c0,0.4-0.1,0.7-0.4,0.9s-0.6,0.4-1,0.4c-0.4,0-0.7-0.1-1-0.4S689.7,336.3,689.7,336z"/>
	<path d="M706.2,340.6c-0.3-0.1-0.7-0.2-1-0.3c-0.4-0.1-0.7-0.1-1.1-0.1c-1.4,0-2.4,0.3-3.1,1c-0.7,0.6-1,1.7-1,3.1
		c0,0.6,0.1,1.2,0.3,1.7s0.5,0.9,0.8,1.2c0.4,0.3,0.8,0.6,1.3,0.8c0.5,0.2,1.1,0.3,1.7,0.3c0.7,0,1.3-0.1,1.9-0.3s1.1-0.5,1.6-0.9
		l0.7,1.2c-0.2,0.2-0.4,0.3-0.7,0.5s-0.6,0.4-1,0.5c-0.4,0.2-0.8,0.3-1.3,0.4c-0.5,0.1-1,0.1-1.5,0.1c-0.9,0-1.7-0.1-2.4-0.4
		c-0.7-0.3-1.3-0.6-1.7-1.1s-0.8-1.1-1-1.7c-0.2-0.7-0.4-1.4-0.4-2.3c0-0.9,0.1-1.7,0.4-2.4c0.2-0.7,0.6-1.3,1.1-1.7
		c0.5-0.5,1-0.8,1.7-1.1s1.4-0.4,2.2-0.4c1,0,1.9,0.1,2.5,0.3c0.7,0.2,1.2,0.4,1.6,0.6l0,0.1v2.9h-1.5V340.6z"/>
	<path d="M710.8,344.2c0-1.7,0.4-3,1.3-4s2.1-1.5,3.8-1.5c0.9,0,1.6,0.1,2.3,0.4s1.2,0.7,1.6,1.2c0.4,0.5,0.7,1.1,0.9,1.7
		c0.2,0.7,0.3,1.4,0.3,2.2c0,0.8-0.1,1.6-0.3,2.3c-0.2,0.7-0.6,1.3-1,1.7c-0.4,0.5-1,0.8-1.6,1.1c-0.6,0.3-1.4,0.4-2.2,0.4
		c-0.9,0-1.6-0.1-2.3-0.4c-0.6-0.3-1.2-0.7-1.6-1.2c-0.4-0.5-0.7-1.1-0.9-1.7S710.8,345,710.8,344.2z M712.5,344.2
		c0,0.5,0.1,1,0.2,1.5c0.1,0.5,0.3,0.9,0.6,1.3c0.3,0.4,0.6,0.7,1,0.9c0.4,0.2,0.9,0.4,1.6,0.4c1.1,0,2-0.3,2.5-1
		c0.6-0.7,0.8-1.7,0.8-3.1c0-0.5-0.1-1-0.2-1.5c-0.1-0.5-0.3-0.9-0.6-1.3c-0.3-0.4-0.6-0.7-1-0.9c-0.4-0.2-0.9-0.4-1.6-0.4
		c-1.1,0-2,0.3-2.5,1C712.8,341.8,712.5,342.8,712.5,344.2z"/>
	<path d="M724.1,342.6c0-0.1,0-0.3,0-0.5c0-0.2,0-0.4,0-0.6c0-0.2,0-0.4-0.1-0.6c0-0.2,0-0.4-0.1-0.5h-1.4v-1.4h2.8l0.2,1.7h0.1
		c0.1-0.2,0.3-0.5,0.6-0.7c0.2-0.2,0.5-0.4,0.8-0.6s0.7-0.3,1-0.5c0.4-0.1,0.8-0.2,1.2-0.2c0.6,0,1.2,0.1,1.7,0.2
		c0.5,0.1,0.9,0.4,1.2,0.7s0.6,0.8,0.7,1.4c0.2,0.6,0.3,1.4,0.3,2.3v6h-1.7v-5.7c0-1.2-0.2-2-0.6-2.6c-0.4-0.6-1.1-0.9-2.1-0.9
		c-0.4,0-0.7,0.1-1.1,0.2c-0.3,0.1-0.7,0.3-0.9,0.6c-0.3,0.2-0.5,0.5-0.7,0.8c-0.2,0.3-0.4,0.6-0.5,1v6.6h-1.6V342.6z"/>
	<path d="M744,346.6c0-0.4-0.2-0.8-0.5-1c-0.3-0.2-0.8-0.4-1.3-0.6s-1.1-0.3-1.7-0.4c-0.6-0.1-1.2-0.3-1.7-0.5s-0.9-0.5-1.3-0.9
		c-0.3-0.4-0.5-0.9-0.5-1.5c0-0.5,0.1-1,0.3-1.4c0.2-0.4,0.5-0.7,0.9-0.9s0.8-0.4,1.3-0.5c0.5-0.1,1-0.2,1.6-0.2
		c1,0,1.8,0.1,2.5,0.4c0.7,0.2,1.3,0.5,1.7,0.8l-0.7,1.3c-0.5-0.3-1-0.5-1.5-0.7c-0.5-0.2-1.2-0.3-2-0.3c-0.3,0-0.6,0-0.9,0.1
		s-0.6,0.2-0.8,0.3s-0.4,0.3-0.6,0.5c-0.1,0.2-0.2,0.5-0.2,0.7c0,0.4,0.2,0.6,0.5,0.8c0.3,0.2,0.8,0.4,1.3,0.5
		c0.5,0.1,1.1,0.3,1.7,0.4c0.6,0.1,1.2,0.3,1.7,0.5c0.5,0.2,0.9,0.5,1.3,0.9c0.3,0.4,0.5,0.9,0.5,1.5c0,1-0.4,1.8-1.1,2.4
		c-0.8,0.6-1.9,0.9-3.4,0.9c-0.5,0-0.9,0-1.4-0.1s-0.9-0.2-1.3-0.3c-0.4-0.1-0.7-0.3-1.1-0.5c-0.3-0.2-0.6-0.4-0.8-0.5l0.8-1.4
		c0.2,0.2,0.4,0.3,0.7,0.5c0.3,0.2,0.6,0.3,0.9,0.5c0.3,0.1,0.7,0.3,1.1,0.3c0.4,0.1,0.8,0.1,1.2,0.1c0.4,0,0.7,0,1.1-0.1
		s0.6-0.2,0.9-0.3c0.3-0.1,0.5-0.3,0.6-0.5C743.9,347.2,744,346.9,744,346.6z"/>
	<path d="M752.3,348.3c0-0.4,0.1-0.8,0.4-1s0.6-0.4,1-0.4c0.4,0,0.8,0.1,1,0.4s0.4,0.6,0.4,1c0,0.4-0.1,0.7-0.4,1s-0.6,0.4-1,0.4
		c-0.4,0-0.8-0.1-1-0.4S752.3,348.7,752.3,348.3z"/>
	<path d="M767.3,334.7h3.4v11.1c0,0.1,0,0.3,0,0.5s0,0.4,0.1,0.6c0,0.2,0,0.4,0.1,0.6s0.1,0.4,0.1,0.5h1.4v1.4h-2.8l-0.2-1.6h-0.1
		c-0.3,0.5-0.8,1-1.4,1.3c-0.6,0.4-1.3,0.5-2.1,0.5c-1.6,0-2.7-0.4-3.5-1.3c-0.7-0.9-1.1-2.3-1.1-4.1c0-0.9,0.1-1.7,0.4-2.3
		c0.3-0.7,0.6-1.2,1.1-1.7c0.5-0.5,1-0.8,1.7-1c0.7-0.2,1.4-0.4,2.2-0.4c0.3,0,0.6,0,0.8,0c0.2,0,0.4,0,0.6,0.1
		c0.2,0,0.4,0.1,0.6,0.1c0.2,0,0.4,0.1,0.6,0.2v-3h-1.8V334.7z M766,348.3c0.9,0,1.5-0.2,2-0.7s0.8-1.1,1-2v-4.9
		c-0.3-0.2-0.7-0.4-1-0.5c-0.4-0.1-0.9-0.1-1.5-0.1c-1.1,0-2,0.3-2.6,1c-0.6,0.7-1,1.7-1,3.1c0,0.6,0.1,1.1,0.2,1.6
		c0.1,0.5,0.3,0.9,0.5,1.3c0.2,0.4,0.6,0.7,1,0.9C765,348.2,765.5,348.3,766,348.3z"/>
	<path d="M774.9,339.8c0.6-0.3,1.3-0.6,2-0.8c0.8-0.2,1.5-0.2,2.2-0.2c0.7,0,1.3,0.1,1.8,0.3c0.5,0.2,0.8,0.5,1.1,0.9
		c0.3,0.4,0.4,0.8,0.5,1.2c0.1,0.5,0.1,0.9,0.1,1.4c0,0.5,0,1.1,0,1.7c0,0.6,0,1.2-0.1,1.8c0,0.7,0,1.4,0.1,2h1.4v1.4h-2.8l-0.2-1.6
		H781c-0.1,0.1-0.2,0.3-0.4,0.5c-0.2,0.2-0.4,0.4-0.7,0.6c-0.3,0.2-0.6,0.4-1,0.5c-0.4,0.1-0.9,0.2-1.4,0.2c-1,0-1.9-0.3-2.5-0.8
		s-0.9-1.3-0.9-2.2c0-0.7,0.2-1.3,0.5-1.8c0.3-0.5,0.8-0.8,1.4-1.1s1.3-0.4,2.1-0.4c0.8,0,1.8,0,2.8,0.2c0.1-0.6,0.1-1.2,0-1.6
		c0-0.4-0.2-0.8-0.3-1c-0.2-0.3-0.4-0.4-0.7-0.5s-0.7-0.2-1.2-0.2c-0.6,0-1.2,0.1-1.8,0.3c-0.6,0.2-1.1,0.4-1.5,0.5L774.9,339.8z
		 M778,348.2c0.4,0,0.8-0.1,1.1-0.2c0.3-0.1,0.6-0.3,0.9-0.5c0.3-0.2,0.5-0.4,0.6-0.6c0.2-0.2,0.3-0.5,0.4-0.7v-1.5
		c-0.7-0.1-1.4-0.2-2-0.2s-1.1,0.1-1.6,0.2c-0.4,0.1-0.8,0.3-1.1,0.6c-0.3,0.3-0.4,0.6-0.4,1.1c0,0.5,0.2,0.9,0.5,1.2
		C776.7,348.1,777.2,348.2,778,348.2z"/>
	<path d="M785.8,338.9h2.5v-2.1l1.7-0.5v2.5h5.6v1.4H790v5c0,1,0.2,1.8,0.7,2.3c0.5,0.5,1.2,0.7,2.1,0.7c0.6,0,1.2-0.1,1.6-0.4
		c0.5-0.2,0.9-0.5,1.3-0.8l0.5,1.2c-0.5,0.4-1.1,0.7-1.8,0.9s-1.4,0.4-2.1,0.4c-0.6,0-1.1-0.1-1.6-0.2c-0.5-0.2-0.9-0.4-1.3-0.7
		s-0.7-0.8-0.9-1.3c-0.2-0.5-0.3-1.2-0.3-1.9v-5.2h-2.5V338.9z"/>
	<path d="M800.1,339.8c0.6-0.3,1.3-0.6,2-0.8c0.8-0.2,1.5-0.2,2.2-0.2c0.7,0,1.3,0.1,1.8,0.3c0.5,0.2,0.8,0.5,1.1,0.9
		c0.3,0.4,0.4,0.8,0.5,1.2c0.1,0.5,0.1,0.9,0.1,1.4c0,0.5,0,1.1,0,1.7c0,0.6,0,1.2-0.1,1.8c0,0.7,0,1.4,0.1,2h1.4v1.4h-2.8l-0.2-1.6
		h-0.1c-0.1,0.1-0.2,0.3-0.4,0.5c-0.2,0.2-0.4,0.4-0.7,0.6c-0.3,0.2-0.6,0.4-1,0.5c-0.4,0.1-0.9,0.2-1.4,0.2c-1,0-1.9-0.3-2.5-0.8
		s-0.9-1.3-0.9-2.2c0-0.7,0.2-1.3,0.5-1.8c0.3-0.5,0.8-0.8,1.4-1.1s1.3-0.4,2.1-0.4c0.8,0,1.8,0,2.8,0.2c0.1-0.6,0.1-1.2,0-1.6
		c0-0.4-0.2-0.8-0.3-1c-0.2-0.3-0.4-0.4-0.7-0.5s-0.7-0.2-1.2-0.2c-0.6,0-1.2,0.1-1.8,0.3c-0.6,0.2-1.1,0.4-1.5,0.5L800.1,339.8z
		 M803.2,348.2c0.4,0,0.8-0.1,1.1-0.2c0.3-0.1,0.6-0.3,0.9-0.5c0.3-0.2,0.5-0.4,0.6-0.6c0.2-0.2,0.3-0.5,0.4-0.7v-1.5
		c-0.7-0.1-1.4-0.2-2-0.2s-1.1,0.1-1.6,0.2c-0.4,0.1-0.8,0.3-1.1,0.6c-0.3,0.3-0.4,0.6-0.4,1.1c0,0.5,0.2,0.9,0.5,1.2
		C801.9,348.1,802.4,348.2,803.2,348.2z"/>
	<path d="M815.3,348.3c0-0.4,0.1-0.8,0.4-1s0.6-0.4,1-0.4c0.4,0,0.8,0.1,1,0.4s0.4,0.6,0.4,1c0,0.4-0.1,0.7-0.4,1s-0.6,0.4-1,0.4
		c-0.4,0-0.8-0.1-1-0.4S815.3,348.7,815.3,348.3z"/>
	<path d="M825,342.6c0-0.1,0-0.3,0-0.5c0-0.2,0-0.4,0-0.6c0-0.2,0-0.4-0.1-0.6c0-0.2,0-0.4-0.1-0.5h-1.4v-1.4h2.8l0.2,1.5h0.1
		c0.4-0.5,0.9-0.9,1.4-1.2s1.3-0.5,2.1-0.5c1.5,0,2.6,0.4,3.4,1.2c0.8,0.8,1.1,2.2,1.1,4.1c0,0.9-0.1,1.7-0.4,2.4
		c-0.3,0.7-0.6,1.3-1.1,1.8c-0.5,0.5-1.1,0.9-1.7,1.1s-1.4,0.4-2.2,0.4c-0.3,0-0.6,0-0.8,0c-0.2,0-0.4,0-0.6-0.1
		c-0.2,0-0.4-0.1-0.6-0.1c-0.2-0.1-0.4-0.1-0.6-0.2v4.4H825V342.6z M829.8,340.2c-0.4,0-0.8,0.1-1.2,0.2c-0.4,0.2-0.7,0.4-1,0.6
		s-0.5,0.5-0.7,0.8c-0.2,0.3-0.3,0.6-0.3,0.9v4.8c0.3,0.2,0.7,0.4,1,0.5c0.4,0.1,0.9,0.2,1.5,0.2c1.1,0,2-0.4,2.7-1.1
		c0.7-0.7,1-1.8,1-3.2c0-1.2-0.2-2.1-0.7-2.8C831.7,340.6,830.9,340.2,829.8,340.2z"/>
	<path d="M837.5,342.6c0-0.1,0-0.3,0-0.5c0-0.2,0-0.4,0-0.6c0-0.2,0-0.4-0.1-0.6c0-0.2,0-0.4-0.1-0.5H836v-1.4h2.8l0.2,1.7h0.1
		c0.1-0.2,0.3-0.5,0.6-0.7c0.2-0.2,0.5-0.4,0.8-0.6s0.7-0.3,1-0.5c0.4-0.1,0.8-0.2,1.2-0.2c0.6,0,1.2,0.1,1.7,0.2
		c0.5,0.1,0.9,0.4,1.2,0.7s0.6,0.8,0.7,1.4c0.2,0.6,0.3,1.4,0.3,2.3v6H845v-5.7c0-1.2-0.2-2-0.6-2.6c-0.4-0.6-1.1-0.9-2.1-0.9
		c-0.4,0-0.7,0.1-1.1,0.2c-0.3,0.1-0.7,0.3-0.9,0.6c-0.3,0.2-0.5,0.5-0.7,0.8c-0.2,0.3-0.4,0.6-0.5,1v6.6h-1.6V342.6z"/>
	<path d="M859.2,350c0,0.7-0.1,1.2-0.4,1.7s-0.6,0.9-1,1.2c-0.4,0.3-1,0.6-1.5,0.7c-0.6,0.2-1.2,0.2-1.9,0.2c-0.8,0-1.5-0.1-2.2-0.3
		s-1.1-0.4-1.6-0.7l0.8-1.5c0.1,0.1,0.3,0.2,0.5,0.3s0.4,0.2,0.7,0.3c0.3,0.1,0.5,0.2,0.8,0.2c0.3,0.1,0.6,0.1,0.9,0.1
		c0.6,0,1.1-0.1,1.5-0.2c0.4-0.1,0.7-0.3,1-0.5c0.3-0.2,0.4-0.5,0.5-0.9c0.1-0.4,0.2-0.8,0.2-1.4v-1.2h-0.1
		c-0.3,0.5-0.7,0.8-1.2,1.1s-1.2,0.4-1.9,0.4c-1.6,0-2.8-0.4-3.5-1.3c-0.7-0.9-1.1-2.3-1.1-4.1c0-1.8,0.5-3.1,1.4-4.1
		s2.4-1.4,4.2-1.4c0.9,0,1.6,0.1,2.2,0.2c0.6,0.1,1.2,0.3,1.7,0.5V350z M854.5,348.3c0.8,0,1.5-0.2,2-0.7c0.5-0.4,0.8-1.1,1-2v-5
		c-0.6-0.3-1.5-0.4-2.6-0.4c-1.1,0-2,0.3-2.6,1s-1,1.7-1,3c0,0.6,0.1,1.2,0.2,1.6c0.1,0.5,0.3,0.9,0.5,1.3c0.2,0.4,0.6,0.6,1,0.9
		C853.4,348.2,853.9,348.3,854.5,348.3z"/>
	<path d="M865.7,348.3c0-0.4,0.1-0.8,0.4-1s0.6-0.4,1-0.4c0.4,0,0.8,0.1,1,0.4s0.4,0.6,0.4,1c0,0.4-0.1,0.7-0.4,1s-0.6,0.4-1,0.4
		c-0.4,0-0.8-0.1-1-0.4S865.7,348.7,865.7,348.3z"/>
	<path d="M882.6,340.6c-0.3-0.1-0.7-0.2-1-0.3c-0.4-0.1-0.7-0.1-1.1-0.1c-1.4,0-2.4,0.3-3.1,1c-0.7,0.6-1,1.7-1,3.1
		c0,0.6,0.1,1.2,0.3,1.7s0.5,0.9,0.8,1.2c0.4,0.3,0.8,0.6,1.3,0.8c0.5,0.2,1.1,0.3,1.7,0.3c0.7,0,1.3-0.1,1.9-0.3s1.1-0.5,1.6-0.9
		l0.7,1.2c-0.2,0.2-0.4,0.3-0.7,0.5s-0.6,0.4-1,0.5c-0.4,0.2-0.8,0.3-1.3,0.4c-0.5,0.1-1,0.1-1.5,0.1c-0.9,0-1.7-0.1-2.4-0.4
		c-0.7-0.3-1.3-0.6-1.7-1.1s-0.8-1.1-1-1.7c-0.2-0.7-0.4-1.4-0.4-2.3c0-0.9,0.1-1.7,0.4-2.4c0.2-0.7,0.6-1.3,1.1-1.7
		c0.5-0.5,1-0.8,1.7-1.1s1.4-0.4,2.2-0.4c1,0,1.9,0.1,2.5,0.3c0.7,0.2,1.2,0.4,1.6,0.6l0,0.1v2.9h-1.5V340.6z"/>
	<path d="M895.2,346.6c0-0.4-0.2-0.8-0.5-1c-0.3-0.2-0.8-0.4-1.3-0.6s-1.1-0.3-1.7-0.4s-1.2-0.3-1.7-0.5s-0.9-0.5-1.3-0.9
		s-0.5-0.9-0.5-1.5c0-0.5,0.1-1,0.3-1.4c0.2-0.4,0.5-0.7,0.9-0.9s0.8-0.4,1.3-0.5c0.5-0.1,1-0.2,1.6-0.2c1,0,1.8,0.1,2.5,0.4
		s1.3,0.5,1.7,0.8l-0.7,1.3c-0.5-0.3-1-0.5-1.5-0.7c-0.5-0.2-1.2-0.3-2-0.3c-0.3,0-0.6,0-0.9,0.1s-0.6,0.2-0.8,0.3s-0.4,0.3-0.6,0.5
		c-0.1,0.2-0.2,0.5-0.2,0.7c0,0.4,0.2,0.6,0.5,0.8c0.3,0.2,0.8,0.4,1.3,0.5c0.5,0.1,1.1,0.3,1.7,0.4c0.6,0.1,1.2,0.3,1.7,0.5
		c0.5,0.2,0.9,0.5,1.3,0.9c0.3,0.4,0.5,0.9,0.5,1.5c0,1-0.4,1.8-1.1,2.4c-0.8,0.6-1.9,0.9-3.4,0.9c-0.5,0-0.9,0-1.4-0.1
		c-0.4-0.1-0.9-0.2-1.3-0.3c-0.4-0.1-0.7-0.3-1.1-0.5c-0.3-0.2-0.6-0.4-0.8-0.5l0.8-1.4c0.2,0.2,0.4,0.3,0.7,0.5
		c0.3,0.2,0.6,0.3,0.9,0.5c0.3,0.1,0.7,0.3,1.1,0.3c0.4,0.1,0.8,0.1,1.2,0.1c0.4,0,0.7,0,1.1-0.1s0.6-0.2,0.9-0.3
		c0.3-0.1,0.5-0.3,0.6-0.5C895.1,347.2,895.2,346.9,895.2,346.6z"/>
	<path d="M907.8,346.6c0-0.4-0.2-0.8-0.5-1c-0.3-0.2-0.8-0.4-1.3-0.6s-1.1-0.3-1.7-0.4c-0.6-0.1-1.2-0.3-1.7-0.5s-0.9-0.5-1.3-0.9
		c-0.3-0.4-0.5-0.9-0.5-1.5c0-0.5,0.1-1,0.3-1.4c0.2-0.4,0.5-0.7,0.9-0.9s0.8-0.4,1.3-0.5c0.5-0.1,1-0.2,1.6-0.2
		c1,0,1.8,0.1,2.5,0.4c0.7,0.2,1.3,0.5,1.7,0.8l-0.7,1.3c-0.5-0.3-1-0.5-1.5-0.7c-0.5-0.2-1.2-0.3-2-0.3c-0.3,0-0.6,0-0.9,0.1
		s-0.6,0.2-0.8,0.3s-0.4,0.3-0.6,0.5c-0.1,0.2-0.2,0.5-0.2,0.7c0,0.4,0.2,0.6,0.5,0.8c0.3,0.2,0.8,0.4,1.3,0.5
		c0.5,0.1,1.1,0.3,1.7,0.4c0.6,0.1,1.2,0.3,1.7,0.5c0.5,0.2,0.9,0.5,1.3,0.9c0.3,0.4,0.5,0.9,0.5,1.5c0,1-0.4,1.8-1.1,2.4
		c-0.8,0.6-1.9,0.9-3.4,0.9c-0.5,0-0.9,0-1.4-0.1s-0.9-0.2-1.3-0.3c-0.4-0.1-0.7-0.3-1.1-0.5c-0.3-0.2-0.6-0.4-0.8-0.5l0.8-1.4
		c0.2,0.2,0.4,0.3,0.7,0.5c0.3,0.2,0.6,0.3,0.9,0.5c0.3,0.1,0.7,0.3,1.1,0.3c0.4,0.1,0.8,0.1,1.2,0.1c0.4,0,0.7,0,1.1-0.1
		s0.6-0.2,0.9-0.3c0.3-0.1,0.5-0.3,0.6-0.5C907.7,347.2,907.8,346.9,907.8,346.6z"/>
	<path d="M664.7,385v-12.2h1.6v10.6h5.5v1.6H664.7z"/>
	<path d="M686.6,391.4V390h3.7v-7.7h-3.7v-1.4h5.3v9.1h3.6v1.4H686.6z M689.7,378c0-0.4,0.1-0.7,0.4-1s0.6-0.4,1-0.4
		c0.4,0,0.7,0.1,1,0.4s0.4,0.6,0.4,1c0,0.4-0.1,0.7-0.4,0.9s-0.6,0.4-1,0.4c-0.4,0-0.7-0.1-1-0.4S689.7,378.3,689.7,378z"/>
	<path d="M706.2,382.6c-0.3-0.1-0.7-0.2-1-0.3c-0.4-0.1-0.7-0.1-1.1-0.1c-1.4,0-2.4,0.3-3.1,1c-0.7,0.6-1,1.7-1,3.1
		c0,0.6,0.1,1.2,0.3,1.7s0.5,0.9,0.8,1.2c0.4,0.3,0.8,0.6,1.3,0.8c0.5,0.2,1.1,0.3,1.7,0.3c0.7,0,1.3-0.1,1.9-0.3s1.1-0.5,1.6-0.9
		l0.7,1.2c-0.2,0.2-0.4,0.3-0.7,0.5c-0.3,0.2-0.6,0.4-1,0.5c-0.4,0.2-0.8,0.3-1.3,0.4c-0.5,0.1-1,0.1-1.5,0.1
		c-0.9,0-1.7-0.1-2.4-0.4c-0.7-0.3-1.3-0.6-1.7-1.1c-0.5-0.5-0.8-1.1-1-1.7c-0.2-0.7-0.4-1.4-0.4-2.3c0-0.9,0.1-1.7,0.4-2.4
		c0.2-0.7,0.6-1.3,1.1-1.7c0.5-0.5,1-0.8,1.7-1.1s1.4-0.4,2.2-0.4c1,0,1.9,0.1,2.5,0.3c0.7,0.2,1.2,0.4,1.6,0.6l0,0.1v2.9h-1.5
		V382.6z"/>
	<path d="M710.8,386.2c0-1.7,0.4-3,1.3-4s2.1-1.5,3.8-1.5c0.9,0,1.6,0.1,2.3,0.4s1.2,0.7,1.6,1.2c0.4,0.5,0.7,1.1,0.9,1.7
		c0.2,0.7,0.3,1.4,0.3,2.2c0,0.8-0.1,1.6-0.3,2.3c-0.2,0.7-0.6,1.3-1,1.7c-0.4,0.5-1,0.8-1.6,1.1c-0.6,0.3-1.4,0.4-2.2,0.4
		c-0.9,0-1.6-0.1-2.3-0.4c-0.6-0.3-1.2-0.7-1.6-1.2c-0.4-0.5-0.7-1.1-0.9-1.7S710.8,387,710.8,386.2z M712.5,386.2
		c0,0.5,0.1,1,0.2,1.5c0.1,0.5,0.3,0.9,0.6,1.3c0.3,0.4,0.6,0.7,1,0.9c0.4,0.2,0.9,0.4,1.6,0.4c1.1,0,2-0.3,2.5-1
		c0.6-0.7,0.8-1.7,0.8-3.1c0-0.5-0.1-1-0.2-1.5c-0.1-0.5-0.3-0.9-0.6-1.3c-0.3-0.4-0.6-0.7-1-0.9c-0.4-0.2-0.9-0.4-1.6-0.4
		c-1.1,0-2,0.3-2.5,1C712.8,383.8,712.5,384.8,712.5,386.2z"/>
	<path d="M724.1,384.6c0-0.1,0-0.3,0-0.5c0-0.2,0-0.4,0-0.6c0-0.2,0-0.4-0.1-0.6c0-0.2,0-0.4-0.1-0.5h-1.4v-1.4h2.8l0.2,1.7h0.1
		c0.1-0.2,0.3-0.5,0.6-0.7c0.2-0.2,0.5-0.4,0.8-0.6s0.7-0.3,1-0.5c0.4-0.1,0.8-0.2,1.2-0.2c0.6,0,1.2,0.1,1.7,0.2
		c0.5,0.1,0.9,0.4,1.2,0.7s0.6,0.8,0.7,1.4c0.2,0.6,0.3,1.4,0.3,2.3v6h-1.7v-5.7c0-1.2-0.2-2-0.6-2.6c-0.4-0.6-1.1-0.9-2.1-0.9
		c-0.4,0-0.7,0.1-1.1,0.2c-0.3,0.1-0.7,0.3-0.9,0.6c-0.3,0.2-0.5,0.5-0.7,0.8c-0.2,0.3-0.4,0.6-0.5,1v6.6h-1.6V384.6z"/>
	<path d="M744,388.6c0-0.4-0.2-0.8-0.5-1c-0.3-0.2-0.8-0.4-1.3-0.6c-0.5-0.1-1.1-0.3-1.7-0.4c-0.6-0.1-1.2-0.3-1.7-0.5
		s-0.9-0.5-1.3-0.9c-0.3-0.4-0.5-0.9-0.5-1.5c0-0.5,0.1-1,0.3-1.4c0.2-0.4,0.5-0.7,0.9-0.9s0.8-0.4,1.3-0.5c0.5-0.1,1-0.2,1.6-0.2
		c1,0,1.8,0.1,2.5,0.4c0.7,0.2,1.3,0.5,1.7,0.8l-0.7,1.3c-0.5-0.3-1-0.5-1.5-0.7c-0.5-0.2-1.2-0.3-2-0.3c-0.3,0-0.6,0-0.9,0.1
		s-0.6,0.2-0.8,0.3s-0.4,0.3-0.6,0.5c-0.1,0.2-0.2,0.5-0.2,0.7c0,0.4,0.2,0.6,0.5,0.8c0.3,0.2,0.8,0.4,1.3,0.5
		c0.5,0.1,1.1,0.3,1.7,0.4c0.6,0.1,1.2,0.3,1.7,0.5c0.5,0.2,0.9,0.5,1.3,0.9c0.3,0.4,0.5,0.9,0.5,1.5c0,1-0.4,1.8-1.1,2.4
		c-0.8,0.6-1.9,0.9-3.4,0.9c-0.5,0-0.9,0-1.4-0.1s-0.9-0.2-1.3-0.3c-0.4-0.1-0.7-0.3-1.1-0.5s-0.6-0.4-0.8-0.5l0.8-1.4
		c0.2,0.2,0.4,0.3,0.7,0.5s0.6,0.3,0.9,0.5c0.3,0.1,0.7,0.3,1.1,0.3c0.4,0.1,0.8,0.1,1.2,0.1c0.4,0,0.7,0,1.1-0.1
		c0.3-0.1,0.6-0.2,0.9-0.3c0.3-0.1,0.5-0.3,0.6-0.5C743.9,389.2,744,388.9,744,388.6z"/>
	<path d="M752.3,390.3c0-0.4,0.1-0.8,0.4-1s0.6-0.4,1-0.4c0.4,0,0.8,0.1,1,0.4s0.4,0.6,0.4,1c0,0.4-0.1,0.7-0.4,1s-0.6,0.4-1,0.4
		c-0.4,0-0.8-0.1-1-0.4S752.3,390.7,752.3,390.3z"/>
	<path d="M767.3,376.7h3.4v11.1c0,0.1,0,0.3,0,0.5c0,0.2,0,0.4,0.1,0.6c0,0.2,0,0.4,0.1,0.6s0.1,0.4,0.1,0.5h1.4v1.4h-2.8l-0.2-1.6
		h-0.1c-0.3,0.5-0.8,1-1.4,1.3c-0.6,0.4-1.3,0.5-2.1,0.5c-1.6,0-2.7-0.4-3.5-1.3c-0.7-0.9-1.1-2.3-1.1-4.1c0-0.9,0.1-1.7,0.4-2.3
		c0.3-0.7,0.6-1.2,1.1-1.7c0.5-0.5,1-0.8,1.7-1c0.7-0.2,1.4-0.4,2.2-0.4c0.3,0,0.6,0,0.8,0c0.2,0,0.4,0,0.6,0.1
		c0.2,0,0.4,0.1,0.6,0.1c0.2,0,0.4,0.1,0.6,0.2v-3h-1.8V376.7z M766,390.3c0.9,0,1.5-0.2,2-0.7c0.5-0.4,0.8-1.1,1-2v-4.9
		c-0.3-0.2-0.7-0.4-1-0.5c-0.4-0.1-0.9-0.1-1.5-0.1c-1.1,0-2,0.3-2.6,1c-0.6,0.7-1,1.7-1,3.1c0,0.6,0.1,1.1,0.2,1.6
		c0.1,0.5,0.3,0.9,0.5,1.3s0.6,0.7,1,0.9C765,390.2,765.5,390.3,766,390.3z"/>
	<path d="M774.9,381.8c0.6-0.3,1.3-0.6,2-0.8c0.8-0.2,1.5-0.2,2.2-0.2c0.7,0,1.3,0.1,1.8,0.3c0.5,0.2,0.8,0.5,1.1,0.9
		c0.3,0.4,0.4,0.8,0.5,1.2c0.1,0.5,0.1,0.9,0.1,1.4c0,0.5,0,1.1,0,1.7s0,1.2-0.1,1.8c0,0.7,0,1.4,0.1,2h1.4v1.4h-2.8l-0.2-1.6H781
		c-0.1,0.1-0.2,0.3-0.4,0.5c-0.2,0.2-0.4,0.4-0.7,0.6c-0.3,0.2-0.6,0.4-1,0.5c-0.4,0.1-0.9,0.2-1.4,0.2c-1,0-1.9-0.3-2.5-0.8
		s-0.9-1.3-0.9-2.2c0-0.7,0.2-1.3,0.5-1.8c0.3-0.5,0.8-0.8,1.4-1.1s1.3-0.4,2.1-0.4c0.8,0,1.8,0,2.8,0.2c0.1-0.6,0.1-1.2,0-1.6
		c0-0.4-0.2-0.8-0.3-1c-0.2-0.3-0.4-0.4-0.7-0.5s-0.7-0.2-1.2-0.2c-0.6,0-1.2,0.1-1.8,0.3c-0.6,0.2-1.1,0.4-1.5,0.5L774.9,381.8z
		 M778,390.2c0.4,0,0.8-0.1,1.1-0.2s0.6-0.3,0.9-0.5c0.3-0.2,0.5-0.4,0.6-0.6c0.2-0.2,0.3-0.5,0.4-0.7v-1.5c-0.7-0.1-1.4-0.2-2-0.2
		s-1.1,0.1-1.6,0.2c-0.4,0.1-0.8,0.3-1.1,0.6c-0.3,0.3-0.4,0.6-0.4,1.1c0,0.5,0.2,0.9,0.5,1.2C776.7,390.1,777.2,390.2,778,390.2z"
		/>
	<path d="M785.8,380.9h2.5v-2.1l1.7-0.5v2.5h5.6v1.4H790v5c0,1,0.2,1.8,0.7,2.3s1.2,0.7,2.1,0.7c0.6,0,1.2-0.1,1.6-0.4
		c0.5-0.2,0.9-0.5,1.3-0.8l0.5,1.2c-0.5,0.4-1.1,0.7-1.8,0.9c-0.7,0.2-1.4,0.4-2.1,0.4c-0.6,0-1.1-0.1-1.6-0.2s-0.9-0.4-1.3-0.7
		s-0.7-0.8-0.9-1.3c-0.2-0.5-0.3-1.2-0.3-1.9v-5.2h-2.5V380.9z"/>
	<path d="M800.1,381.8c0.6-0.3,1.3-0.6,2-0.8c0.8-0.2,1.5-0.2,2.2-0.2c0.7,0,1.3,0.1,1.8,0.3c0.5,0.2,0.8,0.5,1.1,0.9
		c0.3,0.4,0.4,0.8,0.5,1.2c0.1,0.5,0.1,0.9,0.1,1.4c0,0.5,0,1.1,0,1.7s0,1.2-0.1,1.8c0,0.7,0,1.4,0.1,2h1.4v1.4h-2.8l-0.2-1.6h-0.1
		c-0.1,0.1-0.2,0.3-0.4,0.5c-0.2,0.2-0.4,0.4-0.7,0.6c-0.3,0.2-0.6,0.4-1,0.5c-0.4,0.1-0.9,0.2-1.4,0.2c-1,0-1.9-0.3-2.5-0.8
		s-0.9-1.3-0.9-2.2c0-0.7,0.2-1.3,0.5-1.8c0.3-0.5,0.8-0.8,1.4-1.1s1.3-0.4,2.1-0.4c0.8,0,1.8,0,2.8,0.2c0.1-0.6,0.1-1.2,0-1.6
		c0-0.4-0.2-0.8-0.3-1c-0.2-0.3-0.4-0.4-0.7-0.5s-0.7-0.2-1.2-0.2c-0.6,0-1.2,0.1-1.8,0.3c-0.6,0.2-1.1,0.4-1.5,0.5L800.1,381.8z
		 M803.2,390.2c0.4,0,0.8-0.1,1.1-0.2s0.6-0.3,0.9-0.5c0.3-0.2,0.5-0.4,0.6-0.6c0.2-0.2,0.3-0.5,0.4-0.7v-1.5
		c-0.7-0.1-1.4-0.2-2-0.2s-1.1,0.1-1.6,0.2c-0.4,0.1-0.8,0.3-1.1,0.6c-0.3,0.3-0.4,0.6-0.4,1.1c0,0.5,0.2,0.9,0.5,1.2
		C801.9,390.1,802.4,390.2,803.2,390.2z"/>
	<path d="M815.3,390.3c0-0.4,0.1-0.8,0.4-1s0.6-0.4,1-0.4c0.4,0,0.8,0.1,1,0.4s0.4,0.6,0.4,1c0,0.4-0.1,0.7-0.4,1s-0.6,0.4-1,0.4
		c-0.4,0-0.8-0.1-1-0.4S815.3,390.7,815.3,390.3z"/>
	<path d="M832.2,388.6c0-0.4-0.2-0.8-0.5-1c-0.3-0.2-0.8-0.4-1.3-0.6c-0.5-0.1-1.1-0.3-1.7-0.4s-1.2-0.3-1.7-0.5s-0.9-0.5-1.3-0.9
		c-0.3-0.4-0.5-0.9-0.5-1.5c0-0.5,0.1-1,0.3-1.4c0.2-0.4,0.5-0.7,0.9-0.9s0.8-0.4,1.3-0.5c0.5-0.1,1-0.2,1.6-0.2
		c1,0,1.8,0.1,2.5,0.4s1.3,0.5,1.7,0.8l-0.7,1.3c-0.5-0.3-1-0.5-1.5-0.7c-0.5-0.2-1.2-0.3-2-0.3c-0.3,0-0.6,0-0.9,0.1
		s-0.6,0.2-0.8,0.3s-0.4,0.3-0.6,0.5c-0.1,0.2-0.2,0.5-0.2,0.7c0,0.4,0.2,0.6,0.5,0.8c0.3,0.2,0.8,0.4,1.3,0.5
		c0.5,0.1,1.1,0.3,1.7,0.4c0.6,0.1,1.2,0.3,1.7,0.5c0.5,0.2,0.9,0.5,1.3,0.9c0.3,0.4,0.5,0.9,0.5,1.5c0,1-0.4,1.8-1.1,2.4
		c-0.8,0.6-1.9,0.9-3.4,0.9c-0.5,0-0.9,0-1.4-0.1c-0.4-0.1-0.9-0.2-1.3-0.3c-0.4-0.1-0.7-0.3-1.1-0.5c-0.3-0.2-0.6-0.4-0.8-0.5
		l0.8-1.4c0.2,0.2,0.4,0.3,0.7,0.5c0.3,0.2,0.6,0.3,0.9,0.5c0.3,0.1,0.7,0.3,1.1,0.3c0.4,0.1,0.8,0.1,1.2,0.1c0.4,0,0.7,0,1.1-0.1
		c0.3-0.1,0.6-0.2,0.9-0.3c0.3-0.1,0.5-0.3,0.6-0.5C832.1,389.2,832.2,388.9,832.2,388.6z"/>
	<path d="M841.9,389.4h0.2l3.3-8.5h1.8l-4.4,10.5H841l-4.5-10.5h1.9L841.9,389.4z"/>
	<path d="M859.2,392c0,0.7-0.1,1.2-0.4,1.7s-0.6,0.9-1,1.2c-0.4,0.3-1,0.6-1.5,0.7s-1.2,0.2-1.9,0.2c-0.8,0-1.5-0.1-2.2-0.3
		s-1.1-0.4-1.6-0.7l0.8-1.5c0.1,0.1,0.3,0.2,0.5,0.3c0.2,0.1,0.4,0.2,0.7,0.3c0.3,0.1,0.5,0.2,0.8,0.2c0.3,0.1,0.6,0.1,0.9,0.1
		c0.6,0,1.1-0.1,1.5-0.2c0.4-0.1,0.7-0.3,1-0.5c0.3-0.2,0.4-0.5,0.5-0.9c0.1-0.4,0.2-0.8,0.2-1.4v-1.2h-0.1
		c-0.3,0.5-0.7,0.8-1.2,1.1s-1.2,0.4-1.9,0.4c-1.6,0-2.8-0.4-3.5-1.3c-0.7-0.9-1.1-2.3-1.1-4.1c0-1.8,0.5-3.1,1.4-4.1
		s2.4-1.4,4.2-1.4c0.9,0,1.6,0.1,2.2,0.2c0.6,0.1,1.2,0.3,1.7,0.5V392z M854.5,390.3c0.8,0,1.5-0.2,2-0.7c0.5-0.4,0.8-1.1,1-2v-5
		c-0.6-0.3-1.5-0.4-2.6-0.4c-1.1,0-2,0.3-2.6,1s-1,1.7-1,3c0,0.6,0.1,1.2,0.2,1.6s0.3,0.9,0.5,1.3c0.2,0.4,0.6,0.6,1,0.9
		C853.4,390.2,853.9,390.3,854.5,390.3z"/>
	<path d="M865.7,390.3c0-0.4,0.1-0.8,0.4-1s0.6-0.4,1-0.4c0.4,0,0.8,0.1,1,0.4s0.4,0.6,0.4,1c0,0.4-0.1,0.7-0.4,1s-0.6,0.4-1,0.4
		c-0.4,0-0.8-0.1-1-0.4S865.7,390.7,865.7,390.3z"/>
	<path d="M882.6,382.6c-0.3-0.1-0.7-0.2-1-0.3c-0.4-0.1-0.7-0.1-1.1-0.1c-1.4,0-2.4,0.3-3.1,1c-0.7,0.6-1,1.7-1,3.1
		c0,0.6,0.1,1.2,0.3,1.7s0.5,0.9,0.8,1.2c0.4,0.3,0.8,0.6,1.3,0.8c0.5,0.2,1.1,0.3,1.7,0.3c0.7,0,1.3-0.1,1.9-0.3s1.1-0.5,1.6-0.9
		l0.7,1.2c-0.2,0.2-0.4,0.3-0.7,0.5c-0.3,0.2-0.6,0.4-1,0.5c-0.4,0.2-0.8,0.3-1.3,0.4c-0.5,0.1-1,0.1-1.5,0.1
		c-0.9,0-1.7-0.1-2.4-0.4c-0.7-0.3-1.3-0.6-1.7-1.1c-0.5-0.5-0.8-1.1-1-1.7c-0.2-0.7-0.4-1.4-0.4-2.3c0-0.9,0.1-1.7,0.4-2.4
		c0.2-0.7,0.6-1.3,1.1-1.7c0.5-0.5,1-0.8,1.7-1.1s1.4-0.4,2.2-0.4c1,0,1.9,0.1,2.5,0.3c0.7,0.2,1.2,0.4,1.6,0.6l0,0.1v2.9h-1.5
		V382.6z"/>
	<path d="M895.2,388.6c0-0.4-0.2-0.8-0.5-1c-0.3-0.2-0.8-0.4-1.3-0.6c-0.5-0.1-1.1-0.3-1.7-0.4s-1.2-0.3-1.7-0.5s-0.9-0.5-1.3-0.9
		c-0.3-0.4-0.5-0.9-0.5-1.5c0-0.5,0.1-1,0.3-1.4c0.2-0.4,0.5-0.7,0.9-0.9s0.8-0.4,1.3-0.5c0.5-0.1,1-0.2,1.6-0.2
		c1,0,1.8,0.1,2.5,0.4s1.3,0.5,1.7,0.8l-0.7,1.3c-0.5-0.3-1-0.5-1.5-0.7c-0.5-0.2-1.2-0.3-2-0.3c-0.3,0-0.6,0-0.9,0.1
		s-0.6,0.2-0.8,0.3s-0.4,0.3-0.6,0.5c-0.1,0.2-0.2,0.5-0.2,0.7c0,0.4,0.2,0.6,0.5,0.8c0.3,0.2,0.8,0.4,1.3,0.5
		c0.5,0.1,1.1,0.3,1.7,0.4c0.6,0.1,1.2,0.3,1.7,0.5c0.5,0.2,0.9,0.5,1.3,0.9c0.3,0.4,0.5,0.9,0.5,1.5c0,1-0.4,1.8-1.1,2.4
		c-0.8,0.6-1.9,0.9-3.4,0.9c-0.5,0-0.9,0-1.4-0.1c-0.4-0.1-0.9-0.2-1.3-0.3c-0.4-0.1-0.7-0.3-1.1-0.5c-0.3-0.2-0.6-0.4-0.8-0.5
		l0.8-1.4c0.2,0.2,0.4,0.3,0.7,0.5c0.3,0.2,0.6,0.3,0.9,0.5c0.3,0.1,0.7,0.3,1.1,0.3c0.4,0.1,0.8,0.1,1.2,0.1c0.4,0,0.7,0,1.1-0.1
		c0.3-0.1,0.6-0.2,0.9-0.3c0.3-0.1,0.5-0.3,0.6-0.5C895.1,389.2,895.2,388.9,895.2,388.6z"/>
	<path d="M907.8,388.6c0-0.4-0.2-0.8-0.5-1c-0.3-0.2-0.8-0.4-1.3-0.6c-0.5-0.1-1.1-0.3-1.7-0.4c-0.6-0.1-1.2-0.3-1.7-0.5
		s-0.9-0.5-1.3-0.9c-0.3-0.4-0.5-0.9-0.5-1.5c0-0.5,0.1-1,0.3-1.4c0.2-0.4,0.5-0.7,0.9-0.9s0.8-0.4,1.3-0.5c0.5-0.1,1-0.2,1.6-0.2
		c1,0,1.8,0.1,2.5,0.4c0.7,0.2,1.3,0.5,1.7,0.8l-0.7,1.3c-0.5-0.3-1-0.5-1.5-0.7c-0.5-0.2-1.2-0.3-2-0.3c-0.3,0-0.6,0-0.9,0.1
		s-0.6,0.2-0.8,0.3s-0.4,0.3-0.6,0.5c-0.1,0.2-0.2,0.5-0.2,0.7c0,0.4,0.2,0.6,0.5,0.8c0.3,0.2,0.8,0.4,1.3,0.5
		c0.5,0.1,1.1,0.3,1.7,0.4c0.6,0.1,1.2,0.3,1.7,0.5c0.5,0.2,0.9,0.5,1.3,0.9c0.3,0.4,0.5,0.9,0.5,1.5c0,1-0.4,1.8-1.1,2.4
		c-0.8,0.6-1.9,0.9-3.4,0.9c-0.5,0-0.9,0-1.4-0.1s-0.9-0.2-1.3-0.3c-0.4-0.1-0.7-0.3-1.1-0.5s-0.6-0.4-0.8-0.5l0.8-1.4
		c0.2,0.2,0.4,0.3,0.7,0.5s0.6,0.3,0.9,0.5c0.3,0.1,0.7,0.3,1.1,0.3c0.4,0.1,0.8,0.1,1.2,0.1c0.4,0,0.7,0,1.1-0.1
		c0.3-0.1,0.6-0.2,0.9-0.3c0.3-0.1,0.5-0.3,0.6-0.5C907.7,389.2,907.8,388.9,907.8,388.6z"/>
	<path d="M664.7,427v-12.2h1.6v10.6h5.5v1.6H664.7z"/>
	<path d="M686.6,433.4V432h3.7v-7.7h-3.7v-1.4h5.3v9.1h3.6v1.4H686.6z M689.7,420c0-0.4,0.1-0.7,0.4-1c0.3-0.3,0.6-0.4,1-0.4
		c0.4,0,0.7,0.1,1,0.4c0.3,0.3,0.4,0.6,0.4,1c0,0.4-0.1,0.7-0.4,0.9s-0.6,0.4-1,0.4c-0.4,0-0.7-0.1-1-0.4S689.7,420.3,689.7,420z"/>
	<path d="M706.2,424.6c-0.3-0.1-0.7-0.2-1-0.3c-0.4-0.1-0.7-0.1-1.1-0.1c-1.4,0-2.4,0.3-3.1,1c-0.7,0.6-1,1.7-1,3.1
		c0,0.6,0.1,1.2,0.3,1.7s0.5,0.9,0.8,1.2c0.4,0.3,0.8,0.6,1.3,0.8c0.5,0.2,1.1,0.3,1.7,0.3c0.7,0,1.3-0.1,1.9-0.3s1.1-0.5,1.6-0.9
		l0.7,1.2c-0.2,0.2-0.4,0.3-0.7,0.5c-0.3,0.2-0.6,0.4-1,0.5c-0.4,0.2-0.8,0.3-1.3,0.4c-0.5,0.1-1,0.1-1.5,0.1
		c-0.9,0-1.7-0.1-2.4-0.4c-0.7-0.3-1.3-0.6-1.7-1.1c-0.5-0.5-0.8-1.1-1-1.7c-0.2-0.7-0.4-1.4-0.4-2.3c0-0.9,0.1-1.7,0.4-2.4
		c0.2-0.7,0.6-1.3,1.1-1.7s1-0.8,1.7-1.1s1.4-0.4,2.2-0.4c1,0,1.9,0.1,2.5,0.3c0.7,0.2,1.2,0.4,1.6,0.6l0,0.1v2.9h-1.5V424.6z"/>
	<path d="M710.8,428.2c0-1.7,0.4-3,1.3-4c0.9-1,2.1-1.5,3.8-1.5c0.9,0,1.6,0.1,2.3,0.4s1.2,0.7,1.6,1.2s0.7,1.1,0.9,1.7
		c0.2,0.7,0.3,1.4,0.3,2.2c0,0.8-0.1,1.6-0.3,2.3c-0.2,0.7-0.6,1.3-1,1.7c-0.4,0.5-1,0.8-1.6,1.1c-0.6,0.3-1.4,0.4-2.2,0.4
		c-0.9,0-1.6-0.1-2.3-0.4c-0.6-0.3-1.2-0.7-1.6-1.2c-0.4-0.5-0.7-1.1-0.9-1.7S710.8,429,710.8,428.2z M712.5,428.2
		c0,0.5,0.1,1,0.2,1.5c0.1,0.5,0.3,0.9,0.6,1.3c0.3,0.4,0.6,0.7,1,0.9c0.4,0.2,0.9,0.4,1.6,0.4c1.1,0,2-0.3,2.5-1
		c0.6-0.7,0.8-1.7,0.8-3.1c0-0.5-0.1-1-0.2-1.5c-0.1-0.5-0.3-0.9-0.6-1.3s-0.6-0.7-1-0.9s-0.9-0.4-1.6-0.4c-1.1,0-2,0.3-2.5,1
		C712.8,425.8,712.5,426.8,712.5,428.2z"/>
	<path d="M724.1,426.6c0-0.1,0-0.3,0-0.5c0-0.2,0-0.4,0-0.6c0-0.2,0-0.4-0.1-0.6c0-0.2,0-0.4-0.1-0.5h-1.4v-1.4h2.8l0.2,1.7h0.1
		c0.1-0.2,0.3-0.5,0.6-0.7c0.2-0.2,0.5-0.4,0.8-0.6c0.3-0.2,0.7-0.3,1-0.5s0.8-0.2,1.2-0.2c0.6,0,1.2,0.1,1.7,0.2s0.9,0.4,1.2,0.7
		c0.3,0.4,0.6,0.8,0.7,1.4s0.3,1.4,0.3,2.3v6h-1.7v-5.7c0-1.2-0.2-2-0.6-2.6s-1.1-0.9-2.1-0.9c-0.4,0-0.7,0.1-1.1,0.2
		c-0.3,0.1-0.7,0.3-0.9,0.6c-0.3,0.2-0.5,0.5-0.7,0.8c-0.2,0.3-0.4,0.6-0.5,1v6.6h-1.6V426.6z"/>
	<path d="M744,430.6c0-0.4-0.2-0.8-0.5-1c-0.3-0.2-0.8-0.4-1.3-0.6c-0.5-0.1-1.1-0.3-1.7-0.4c-0.6-0.1-1.2-0.3-1.7-0.5
		s-0.9-0.5-1.3-0.9c-0.3-0.4-0.5-0.9-0.5-1.5c0-0.5,0.1-1,0.3-1.4c0.2-0.4,0.5-0.7,0.9-0.9s0.8-0.4,1.3-0.5c0.5-0.1,1-0.2,1.6-0.2
		c1,0,1.8,0.1,2.5,0.4c0.7,0.2,1.3,0.5,1.7,0.8l-0.7,1.3c-0.5-0.3-1-0.5-1.5-0.7c-0.5-0.2-1.2-0.3-2-0.3c-0.3,0-0.6,0-0.9,0.1
		c-0.3,0.1-0.6,0.2-0.8,0.3s-0.4,0.3-0.6,0.5c-0.1,0.2-0.2,0.5-0.2,0.7c0,0.4,0.2,0.6,0.5,0.8c0.3,0.2,0.8,0.4,1.3,0.5
		c0.5,0.1,1.1,0.3,1.7,0.4c0.6,0.1,1.2,0.3,1.7,0.5c0.5,0.2,0.9,0.5,1.3,0.9c0.3,0.4,0.5,0.9,0.5,1.5c0,1-0.4,1.8-1.1,2.4
		c-0.8,0.6-1.9,0.9-3.4,0.9c-0.5,0-0.9,0-1.4-0.1s-0.9-0.2-1.3-0.3c-0.4-0.1-0.7-0.3-1.1-0.5s-0.6-0.4-0.8-0.5l0.8-1.4
		c0.2,0.2,0.4,0.3,0.7,0.5s0.6,0.3,0.9,0.5c0.3,0.1,0.7,0.3,1.1,0.3c0.4,0.1,0.8,0.1,1.2,0.1c0.4,0,0.7,0,1.1-0.1
		c0.3-0.1,0.6-0.2,0.9-0.3c0.3-0.1,0.5-0.3,0.6-0.5C743.9,431.2,744,430.9,744,430.6z"/>
	<path d="M752.3,432.3c0-0.4,0.1-0.8,0.4-1s0.6-0.4,1-0.4c0.4,0,0.8,0.1,1,0.4s0.4,0.6,0.4,1c0,0.4-0.1,0.7-0.4,1s-0.6,0.4-1,0.4
		c-0.4,0-0.8-0.1-1-0.4S752.3,432.7,752.3,432.3z"/>
	<path d="M761.8,433.4V432h2.5v-7.7h-2.5v-1.4h2.5v-0.6c0-1.3,0.3-2.3,1-2.9c0.7-0.6,1.7-0.9,2.9-0.9c0.5,0,0.9,0,1.2,0.1
		c0.4,0.1,0.8,0.2,1.2,0.3l-0.4,1.4c-0.4-0.2-0.7-0.3-1-0.3c-0.3,0-0.6-0.1-0.9-0.1c-0.9,0-1.5,0.2-1.9,0.7s-0.5,1.2-0.5,2.2h4.3
		v1.4H766v7.7h4.3v1.4H761.8z"/>
	<path d="M774.9,423.8c0.6-0.3,1.3-0.6,2-0.8c0.8-0.2,1.5-0.2,2.2-0.2c0.7,0,1.3,0.1,1.8,0.3s0.8,0.5,1.1,0.9
		c0.3,0.4,0.4,0.8,0.5,1.2c0.1,0.5,0.1,0.9,0.1,1.4c0,0.5,0,1.1,0,1.7s0,1.2-0.1,1.8c0,0.7,0,1.4,0.1,2h1.4v1.4h-2.8l-0.2-1.6H781
		c-0.1,0.1-0.2,0.3-0.4,0.5c-0.2,0.2-0.4,0.4-0.7,0.6c-0.3,0.2-0.6,0.4-1,0.5c-0.4,0.1-0.9,0.2-1.4,0.2c-1,0-1.9-0.3-2.5-0.8
		s-0.9-1.3-0.9-2.2c0-0.7,0.2-1.3,0.5-1.8c0.3-0.5,0.8-0.8,1.4-1.1s1.3-0.4,2.1-0.4c0.8,0,1.8,0,2.8,0.2c0.1-0.6,0.1-1.2,0-1.6
		c0-0.4-0.2-0.8-0.3-1c-0.2-0.3-0.4-0.4-0.7-0.5c-0.3-0.1-0.7-0.2-1.2-0.2c-0.6,0-1.2,0.1-1.8,0.3c-0.6,0.2-1.1,0.4-1.5,0.5
		L774.9,423.8z M778,432.2c0.4,0,0.8-0.1,1.1-0.2s0.6-0.3,0.9-0.5c0.3-0.2,0.5-0.4,0.6-0.6c0.2-0.2,0.3-0.5,0.4-0.7v-1.5
		c-0.7-0.1-1.4-0.2-2-0.2s-1.1,0.1-1.6,0.2c-0.4,0.1-0.8,0.3-1.1,0.6c-0.3,0.3-0.4,0.6-0.4,1.1c0,0.5,0.2,0.9,0.5,1.2
		C776.7,432.1,777.2,432.2,778,432.2z"/>
	<path d="M787.7,418.7h3.5v11.2c0,0.9,0.1,1.5,0.4,1.8c0.3,0.4,0.7,0.5,1.3,0.5c0.4,0,0.8-0.1,1.1-0.2c0.4-0.1,0.8-0.4,1.2-0.7
		l0.8,1.2c-0.2,0.2-0.5,0.4-0.7,0.5c-0.3,0.2-0.5,0.3-0.8,0.4c-0.3,0.1-0.6,0.2-0.8,0.2c-0.3,0.1-0.5,0.1-0.8,0.1
		c-0.5,0-1-0.1-1.4-0.2c-0.4-0.1-0.7-0.3-1-0.6s-0.5-0.7-0.6-1.2c-0.1-0.5-0.2-1.1-0.2-1.8v-9.8h-1.8V418.7z"/>
	<path d="M800.3,418.7h3.5v11.2c0,0.9,0.1,1.5,0.4,1.8c0.3,0.4,0.7,0.5,1.3,0.5c0.4,0,0.8-0.1,1.1-0.2c0.4-0.1,0.8-0.4,1.2-0.7
		l0.8,1.2c-0.2,0.2-0.5,0.4-0.7,0.5c-0.3,0.2-0.5,0.3-0.8,0.4c-0.3,0.1-0.6,0.2-0.8,0.2c-0.3,0.1-0.5,0.1-0.8,0.1
		c-0.5,0-1-0.1-1.4-0.2c-0.4-0.1-0.7-0.3-1-0.6s-0.5-0.7-0.6-1.2c-0.1-0.5-0.2-1.1-0.2-1.8v-9.8h-1.8V418.7z"/>
	<path d="M810.4,418.7h3.4v5.4h0.1c0.4-0.5,0.8-0.8,1.4-1.1s1.2-0.4,1.9-0.4c3.1,0,4.6,1.8,4.6,5.3c0,1.8-0.5,3.2-1.5,4.1
		s-2.4,1.4-4.2,1.4c-0.9,0-1.7-0.1-2.4-0.3s-1.2-0.4-1.5-0.6v-12.6h-1.7V418.7z M817,424.1c-0.8,0-1.5,0.2-2,0.7
		c-0.5,0.5-0.9,1.1-1.1,2v4.8c0.3,0.2,0.7,0.3,1.2,0.4c0.4,0.1,0.9,0.1,1.4,0.1c0.6,0,1.1-0.1,1.5-0.2s0.8-0.4,1.2-0.8
		c0.3-0.3,0.6-0.8,0.7-1.3s0.3-1.2,0.3-1.9c0-0.5-0.1-1-0.2-1.5s-0.3-0.9-0.5-1.2c-0.2-0.4-0.6-0.6-1-0.8
		C818,424.2,817.5,424.1,817,424.1z"/>
	<path d="M825.3,423.8c0.6-0.3,1.3-0.6,2-0.8c0.8-0.2,1.5-0.2,2.2-0.2c0.7,0,1.3,0.1,1.8,0.3c0.5,0.2,0.8,0.5,1.1,0.9
		c0.3,0.4,0.4,0.8,0.5,1.2c0.1,0.5,0.1,0.9,0.1,1.4c0,0.5,0,1.1,0,1.7c0,0.6,0,1.2-0.1,1.8c0,0.7,0,1.4,0.1,2h1.4v1.4h-2.8l-0.2-1.6
		h-0.1c-0.1,0.1-0.2,0.3-0.4,0.5c-0.2,0.2-0.4,0.4-0.7,0.6c-0.3,0.2-0.6,0.4-1,0.5c-0.4,0.1-0.9,0.2-1.4,0.2c-1,0-1.9-0.3-2.5-0.8
		c-0.6-0.5-0.9-1.3-0.9-2.2c0-0.7,0.2-1.3,0.5-1.8c0.3-0.5,0.8-0.8,1.4-1.1c0.6-0.3,1.3-0.4,2.1-0.4s1.8,0,2.8,0.2
		c0.1-0.6,0.1-1.2,0-1.6c0-0.4-0.2-0.8-0.3-1s-0.4-0.4-0.7-0.5c-0.3-0.1-0.7-0.2-1.2-0.2c-0.6,0-1.2,0.1-1.8,0.3
		c-0.6,0.2-1.1,0.4-1.5,0.5L825.3,423.8z M828.4,432.2c0.4,0,0.8-0.1,1.1-0.2c0.3-0.1,0.6-0.3,0.9-0.5c0.3-0.2,0.5-0.4,0.6-0.6
		c0.2-0.2,0.3-0.5,0.4-0.7v-1.5c-0.7-0.1-1.4-0.2-2-0.2s-1.1,0.1-1.6,0.2s-0.8,0.3-1,0.6s-0.4,0.6-0.4,1.1c0,0.5,0.2,0.9,0.5,1.2
		C827.1,432.1,827.6,432.2,828.4,432.2z"/>
	<path d="M844.8,424.6c-0.3-0.1-0.7-0.2-1-0.3c-0.4-0.1-0.7-0.1-1.1-0.1c-1.4,0-2.4,0.3-3.1,1s-1,1.7-1,3.1c0,0.6,0.1,1.2,0.3,1.7
		c0.2,0.5,0.5,0.9,0.8,1.2s0.8,0.6,1.3,0.8s1.1,0.3,1.7,0.3c0.7,0,1.3-0.1,1.9-0.3c0.6-0.2,1.1-0.5,1.6-0.9l0.7,1.2
		c-0.2,0.2-0.4,0.3-0.7,0.5c-0.3,0.2-0.6,0.4-1,0.5c-0.4,0.2-0.8,0.3-1.3,0.4s-1,0.1-1.5,0.1c-0.9,0-1.7-0.1-2.4-0.4
		c-0.7-0.3-1.3-0.6-1.7-1.1c-0.5-0.5-0.8-1.1-1-1.7c-0.2-0.7-0.4-1.4-0.4-2.3c0-0.9,0.1-1.7,0.4-2.4c0.2-0.7,0.6-1.3,1.1-1.7
		s1-0.8,1.7-1.1c0.7-0.2,1.4-0.4,2.2-0.4c1,0,1.9,0.1,2.5,0.3c0.7,0.2,1.2,0.4,1.6,0.6l0,0.1v2.9h-1.5V424.6z"/>
	<path d="M848.7,418.7h3.4v8.7h1.2l4.1-4.5h2l-4.6,5l3.8,4.1h1.4v1.4h-2.2l-4.5-4.7h-1.2v4.7h-1.6v-13.3h-1.8V418.7z"/>
	<path d="M865.7,432.3c0-0.4,0.1-0.8,0.4-1s0.6-0.4,1-0.4c0.4,0,0.8,0.1,1,0.4s0.4,0.6,0.4,1c0,0.4-0.1,0.7-0.4,1s-0.6,0.4-1,0.4
		c-0.4,0-0.8-0.1-1-0.4S865.7,432.7,865.7,432.3z"/>
	<path d="M882.6,424.6c-0.3-0.1-0.7-0.2-1-0.3c-0.4-0.1-0.7-0.1-1.1-0.1c-1.4,0-2.4,0.3-3.1,1c-0.7,0.6-1,1.7-1,3.1
		c0,0.6,0.1,1.2,0.3,1.7s0.5,0.9,0.8,1.2c0.4,0.3,0.8,0.6,1.3,0.8c0.5,0.2,1.1,0.3,1.7,0.3c0.7,0,1.3-0.1,1.9-0.3s1.1-0.5,1.6-0.9
		l0.7,1.2c-0.2,0.2-0.4,0.3-0.7,0.5c-0.3,0.2-0.6,0.4-1,0.5c-0.4,0.2-0.8,0.3-1.3,0.4c-0.5,0.1-1,0.1-1.5,0.1
		c-0.9,0-1.7-0.1-2.4-0.4c-0.7-0.3-1.3-0.6-1.7-1.1c-0.5-0.5-0.8-1.1-1-1.7c-0.2-0.7-0.4-1.4-0.4-2.3c0-0.9,0.1-1.7,0.4-2.4
		c0.2-0.7,0.6-1.3,1.1-1.7s1-0.8,1.7-1.1s1.4-0.4,2.2-0.4c1,0,1.9,0.1,2.5,0.3c0.7,0.2,1.2,0.4,1.6,0.6l0,0.1v2.9h-1.5V424.6z"/>
	<path d="M895.2,430.6c0-0.4-0.2-0.8-0.5-1c-0.3-0.2-0.8-0.4-1.3-0.6c-0.5-0.1-1.1-0.3-1.7-0.4s-1.2-0.3-1.7-0.5s-0.9-0.5-1.3-0.9
		c-0.3-0.4-0.5-0.9-0.5-1.5c0-0.5,0.1-1,0.3-1.4c0.2-0.4,0.5-0.7,0.9-0.9s0.8-0.4,1.3-0.5c0.5-0.1,1-0.2,1.6-0.2
		c1,0,1.8,0.1,2.5,0.4s1.3,0.5,1.7,0.8l-0.7,1.3c-0.5-0.3-1-0.5-1.5-0.7c-0.5-0.2-1.2-0.3-2-0.3c-0.3,0-0.6,0-0.9,0.1
		c-0.3,0.1-0.6,0.2-0.8,0.3s-0.4,0.3-0.6,0.5c-0.1,0.2-0.2,0.5-0.2,0.7c0,0.4,0.2,0.6,0.5,0.8c0.3,0.2,0.8,0.4,1.3,0.5
		c0.5,0.1,1.1,0.3,1.7,0.4c0.6,0.1,1.2,0.3,1.7,0.5c0.5,0.2,0.9,0.5,1.3,0.9c0.3,0.4,0.5,0.9,0.5,1.5c0,1-0.4,1.8-1.1,2.4
		c-0.8,0.6-1.9,0.9-3.4,0.9c-0.5,0-0.9,0-1.4-0.1c-0.4-0.1-0.9-0.2-1.3-0.3c-0.4-0.1-0.7-0.3-1.1-0.5c-0.3-0.2-0.6-0.4-0.8-0.5
		l0.8-1.4c0.2,0.2,0.4,0.3,0.7,0.5c0.3,0.2,0.6,0.3,0.9,0.5c0.3,0.1,0.7,0.3,1.1,0.3c0.4,0.1,0.8,0.1,1.2,0.1c0.4,0,0.7,0,1.1-0.1
		c0.3-0.1,0.6-0.2,0.9-0.3c0.3-0.1,0.5-0.3,0.6-0.5C895.1,431.2,895.2,430.9,895.2,430.6z"/>
	<path d="M907.8,430.6c0-0.4-0.2-0.8-0.5-1c-0.3-0.2-0.8-0.4-1.3-0.6c-0.5-0.1-1.1-0.3-1.7-0.4c-0.6-0.1-1.2-0.3-1.7-0.5
		s-0.9-0.5-1.3-0.9c-0.3-0.4-0.5-0.9-0.5-1.5c0-0.5,0.1-1,0.3-1.4c0.2-0.4,0.5-0.7,0.9-0.9s0.8-0.4,1.3-0.5c0.5-0.1,1-0.2,1.6-0.2
		c1,0,1.8,0.1,2.5,0.4c0.7,0.2,1.3,0.5,1.7,0.8l-0.7,1.3c-0.5-0.3-1-0.5-1.5-0.7c-0.5-0.2-1.2-0.3-2-0.3c-0.3,0-0.6,0-0.9,0.1
		c-0.3,0.1-0.6,0.2-0.8,0.3s-0.4,0.3-0.6,0.5c-0.1,0.2-0.2,0.5-0.2,0.7c0,0.4,0.2,0.6,0.5,0.8c0.3,0.2,0.8,0.4,1.3,0.5
		c0.5,0.1,1.1,0.3,1.7,0.4c0.6,0.1,1.2,0.3,1.7,0.5c0.5,0.2,0.9,0.5,1.3,0.9c0.3,0.4,0.5,0.9,0.5,1.5c0,1-0.4,1.8-1.1,2.4
		c-0.8,0.6-1.9,0.9-3.4,0.9c-0.5,0-0.9,0-1.4-0.1s-0.9-0.2-1.3-0.3c-0.4-0.1-0.7-0.3-1.1-0.5s-0.6-0.4-0.8-0.5l0.8-1.4
		c0.2,0.2,0.4,0.3,0.7,0.5s0.6,0.3,0.9,0.5c0.3,0.1,0.7,0.3,1.1,0.3c0.4,0.1,0.8,0.1,1.2,0.1c0.4,0,0.7,0,1.1-0.1
		c0.3-0.1,0.6-0.2,0.9-0.3c0.3-0.1,0.5-0.3,0.6-0.5C907.7,431.2,907.8,430.9,907.8,430.6z"/>
</g>
<g id="Arrow_29">
	<g>
		<polygon fill="#231F20" points="548.6,345.3 530.5,366.9 532.2,355.8 514.1,355.8 514.1,334.7 532.2,334.7 530.5,323.6 		"/>
	</g>
</g>
<g>
</g>
<g>
</g>
<g>
</g>
<g>
</g>
<g>
</g>
<g>
</g>
<g>
</g>
<g>
</g>
<g>
</g>
<g>
</g>
<g>
</g>
<g>
</g>
<g>
</g>
<g>
</g>
<g>
</g>
<g>
</g>
</svg>
