<?xml version="1.0" encoding="utf-8"?>
<!-- Generator: Adobe Illustrator 18.1.1, SVG Export Plug-In . SVG Version: 6.00 Build 0)  -->
<!DOCTYPE svg PUBLIC "-//W3C//DTD SVG 1.1//EN" "http://www.w3.org/Graphics/SVG/1.1/DTD/svg11.dtd">
<svg version="1.1" id="Layer_1" xmlns="http://www.w3.org/2000/svg" xmlns:xlink="http://www.w3.org/1999/xlink" x="0px" y="0px"
viewBox="0 0 350 350" xml:space="preserve">
<symbol  id="arrow" viewBox="-171.4 -171.4 342.9 342.9">
	<defs>
		<path id="arrow-mask" d="M112.4-68.2L112.4-68.2C89.3-106,47.6-131.4,0-131.4c-47.5,0-89.2,25.3-112.3,63.2l-7.4-27.8
			l-26.9,7.2c30.1-49.5,84.6-82.7,146.6-82.7c62.4,0,117,33.5,147,83.4l-7.3,27.2L112.4-68.2z"/>

		<linearGradient id="arrow-gradient" x1="0" y1="0" x2="0" y2="1">
			<stop  offset="50%" style="stop-color:#F37553"/>
			<stop  offset="50.1%" style="stop-color:#3CC0C2"/>
		</linearGradient>

		<clipPath id="arrow-clip-path">
			<use xlink:href="#arrow-mask"  overflow="visible"/>
		</clipPath>
	</defs>

		<g clip-path="url(#arrow-clip-path)">
			<circle classid="arrow-circle" x="175" y="175" r="175" fill="url(#arrow-gradient)"/>
			<animateTransform xlink:href="#arrow-circle" attributeType="XML"
						                 attributeName="transform"
						                 type="rotate"
						                 from="20 0 0" to="170 0 0"
						                 dur="2s"
						                 repeatCount="indefinite"
						                 calcMode="spline"
						                 keySplines="0.1 0.8 0.2 1"
						                 />
		</g>
</symbol>
<path id="pink-disk" display="none" fill="#F37553" d="M171.4,345.7C76.9,345.7,0,268.8,0,174.3S76.9,2.8,171.4,2.8
	c94.5,0,171.4,76.9,171.4,171.4S266,345.7,171.4,345.7z M171.4,42.8C99,42.8,40,101.8,40,174.3c0,72.5,59,131.4,131.4,131.4
	s131.4-59,131.4-131.4C302.9,101.8,243.9,42.8,171.4,42.8z"/>
<g id="education">
	<use class="arrow" xlink:href="#arrow"  width="342.9" height="342.9" x="-171.4" y="-171.4" transform="matrix(1 0 0 -1 171.4492 172.8638)"/>
</g>
<use xlink:href="#arrow"  class="arrow" width="342.9" height="342.9" x="-171.4" y="-171.4" transform="matrix(1 0 0 -1 171.4492 172.8638) rotate(120)"/>
<use xlink:href="#arrow"  class="arrow" width="342.9" height="342.9" x="-171.4" y="-171.4" transform="matrix(1 0 0 -1 171.4492 172.8638) rotate(240)"/>
<text transform="matrix(1 0 0 1 106.4491 168.9317)" font-family="'GothamHTF-Bold'" font-size="20.8672">RESEARCH</text>
</svg>
