<?xml version="1.0" encoding="utf-8"?>
<!-- Generator: Adobe Illustrator 18.1.1, SVG Export Plug-In . SVG Version: 6.00 Build 0)  -->
<!DOCTYPE svg PUBLIC "-//W3C//DTD SVG 1.1//EN" "http://www.w3.org/Graphics/SVG/1.1/DTD/svg11.dtd">
<svg version="1.1" id="svg-source" xmlns="http://www.w3.org/2000/svg" xmlns:xlink="http://www.w3.org/1999/xlink" x="0px" y="0px"
	 width="18.7px" height="32px" viewBox="257.1 0 18.7 32" enable-background="new 257.1 0 18.7 32" xml:space="preserve">
<g id="icecream">
	<g>
		<path d="M268.1,11.2c0,0.3,0.2,0.3,0.5,0.3C268.7,11.1,268.3,11,268.1,11.2z"/>
		<path d="M258.3,8.9c-0.3,0.6-0.6,1.1-1,1.6c-0.2,0.7-0.4,1.4-0.3,2.4c0.1,0.4,0.3,0.7,0.4,1.1c0.1,0,0.2,0.1,0.2,0.3
			c0.5,0.4,1.1,0.8,1.7,1.1c0.6,0.1,1.2,0.3,1.7,0.5c1,2.6,1.6,5.6,2.4,8.4c0.3,1.5,0.9,2.7,1.2,4.1c0.3,0.6,0.5,1.3,0.8,1.9
			c0.2,0.3,0.2,0.6,0.5,0.9c0.1,0.3,0.2,0.8,0.7,0.8c0.2,0.3,0.6-0.1,0.7-0.3c0.4,0,0.6,0.2,1,0c0.1-0.3,0.3-0.6,0.5-0.9
			c0.1-0.4,0.3-0.7,0.4-1c0.2-0.8,0.5-1.4,0.7-2.2c0.5-1.4,1.1-2.7,1.6-4c1.2-2.6,2.1-5.5,2.8-8.6c0.1-0.5-0.1-0.6-0.2-1
			c1.2-1.1,2-2.6,1.8-5c-0.2-0.1-0.1-0.5-0.3-0.7c-0.1-0.2-0.3-0.4-0.3-0.7c-0.3-0.3-0.6-0.7-1-1c-0.5-0.2-0.9-0.3-1.2-0.7
			c-0.4,0.1-0.6-0.1-1-0.2c-0.3,0.1-0.2-0.1-0.5-0.1c-0.2-0.1-0.6,0.1-0.6-0.1c0.1-0.6,0-1.1,0-1.4c0-0.1,0-0.3,0-0.4
			c-0.1-0.7-0.5-1.3-0.7-1.8c-0.7-0.5-1.3-1.1-2.3-1.3c-0.8-0.4-2-0.5-3.2-0.6c-2.4,0.6-3.9,2.2-3.8,5.2c0.2,0.6,0.5,0.9,0.8,1.4
			c-0.8,0.2-1.2,0.7-2,0.9C259.4,8,258.8,8.4,258.3,8.9z M260.1,10.9C260.1,10.7,260.2,10.8,260.1,10.9C260,11,260,10.9,260.1,10.9z
			 M260.7,14.3c0.2-0.2,0.2,0,0.4,0.1C261.1,14.5,260.6,14.5,260.7,14.3z M260.9,12.9c-0.1-0.3,0.1-0.4,0.1-0.7
			c0-0.3-0.3-0.3-0.5-0.5c0.2-0.5,0.6-0.1,1-0.1c0.3-0.1,0.6-0.2,0.6-0.6c0.2,0,0.2,0.1,0.3,0.1c0,0.2-0.3,0.2-0.2,0.5
			c-0.4,0.2-0.7,0.6-1,0.9C261.2,12.8,261.2,13,260.9,12.9z M260.8,10.5C260.9,10.5,260.7,10.6,260.8,10.5
			C260.7,10.5,260.8,10.4,260.8,10.5z M260.9,10.3C261,10.3,260.8,10.4,260.9,10.3C260.8,10.3,260.9,10.3,260.9,10.3z M260.7,10.7
			C260.8,10.7,260.7,10.8,260.7,10.7C260.6,10.7,260.7,10.6,260.7,10.7z M261.5,14.6c-0.1-0.4,0.4-0.2,0.4-0.5
			c0.2,0,0.2,0.3,0.4,0.4C262.2,14.7,261.7,14.5,261.5,14.6z M262.1,12.4c0.3-0.1,0.2,0.3,0.5,0.2c0.3-0.1,0.5-0.3,0.6-0.6
			c0.3,0,0.5,0.1,0.7,0.3c0.1-0.1,0.3-0.1,0.3-0.2c0.1,0.3,0.9,0.1,1.1,0.3c-0.1,0.5-0.4,0.7-0.6,1c-0.2-0.2-0.7,0-1-0.2
			c-0.4-0.1-0.3,0.5-0.7,0.5c0.2-0.2-0.1-0.5-0.2-0.7C262.4,13,262,12.9,262.1,12.4z M263.9,11.6c0.2-0.1,0-0.5,0.3-0.4
			C264.2,11.5,264.1,11.6,263.9,11.6z M263.1,14c0,0.1,0,0.3,0,0.4c-0.1,0-0.1,0-0.2,0c0-0.1,0-0.3,0-0.4C263,14,263,14,263.1,14z
			 M264.4,20.8c-0.4,0-0.3-0.4-0.3-0.8C264.4,20.2,264.6,20.5,264.4,20.8z M264.4,19.5c0.2-0.8,0.6-1.4,1-2.1c0.3,0.2,0.6,0.5,0.7,1
			c-0.2,0.8-0.6,1.3-1.2,1.6C264.8,19.8,264.5,19.7,264.4,19.5z M269,17.8c0,0.4,0.3,0.5,0.4,0.9c-0.4,0.3-0.6,0.7-1,1
			c-0.3,0-0.3-0.4-0.5-0.6c-0.1-0.2-0.3-0.3-0.4-0.6c0.2-0.8,0.8-1.1,1-1.8c0.3,0,0.3,0.4,0.6,0.5C269.2,17.5,268.9,17.4,269,17.8z
			 M267.7,20.7c-0.3,0.4-0.6,0.8-1,1.1c-0.4,0.1-0.2-0.4-0.5-0.4c-0.1-0.2-0.3-0.2-0.4-0.4c0.3-0.5,0.7-0.9,1-1.5
			C267.2,19.8,267.5,20.2,267.7,20.7z M265.5,22.5c-0.1-0.3-0.1-0.1-0.4-0.1c0.1-0.2,0.2-0.5,0.2-0.8c0.4,0,0.4,0.5,0.7,0.7
			c0,0.4-0.4,0.3-0.4,0.7C265.4,23,265.5,22.6,265.5,22.5z M265.9,26.8c-0.4-0.4-0.1-1.5,0.3-1.9c0-0.2,0-0.4,0-0.7
			c0.2-0.2,0.4-0.5,0.6-0.8c0.3,0.1,0.3,0.6,0.7,0.6c-0.1,0.5,0.5,0.4,0.4,0.9c-0.1,0.1-0.1,0.2-0.2,0.3c-0.3,0.2-0.3-0.1-0.6-0.2
			c-0.4,0.1-0.5,0.5-0.7,0.9C266.1,26,266,26.4,265.9,26.8z M268.5,27.3c-0.1,0.3-0.3,0.7-0.3,1.1c-0.2,0.2-0.1,0.8-0.6,0.9
			c0-0.5,0.2-1-0.2-1.2c-0.5,0.2-0.7,0.6-0.8,1.2c-0.5,0-0.4-0.7-0.3-1c0.2-0.3,0.3-0.7,0.4-1.1c0.1,0,0.1-0.1,0.1-0.2
			c0.6-0.4,0.9-1.1,1.4-1.5c0.2-0.1,0.4,0.2,0.4,0c-0.1-0.3,0.3-0.3,0.6-0.3C269.1,25.9,268.7,26.5,268.5,27.3z M269,24.5
			c-0.3-0.1,0-0.5,0-0.7c-0.3,0-0.4,0.3-0.6,0.4c-0.4-0.4-0.8-0.9-1-1.5c0.2-0.4,0.6-0.6,0.8-1c0.2,0,0.2,0.1,0.3,0.1
			c0.5,0.6,0.6,1.5,1.3,1.9C269.7,24.1,269.1,24.1,269,24.5z M270.1,23.1c-0.3-0.3-0.5-0.7-0.8-1c0.2-0.6-0.1-1-0.4-1.3
			c0.2-0.5,0.8-0.7,1-1.3c0.6,0.1,0.6,1,1.3,1C270.8,21.2,270.5,22.2,270.1,23.1z M271.5,19.9c-0.4-0.3-0.6-0.7-1-1
			c0.9-1.3-0.9-2-1.1-3c0.1-0.2,0.3-0.4,0.5-0.6c0.5-0.1,0.7,0.1,1,0.1c0.6,0,1.3-0.5,2-0.2C272.5,16.8,272,18.4,271.5,19.9z
			 M270.4,7c0.8-0.1,1.3,0.1,2,0.2c0,0.2-0.1,0.3-0.3,0.4c-0.2,0,0,0.4-0.1,0.6c0.1,0.2,0.2,0.3,0.6,0.3c0.3,0,0.6-0.5,0.4-0.7
			c0.1-0.2,0.4,0.1,0.5,0.2c0.2,0,0.1,0.4,0.4,0.4c0.1,0.4,0.2,0.8,0.4,1.2c-0.1,1.2-0.5,2.1-1,2.9c-0.5,0.5-1.2,0.9-1.9,1.1
			c-1.4,0.1-2.4-0.2-3.4-0.5c-0.2,0-0.3,0.2-0.6,0.1c-0.1,0.6,0.1,1,0.5,1.1c0.2,0.1,0.3,0.3,0.6,0.3c0,0.2,0.5,0.1,0.4,0.4
			c-0.4-0.1-0.6-0.4-1-0.2c-0.1,0.5,0.1,0.7,0.2,1c-0.4,0.5-0.8,1-1.1,1.5c-0.4-0.2-0.6-0.5-0.8-0.9c0-0.6,0.5-0.8,0.4-1.5
			c-0.6,0.1-1,0.4-1.2,0.9c-0.2-0.1-0.3-0.2-0.7-0.2c-0.1,0.4,0.2,0.4,0.2,0.7c-0.1,0.4-0.5,0.5-0.7,0.8c-0.1,0.5-0.4,0.7-0.5,1.1
			c-0.4-0.6-0.5-1.4-0.7-2.1c0.5-0.3,1.3-0.3,1.6-0.8c0.6-0.2,0.9-0.7,1.3-1c0.4-0.5,0.7-1.1,1-1.7c0.1-0.4,0.2-0.9,0.3-1.2
			c0-0.4-0.1-0.8,0.1-1c-0.2-0.2-0.1-0.8-0.1-1.1c0.1,0,0.3,0,0.4,0c0.2-0.9,0.9-1.3,1.4-1.8c0.3,0,0.5,0,0.8,0
			C270.1,7.4,270.2,7.2,270.4,7z M262.5,3.1c0.1-0.3,0.4-0.4,0.5-0.8c0.3-0.2,0.7-0.3,1-0.6c1,0.1,1.6-0.3,2.6-0.2
			c0.6,0.3,1.1,0.7,1.6,1.1c0,0.3,0.4,0.3,0.4,0.7c0.2,0.1,0.2,0.5,0.4,0.7c0,0.6-0.1,1.4,0.1,1.9c-0.3,0.1-0.5,0.3-0.8,0.4
			c-0.2,0.2-0.3,0.4-0.7,0.5c-0.1,0.5-0.5,0.7-0.7,1.2c-0.3,0-0.3-0.3-0.5-0.5c-0.1-0.2-0.3-0.4-0.4-0.6c-0.6-0.3-1.1-0.7-1.9-0.8
			c-0.6-0.1-0.9,0.1-1.4,0.1C262.6,5.4,262.5,4.4,262.5,3.1z M260.2,9.3c0.3-0.1,0.4-0.4,0.7-0.6c0.1-0.2,0.2-0.4,0.3-0.6
			c0.9-0.2,1.6-0.7,2.9-0.7c0.6,0.1,1,0.4,1.3,0.8c0,0.5,0.3,0.7,0.4,1c0,0.5,0.1,1.3-0.2,1.5c-0.6-0.4,0.1-1.1-0.2-1.7
			c-0.6-0.1-0.4,0.6-0.9,0.6c0,0.3-0.2,0.5-0.5,0.7c0.1,0.3-0.1,0.4-0.1,0.7c-0.3-0.1-0.3-0.5-0.4-0.8c-0.3,0-0.3,0.2-0.6,0.2
			c-0.3,0-0.4-0.3-0.9-0.2c0.2-0.4,0.7-0.5,1-0.8c0-0.2-0.5,0-0.7-0.1c0-0.4,0.5-0.3,0.9-0.4c-0.1,0.4,0.3,0.4,0.3,0.7
			c0,0.3,0.2,0.4,0.6,0.4c0.2-0.1,0.2-0.4,0.3-0.7c0.3,0,0.3-0.2,0.4-0.4c0-0.4-0.2-0.7-0.3-1c-0.6,0-1.3,0-1.9,0
			c-0.3,0.1-0.2,0.5-0.4,0.7c-0.2,0-0.4,0.1-0.6,0.3c-0.3,0.1-0.3-0.1-0.5-0.2c-0.3,0.2-0.5,0.5-0.7,0.8c-0.4,0.1-0.3,0.6-0.8,0.7
			C259.7,9.7,260.2,9.7,260.2,9.3z"/>
		<path d="M268.5,25.6c0.1,0.2-0.3,0.3,0,0.4C268.6,25.9,268.8,25.6,268.5,25.6z"/>
		<path d="M270.5,12.3c0.1,0.3,0.3,0.5,0.8,0.5c0.3-0.1,0.4-0.5,0.4-1C271.2,11.5,270.5,11.7,270.5,12.3z"/>
		<path d="M271.2,10.6c0.1-0.2,0.2-0.4,0.2-0.8c-0.5-0.3-0.9,0.1-0.9,0.7C270.7,10.6,270.9,10.6,271.2,10.6z"/>
		<path d="M268.8,9.5c0.1,0.3,0.4,0.4,0.9,0.4c0.3-0.2,0.2-0.8,0.1-1C269.2,8.8,268.8,8.9,268.8,9.5z"/>
		<path d="M273.9,10.3c-0.1,0-0.1-0.1-0.2,0C273.7,10.4,273.8,10.4,273.9,10.3z"/>
	</g>
</g>
</svg>
