<?xml version="1.0" encoding="utf-8"?>
<!-- Generator: Adobe Illustrator 18.1.1, SVG Export Plug-In . SVG Version: 6.00 Build 0)  -->
<!DOCTYPE svg PUBLIC "-//W3C//DTD SVG 1.1//EN" "http://www.w3.org/Graphics/SVG/1.1/DTD/svg11.dtd">
<svg version="1.1" id="svg-source" xmlns="http://www.w3.org/2000/svg" xmlns:xlink="http://www.w3.org/1999/xlink" x="0px" y="0px"
	 width="400px" height="200px" viewBox="0 0 400 200" enable-background="new 0 0 400 200" xml:space="preserve">
<g id="ebay">
	<g>
		<path fill="#E83D41" d="M310.4,89c8.8,0,16-7.2,16-16s-7.2-16-16-16c-8.8,0-16,7.2-16,16S301.6,89,310.4,89"/>
		<g>
			<g>
				<g>
					<path fill="#FFFFFF" d="M302.9,70.7c-2.5,0-2.6,2-2.6,2.5c0,0-0.1,2.3,2.6,2.3c2.3,0,2.4-1.4,2.4-1.4l-1.1,0
						c0,0-0.2,0.8-1.4,0.8c-1.5,0-1.5-1.5-1.5-1.5h4.1C305.4,73.4,305.7,70.7,302.9,70.7z M301.4,72.7c0,0,0.1-1.3,1.5-1.3
						c1.5,0,1.5,1.3,1.5,1.3H301.4z"/>
				</g>
			</g>
			<g>
				<g>
					<path fill="#FFFFFF" d="M308.2,70.7c-1.3,0-1.8,0.8-1.8,0.8v-2.5h-1l0,5.4c0,0,0,0.6,0,1h1l0-0.6c0,0,0.5,0.8,1.8,0.8
						c1.4,0,2.4-0.8,2.4-2.4C310.7,71.6,309.5,70.7,308.2,70.7z M308,74.8c-1.6,0-1.6-1.7-1.6-1.7s-0.1-1.7,1.6-1.7
						c1.6,0,1.6,1.7,1.6,1.7S309.6,74.8,308,74.8z"/>
				</g>
			</g>
			<g>
				<g>
					<path fill="#FFFFFF" d="M315.4,74.3c0-0.7,0-1.3,0-1.8c0-0.5,0-1.7-2.2-1.8c0,0-2.1-0.2-2.3,1.4h1.1c0,0,0.1-0.7,1.2-0.7
						c1,0,1.2,0.5,1.2,1.2c0,0-0.9,0-1.2,0c-0.5,0-2.4,0.1-2.6,1.2c-0.2,1.4,1,1.8,1.9,1.8c0.9,0,1.5-0.3,1.9-0.8l0,0.6l0.9,0
						C315.4,75.4,315.4,75,315.4,74.3z M312.7,74.9c0,0-1,0-1.1-0.8c-0.1-0.9,1.6-0.8,1.6-0.8l1.2,0
						C314.4,73.2,314.6,74.9,312.7,74.9z"/>
				</g>
			</g>
			<polygon fill="#FFFFFF" points="314.8,70.9 316,70.9 317.7,74.4 319.5,70.9 320.6,70.9 317.4,77.1 316.3,77.1 317.2,75.4 			"/>
		</g>
	</g>
</g>
<g id="b">
	<g>
		<path fill="#E52620" d="M236.8,89c8.8,0,16-7.2,16-16s-7.2-16-16-16s-16,7.2-16,16S228,89,236.8,89"/>
		<path fill="#FFFFFF" d="M238.6,68.5c3.4,0,6.2,2.8,6.2,6.2c0,3.4-2.8,6.2-6.2,6.2H235c-3.4,0-6.2-2.8-6.2-6.2v-8.3
			c0-0.8,0.7-1.4,1.4-1.4c0.8,0,1.4,0.7,1.4,1.4c0,2.8,0,5.5,0,8.3c0,1.8,1.5,3.3,3.3,3.3h3.5c1.8,0,3.3-1.5,3.3-3.3
			c0-1.8-1.5-3.3-3.3-3.3h-3.8c-0.8,0-1.4-0.7-1.4-1.4c0-0.8,0.7-1.4,1.4-1.4H238.6L238.6,68.5z"/>
	</g>
</g>
<g id="google-plus">
	<g>
		<path fill="#C31718" d="M163.2,89c8.8,0,16-7.2,16-16s-7.2-16-16-16c-8.8,0-16,7.2-16,16S154.4,89,163.2,89"/>
		<path fill="#FFFFFF" d="M160.6,80.2c-1.9,0-3.3-1.2-3.3-2.6c0-1.4,1.7-2.6,3.6-2.6c0.4,0,0.9,0.1,1.2,0.2c1,0.7,1.8,1.1,2,1.9
			c0,0.2,0.1,0.3,0.1,0.5C164.2,79,163.2,80.2,160.6,80.2 M161.1,71.7c-1.3,0-2.5-1.4-2.7-3.1c-0.2-1.7,0.6-3,1.9-2.9
			c1.3,0,2.5,1.4,2.7,3.1C163.2,70.4,162.3,71.7,161.1,71.7 M163.7,74.2c-0.4-0.3-1.3-1.1-1.3-1.5c0-0.5,0.2-0.8,1-1.4
			c0.8-0.6,1.4-1.5,1.4-2.6c0-1.2-0.6-2.5-1.6-2.9h1.6l1.1-0.8h-5c-2.2,0-4.3,1.7-4.3,3.6c0,2,1.5,3.6,3.8,3.6c0.2,0,0.3,0,0.5,0
			c-0.1,0.3-0.3,0.6-0.3,0.9c0,0.6,0.3,1,0.7,1.4c-0.3,0-0.6,0-0.9,0c-2.8,0-4.9,1.8-4.9,3.6c0,1.8,2.3,2.9,5.1,2.9
			c3.1,0,4.9-1.8,4.9-3.6C165.4,76,165,75.1,163.7,74.2 M170.9,71.8H169v-1.9h-1.6v1.9h-1.9v1.6h1.9v1.9h1.6v-1.9h1.9
			C170.9,73.4,170.9,71.8,170.9,71.8z"/>
	</g>
</g>
<g id="windows">
	<g>
		<path fill="#2BAAE2" d="M89.6,89c8.8,0,16-7.2,16-16s-7.2-16-16-16c-8.8,0-16,7.2-16,16S80.8,89,89.6,89"/>
		<path id="path13" fill="#FFFFFF" d="M82.2,68.1l6-0.8l0,5.8l-6,0L82.2,68.1z M88.2,73.7l0,5.8l-6-0.8v-5L88.2,73.7z M89,67.1
			l8-1.2v7l-8,0.1V67.1z M97,73.8l0,7l-8-1.1l0-5.9L97,73.8z"/>
	</g>
</g>
<g id="soundcloud">
	<g>
		<path fill="#E7411F" d="M16,89c8.8,0,16-7.2,16-16s-7.2-16-16-16C7.2,57,0,64.2,0,73S7.2,89,16,89"/>
		<path fill="#FFFFFF" d="M8.8,75.6C8.8,75.6,8.8,75.6,8.8,75.6L9,74.1l-0.2-1.4c0,0,0-0.1-0.1-0.1c0,0-0.1,0-0.1,0.1l-0.2,1.4
			L8.8,75.6C8.7,75.6,8.7,75.6,8.8,75.6z M8.2,75L8.2,75L8.2,75L8.2,75z M8.2,75.1C8.2,75.1,8.2,75,8.2,75.1l0.2-0.9l-0.1-0.9
			c0,0,0-0.1-0.1-0.1c0,0-0.1,0-0.1,0.1L8,74.1L8.2,75.1C8.1,75,8.1,75.1,8.2,75.1z M9.5,72.4C9.5,72.4,9.4,72.3,9.5,72.4
			c-0.1-0.1-0.2,0-0.2,0c0,0-0.1,1.7-0.1,1.7l0.1,1.6c0,0,0,0.1,0.1,0.1c0,0,0.1,0,0.1-0.1l0.2-1.6L9.5,72.4z M10,75.9
			C10.1,75.9,10.1,75.9,10,75.9L10,75.9l0.3-1.8l-0.2-1.8c0-0.1,0-0.1-0.1-0.1c-0.1,0-0.1,0-0.1,0.1l-0.1,1.8L10,75.9
			C9.9,75.9,10,75.9,10,75.9z M10.7,75.9c0.1,0,0.1,0,0.1-0.1l0,0l0.2-1.7l-0.2-1.6c0-0.1-0.1-0.1-0.1-0.1c-0.1,0-0.1,0-0.1,0.1
			l-0.1,1.6l0.1,1.7C10.6,75.9,10.6,75.9,10.7,75.9z M11.6,74.1l-0.1-2.6c0-0.1-0.1-0.1-0.1-0.1s-0.1,0.1-0.1,0.1l-0.1,2.6l0.1,1.7
			c0,0.1,0.1,0.1,0.1,0.1s0.1-0.1,0.1-0.1v0L11.6,74.1z M12,76c0.1,0,0.1-0.1,0.1-0.1v0l0.1-1.7l-0.1-3.2c0-0.1-0.1-0.1-0.1-0.1
			s-0.1,0.1-0.1,0.1l-0.1,3.2l0.1,1.7C11.8,75.9,11.9,76,12,76z M12.6,70.5c-0.1,0-0.1,0.1-0.1,0.1l-0.1,3.5l0.1,1.7
			c0,0.1,0.1,0.1,0.1,0.1c0.1,0,0.1-0.1,0.1-0.1v0l0.1-1.7l-0.1-3.5C12.8,70.5,12.7,70.5,12.6,70.5z M13.3,76c0.1,0,0.2-0.1,0.2-0.2
			v0l0.1-1.7l-0.1-3.6c0-0.1-0.1-0.2-0.2-0.2c-0.1,0-0.2,0.1-0.2,0.2L13,74.1l0.1,1.7C13.1,75.9,13.2,76,13.3,76z M13.9,76
			c0.1,0,0.2-0.1,0.2-0.2v0l0.1-1.7l-0.1-3.5c0-0.1-0.1-0.2-0.2-0.2c-0.1,0-0.2,0.1-0.2,0.2l-0.1,3.5l0.1,1.7
			C13.8,75.9,13.8,76,13.9,76z M14.9,74.1l-0.1-3.4c0-0.1-0.1-0.2-0.2-0.2c-0.1,0-0.2,0.1-0.2,0.2l-0.1,3.4l0.1,1.6
			c0,0.1,0.1,0.2,0.2,0.2c0.1,0,0.2-0.1,0.2-0.2v0L14.9,74.1z M15.3,76c0.1,0,0.2-0.1,0.2-0.2v0l0.1-1.6l-0.1-4.1
			c0-0.1-0.1-0.2-0.2-0.2c-0.1,0-0.2,0.1-0.2,0.2L15,74.1c0,0,0.1,1.6,0.1,1.6C15.1,75.9,15.2,76,15.3,76z M16,69.5
			c-0.1,0-0.2,0.1-0.2,0.2l-0.1,4.4l0.1,1.6c0,0.1,0.1,0.2,0.2,0.2c0.1,0,0.2-0.1,0.2-0.2v0l0.1-1.6l-0.1-4.4
			C16.2,69.6,16.1,69.5,16,69.5z M16.6,76c0,0,5.4,0,5.5,0c1.1,0,2-0.9,2-2c0-1.1-0.9-2-2-2c-0.3,0-0.5,0.1-0.8,0.2
			c-0.2-1.8-1.6-3.2-3.5-3.2c-0.4,0-0.9,0.1-1.3,0.2c-0.1,0.1-0.2,0.1-0.2,0.2v6.2C16.4,75.8,16.5,75.9,16.6,76z"/>
	</g>
</g>
<g id="skype">
	<g>
		<path fill="#209DD9" d="M384,145.3c8.8,0,16-7.2,16-16s-7.2-16-16-16c-8.8,0-16,7.2-16,16S375.2,145.3,384,145.3"/>
		<path fill="#FFFFFF" d="M391.5,131c0.1-0.5,0.2-1.1,0.2-1.6c0-4.2-3.4-7.6-7.6-7.6c-0.4,0-0.9,0-1.3,0.1c-0.7-0.4-1.5-0.7-2.4-0.7
			c-2.4,0-4.4,2-4.4,4.4c0,0.8,0.2,1.6,0.6,2.2c-0.1,0.5-0.2,1-0.2,1.5c0,4.2,3.4,7.6,7.6,7.6c0.5,0,0.9,0,1.4-0.1
			c0.6,0.3,1.3,0.5,2.1,0.5c2.4,0,4.4-2,4.4-4.4C392,132.3,391.8,131.6,391.5,131z M388,133c-0.4,0.5-0.9,0.9-1.6,1.2
			c-0.7,0.3-1.5,0.4-2.4,0.4c-1.1,0-2-0.2-2.7-0.6c-0.5-0.3-0.9-0.7-1.3-1.1c-0.3-0.5-0.5-0.9-0.5-1.4c0-0.3,0.1-0.5,0.3-0.7
			c0.2-0.2,0.5-0.3,0.8-0.3c0.3,0,0.5,0.1,0.7,0.2c0.2,0.1,0.3,0.4,0.4,0.7c0.1,0.3,0.3,0.6,0.4,0.8c0.1,0.2,0.4,0.4,0.6,0.5
			c0.3,0.1,0.6,0.2,1.1,0.2c0.6,0,1.1-0.1,1.5-0.4c0.4-0.3,0.6-0.6,0.6-1c0-0.3-0.1-0.5-0.3-0.7c-0.2-0.2-0.5-0.3-0.8-0.4
			c-0.3-0.1-0.8-0.2-1.4-0.3c-0.8-0.2-1.5-0.4-2-0.6c-0.5-0.2-1-0.6-1.3-1c-0.3-0.4-0.5-0.9-0.5-1.5c0-0.6,0.2-1.1,0.5-1.5
			c0.3-0.4,0.8-0.8,1.5-1c0.6-0.2,1.4-0.4,2.2-0.4c0.7,0,1.3,0.1,1.8,0.2c0.5,0.2,0.9,0.4,1.3,0.6c0.3,0.3,0.6,0.5,0.7,0.8
			c0.2,0.3,0.2,0.6,0.2,0.9c0,0.3-0.1,0.5-0.3,0.7c-0.2,0.2-0.5,0.3-0.8,0.3c-0.3,0-0.5-0.1-0.7-0.2c-0.1-0.1-0.3-0.3-0.5-0.6
			c-0.2-0.4-0.4-0.6-0.7-0.8c-0.3-0.2-0.7-0.3-1.3-0.3c-0.5,0-1,0.1-1.3,0.3c-0.3,0.2-0.5,0.4-0.5,0.7c0,0.2,0.1,0.3,0.2,0.4
			c0.1,0.1,0.3,0.2,0.5,0.3c0.2,0.1,0.4,0.2,0.6,0.2c0.2,0.1,0.6,0.1,1.1,0.3c0.6,0.1,1.2,0.3,1.7,0.4c0.5,0.2,0.9,0.4,1.3,0.6
			c0.4,0.2,0.7,0.5,0.9,0.9c0.2,0.4,0.3,0.8,0.3,1.3C388.5,131.9,388.4,132.5,388,133z"/>
	</g>
</g>
<g id="android">
	<g>
		<path fill="#9AC43B" d="M310.4,145.3c8.8,0,16-7.2,16-16s-7.2-16-16-16c-8.8,0-16,7.2-16,16S301.6,145.3,310.4,145.3"/>
		<path fill="#FFFFFF" d="M312.8,122.7l0.2-0.3l0.2-0.3l0.4-0.6c0-0.1,0-0.2,0-0.2c-0.1,0-0.2,0-0.2,0l-0.4,0.6l-0.2,0.3l-0.2,0.3
			c-0.6-0.2-1.2-0.3-1.8-0.3c-0.7,0-1.3,0.1-1.8,0.3l-0.2-0.3l-0.2-0.3l-0.4-0.6c0-0.1-0.1-0.1-0.2,0c-0.1,0-0.1,0.1,0,0.2l0.4,0.6
			l0.2,0.3l0.2,0.3c-1.3,0.6-2.2,1.8-2.2,3.1h8.7C315,124.4,314.1,123.3,312.8,122.7z M308.8,124.5c-0.3,0-0.5-0.2-0.5-0.5
			c0-0.3,0.2-0.5,0.5-0.5c0.3,0,0.5,0.2,0.5,0.5C309.3,124.3,309.1,124.5,308.8,124.5z M312.5,124.5c-0.3,0-0.5-0.2-0.5-0.5
			c0-0.3,0.2-0.5,0.5-0.5c0.3,0,0.5,0.2,0.5,0.5C313,124.3,312.8,124.5,312.5,124.5z"/>
		<path fill="#FFFFFF" d="M306.4,126.4L306.4,126.4l-0.1,0.8v0.6v5.4c0,0.5,0.4,1,1,1h0.7c0,0.1,0,0.2,0,0.3v0.1v0.3v1.6
			c0,0.5,0.4,0.9,0.9,0.9c0.5,0,0.9-0.4,0.9-0.9v-1.6v-0.3v-0.1c0-0.1,0-0.2,0-0.3h1.7c0,0.1,0,0.2,0,0.3v0.1v0.3v1.6
			c0,0.5,0.4,0.9,0.9,0.9c0.5,0,0.9-0.4,0.9-0.9v-1.6v-0.3v-0.1c0-0.1,0-0.2,0-0.3h0.7c0.5,0,1-0.4,1-1v-5.4v-0.6v-0.8h-0.1
			C314.9,126.4,306.4,126.4,306.4,126.4z"/>
		<path fill="#FFFFFF" d="M304.8,126.4c-0.5,0-0.9,0.4-0.9,0.9v4c0,0.5,0.4,0.9,0.9,0.9c0.5,0,0.9-0.4,0.9-0.9v-4
			C305.7,126.8,305.3,126.4,304.8,126.4z"/>
		<path fill="#FFFFFF" d="M316.5,126.4c-0.5,0-0.9,0.4-0.9,0.9v4c0,0.5,0.4,0.9,0.9,0.9c0.5,0,0.9-0.4,0.9-0.9v-4
			C317.5,126.8,317.1,126.4,316.5,126.4z"/>
	</g>
</g>
<g id="vimeo">
	<g>
		<path fill="#24ACE4" d="M236.8,145.3c8.8,0,16-7.2,16-16s-7.2-16-16-16c-8.8,0-16,7.2-16,16S228,145.3,236.8,145.3"/>
		<path fill="#FFFFFF" d="M244.8,125.9c-0.1,1.6-1.2,3.7-3.3,6.4c-2.2,2.8-4,4.2-5.5,4.2c-0.9,0-1.7-0.9-2.4-2.6
			c-0.4-1.6-0.9-3.2-1.3-4.7c-0.5-1.7-1-2.6-1.5-2.6c-0.1,0-0.5,0.3-1.3,0.8l-0.8-1c0.8-0.7,1.6-1.4,2.3-2.1
			c1.1-0.9,1.8-1.4,2.4-1.4c1.2-0.1,2,0.7,2.3,2.5c0.3,2,0.5,3.2,0.6,3.7c0.4,1.6,0.8,2.4,1.2,2.4c0.3,0,0.8-0.5,1.5-1.6
			c0.7-1.1,1-1.9,1.1-2.4c0.1-0.9-0.3-1.4-1.1-1.4c-0.4,0-0.8,0.1-1.2,0.3c0.8-2.6,2.3-3.8,4.5-3.7
			C244.1,122.8,244.9,123.9,244.8,125.9z"/>
	</g>
</g>
<g id="paypal">
	<g>
		<path fill="#0E447E" d="M163.2,145.3c8.8,0,16-7.2,16-16s-7.2-16-16-16c-8.8,0-16,7.2-16,16S154.4,145.3,163.2,145.3"/>
		<path fill="#FFFFFF" d="M171.2,125.2c0-0.7-0.2-1.2-0.5-1.7c-0.8-1.4-2.4-2.1-3.9-2.1h-8l-3.6,15.8h4.7l1.1-5.2h3.4
			c0,0,0.1,0,0.1,0c1.9,0,3.6-0.7,4.8-2c0.8-0.8,1.4-1.9,1.7-3.2C171.2,126.2,171.2,125.7,171.2,125.2z M166.6,126.8
			c-0.1,0.5-0.4,1-0.8,1.4c-0.1,0.1-0.3,0.3-0.5,0.4c-0.4,0.3-0.9,0.4-1.4,0.4h-2.2l0.9-4l0.1-0.3h2.3c0.4,0,0.7,0.1,1,0.3
			C166.6,125.3,166.9,126,166.6,126.8z"/>
	</g>
</g>
<g id="linkedin">
	<g>
		<path fill="#0D78B6" d="M89.6,145.3c8.8,0,16-7.2,16-16s-7.2-16-16-16c-8.8,0-16,7.2-16,16S80.8,145.3,89.6,145.3"/>
		<path fill="#FFFFFF" d="M85.1,136H82v-10h3.1C85.1,126,85.1,136,85.1,136z M83.5,124.7L83.5,124.7c-1.2,0-1.9-0.8-1.9-1.7
			c0-1,0.8-1.7,1.9-1.7c1.2,0,1.9,0.7,1.9,1.7C85.4,124,84.7,124.7,83.5,124.7z M97.6,136h-3.5v-5.2c0-1.4-0.6-2.3-1.8-2.3
			c-0.9,0-1.4,0.6-1.7,1.2c-0.1,0.2-0.1,0.5-0.1,0.8v5.4H87c0,0,0-9.1,0-10h3.5v1.6c0.2-0.7,1.3-1.7,3.1-1.7c2.2,0,4,1.4,4,4.5
			C97.6,130.4,97.6,136,97.6,136z"/>
	</g>
</g>
<g id="deviantart">
	<g>
		<path fill="#4D5F52" d="M16,145.3c8.8,0,16-7.2,16-16s-7.2-16-16-16c-8.8,0-16,7.2-16,16S7.2,145.3,16,145.3"/>
		<path fill="#FFFFFF" d="M13.8,127.5c3.6-1,6.6,1.1,6.6,1.1l-2.5,0.7l-0.7-1.3c-0.7-0.1-1.4-0.2-2.3,0l1.7,3.4l7.3-2.1
			c0,0-2.7-4.2-10.6-2.8c0,0-0.1,0-0.1,0l-0.8-1.6l-2.3,0.3l0.9,1.9c-4.8,2-2.7,6.7-2.7,6.7l7.3-2.1L13.8,127.5z M10.5,131.3
			c0,0-0.7-1.6,1.4-2.9l1.1,2.2L10.5,131.3z"/>
	</g>
</g>
<g id="pinterest">
	<g>
		<path fill="#CD3434" d="M384,200c8.8,0,16-7.2,16-16c0-8.8-7.2-16-16-16c-8.8,0-16,7.2-16,16C368,192.8,375.2,200,384,200"/>
		<path fill="#FFFFFF" d="M384,176c-4.4,0-8,3.6-8,8c0,3.3,2,6.1,4.8,7.3c0-0.6,0-1.2,0.1-1.8c0.2-0.6,1-4.4,1-4.4s-0.3-0.5-0.3-1.3
			c0-1.2,0.7-2.1,1.5-2.1c0.7,0,1.1,0.5,1.1,1.2c0,0.7-0.5,1.8-0.7,2.8c-0.2,0.9,0.4,1.5,1.3,1.5c1.5,0,2.5-1.9,2.5-4.3
			c0-1.8-1.2-3.1-3.3-3.1c-2.4,0-3.9,1.8-3.9,3.8c0,0.7,0.2,1.2,0.5,1.6c0.1,0.2,0.2,0.2,0.1,0.4c0,0.1-0.1,0.5-0.2,0.6
			c-0.1,0.2-0.2,0.3-0.4,0.2c-1.1-0.5-1.6-1.7-1.6-3.1c0-2.3,1.9-5,5.7-5c3.1,0,5.1,2.2,5.1,4.6c0,3.1-1.7,5.5-4.3,5.5
			c-0.9,0-1.7-0.5-2-1c0,0-0.5,1.8-0.6,2.2c-0.2,0.6-0.5,1.2-0.8,1.7c0.7,0.2,1.5,0.3,2.3,0.3c4.4,0,8-3.6,8-8
			C392,179.5,388.4,176,384,176"/>
	</g>
</g>
<g id="instagram">
	<g>
		<path fill="#35679A" d="M310.4,200c8.8,0,16-7.2,16-16s-7.2-16-16-16c-8.8,0-16,7.2-16,16S301.6,200,310.4,200"/>
		<path fill="#FFFFFF" d="M315.3,176h-9.8c-1.7,0-3.1,1.4-3.1,3.1v3.3v6.6c0,1.7,1.4,3.1,3.1,3.1h9.8c1.7,0,3.1-1.4,3.1-3.1v-6.6
			v-3.3C318.4,177.4,317,176,315.3,176z M316.2,177.8l0.4,0v0.4v2.4l-2.7,0l0-2.7L316.2,177.8z M308.1,182.4
			c0.5-0.7,1.3-1.2,2.3-1.2s1.8,0.5,2.3,1.2c0.3,0.5,0.5,1,0.5,1.6c0,1.6-1.3,2.8-2.8,2.8s-2.8-1.3-2.8-2.8
			C307.6,183.4,307.8,182.8,308.1,182.4z M316.8,188.9c0,0.8-0.7,1.5-1.5,1.5h-9.8c-0.8,0-1.5-0.7-1.5-1.5v-6.6h2.4
			c-0.2,0.5-0.3,1.1-0.3,1.6c0,2.4,2,4.4,4.4,4.4c2.4,0,4.4-2,4.4-4.4c0-0.6-0.1-1.1-0.3-1.6h2.4L316.8,188.9L316.8,188.9z"/>
	</g>
</g>
<g id="flickr">
	<g>
		<path fill="#FFFFFF" d="M236.8,200c8.8,0,16-7.2,16-16s-7.2-16-16-16c-8.8,0-16,7.2-16,16S228,200,236.8,200"/>
		<circle fill="#E8328A" cx="241.3" cy="184" r="3.5"/>
		<path fill="#2864AE" d="M235.8,184c0,1.9-1.6,3.5-3.5,3.5c-1.9,0-3.5-1.6-3.5-3.5s1.6-3.5,3.5-3.5
			C234.3,180.5,235.8,182.1,235.8,184z"/>
	</g>
</g>
<g id="google-drive">
	<g>
		<path fill="#343434" d="M163.2,200c8.8,0,16-7.2,16-16s-7.2-16-16-16c-8.8,0-16,7.2-16,16S154.4,200,163.2,200"/>
		<polygon fill="#527BBD" points="160.8,186.9 160.7,186.9 160.7,187 158.5,190.8 158.4,191 158.7,191 168.8,191 168.9,191 
			168.9,191 171.1,187.2 171.2,186.9 170.9,186.9 		"/>
		<polygon fill="#FDCF49" points="166.4,186 166.5,186.1 166.6,186.1 170.9,186 171.2,186 171.1,185.8 166,177.1 166,177 165.9,177 
			161.5,177 161.3,177 161.4,177.2 		"/>
		<polygon fill="#13A962" points="162.8,181.5 162.8,181.4 160.6,177.7 160.4,177.4 160.3,177.7 155.2,186.4 155.2,186.5 
			155.2,186.6 157.4,190.4 157.6,190.6 157.7,190.4 162.8,181.6 		"/>
	</g>
</g>
<g id="dropbox">
	<g>
		<path fill="#2864AE" d="M89.6,200c8.8,0,16-7.2,16-16s-7.2-16-16-16c-8.8,0-16,7.2-16,16S80.8,200,89.6,200"/>
		<polygon fill="#FFFFFF" points="81.6,184.8 86.3,187.9 89.6,185.2 84.9,182.2 		"/>
		<polygon fill="#FFFFFF" points="86.3,176.6 81.6,179.6 84.9,182.2 89.6,179.3 		"/>
		<polygon fill="#FFFFFF" points="97.6,179.6 92.9,176.6 89.6,179.3 94.3,182.2 		"/>
		<polygon fill="#FFFFFF" points="89.6,185.2 92.9,187.9 97.6,184.8 94.3,182.2 		"/>
		<polygon fill="#FFFFFF" points="89.6,185.8 86.3,188.5 84.9,187.6 84.9,188.6 89.6,191.4 94.3,188.6 94.3,187.6 92.9,188.5 		"/>
	</g>
</g>
<g id="dribbble">
	<g>
		<path fill="#E94190" d="M16,200c8.8,0,16-7.2,16-16s-7.2-16-16-16c-8.8,0-16,7.2-16,16S7.2,200,16,200"/>
		<path fill="#FFFFFF" d="M23.8,182.4c-0.1-0.5-0.3-1-0.5-1.5c-0.2-0.5-0.4-0.9-0.7-1.4c-0.3-0.4-0.6-0.8-1-1.2
			c-0.4-0.4-0.8-0.7-1.2-1c-0.4-0.3-0.9-0.5-1.4-0.7c-0.5-0.2-1-0.4-1.5-0.5c-0.5-0.1-1.1-0.2-1.6-0.2s-1.1,0.1-1.6,0.2
			c-0.5,0.1-1,0.3-1.5,0.5c-0.5,0.2-0.9,0.4-1.4,0.7c-0.4,0.3-0.8,0.6-1.2,1c-0.4,0.4-0.7,0.8-1,1.2c-0.3,0.4-0.5,0.9-0.7,1.4
			c-0.2,0.5-0.4,1-0.5,1.5C8.1,182.9,8,183.5,8,184c0,0.5,0.1,1.1,0.2,1.6c0.1,0.5,0.3,1,0.5,1.5c0.2,0.5,0.4,0.9,0.7,1.4
			c0.3,0.4,0.6,0.8,1,1.2c0.4,0.4,0.8,0.7,1.2,1c0.4,0.3,0.9,0.5,1.4,0.7c0.5,0.2,1,0.4,1.5,0.5c0.5,0.1,1.1,0.2,1.6,0.2
			s1.1-0.1,1.6-0.2c0.5-0.1,1-0.3,1.5-0.5c0.5-0.2,0.9-0.4,1.4-0.7c0.4-0.3,0.8-0.6,1.2-1c0.4-0.4,0.7-0.8,1-1.2
			c0.3-0.4,0.5-0.9,0.7-1.4c0.2-0.5,0.4-1,0.5-1.5c0.1-0.5,0.2-1.1,0.2-1.6S23.9,182.9,23.8,182.4z M22.8,183.9
			c-0.1,0-2.4-0.5-4.8-0.2c0-0.1-0.1-0.2-0.1-0.4c-0.1-0.3-0.3-0.7-0.5-1c2.7-1.1,3.8-2.7,3.8-2.7C22.2,180.8,22.8,182.3,22.8,183.9
			z M20.5,178.9c0,0-1,1.5-3.6,2.5c-1.2-2.1-2.4-3.9-2.6-4c0.5-0.1,1.1-0.2,1.6-0.2C17.7,177.2,19.3,177.8,20.5,178.9z M14.4,177.4
			C14.4,177.4,14.4,177.4,14.4,177.4C14.4,177.4,14.4,177.4,14.4,177.4C14.3,177.4,14.4,177.4,14.4,177.4z M13.1,177.8
			c0.1,0.1,1.4,1.8,2.5,3.9c-3.3,0.9-6.1,0.8-6.3,0.8C9.8,180.5,11.2,178.7,13.1,177.8z M9.2,184c0-0.1,0-0.1,0-0.2
			c0.1,0,3.5,0.1,7-1c0.2,0.4,0.4,0.8,0.6,1.2c-0.1,0-0.2,0.1-0.3,0.1c-3.7,1.2-5.6,4.5-5.6,4.5s0,0,0,0
			C9.8,187.4,9.2,185.8,9.2,184z M16,190.8c-1.7,0-3.2-0.6-4.4-1.6c0.1,0.1,0.2,0.1,0.2,0.1s1.3-2.9,5.4-4.3c0,0,0,0,0,0
			c1,2.5,1.4,4.6,1.5,5.2C17.8,190.6,16.9,190.8,16,190.8z M19.8,189.7c-0.1-0.4-0.4-2.4-1.3-4.9c2.2-0.4,4.1,0.3,4.3,0.3
			C22.4,187,21.4,188.6,19.8,189.7z"/>
	</g>
</g>
<g id="behance">
	<g>
		<path fill="#010202" d="M384,32c8.8,0,16-7.2,16-16s-7.2-16-16-16s-16,7.2-16,16S375.2,32,384,32"/>
		<path fill="#FFFFFF" d="M383.3,12c0.3,0.4,0.5,0.9,0.5,1.5c0,0.6-0.2,1.1-0.5,1.5c-0.2,0.2-0.4,0.4-0.8,0.6
			c0.5,0.2,0.9,0.5,1.1,0.9c0.3,0.4,0.4,0.9,0.4,1.4c0,0.6-0.1,1.1-0.4,1.6c-0.2,0.3-0.4,0.6-0.7,0.8c-0.3,0.2-0.7,0.4-1.1,0.5
			c-0.4,0.1-0.9,0.1-1.4,0.1H376v-9.9h4.8C382,10.9,382.8,11.3,383.3,12z M378,12.6v2.2h2.4c0.4,0,0.8-0.1,1-0.2
			c0.3-0.2,0.4-0.5,0.4-0.9c0-0.5-0.2-0.8-0.5-0.9c-0.3-0.1-0.7-0.2-1.2-0.2H378z M378,16.5v2.6h2.4c0.4,0,0.8-0.1,1-0.2
			c0.4-0.2,0.7-0.6,0.7-1.2c0-0.5-0.2-0.9-0.6-1.1c-0.2-0.1-0.6-0.2-1-0.2L378,16.5L378,16.5z M390.1,13.7c0.5,0.2,0.9,0.6,1.3,1.1
			c0.3,0.4,0.5,0.9,0.6,1.5c0.1,0.3,0.1,0.8,0.1,1.5h-5.3c0,0.7,0.3,1.2,0.8,1.5c0.3,0.2,0.6,0.3,1.1,0.3c0.4,0,0.8-0.1,1.1-0.3
			c0.1-0.1,0.3-0.3,0.4-0.5h2c-0.1,0.4-0.3,0.9-0.7,1.3c-0.7,0.7-1.6,1.1-2.8,1.1c-1,0-1.8-0.3-2.6-0.9c-0.7-0.6-1.1-1.6-1.1-2.9
			c0-1.3,0.3-2.2,1-2.9c0.7-0.7,1.5-1,2.6-1C389,13.3,389.6,13.4,390.1,13.7z M387.2,15.3c-0.3,0.3-0.4,0.7-0.5,1.1h3.3
			c0-0.5-0.2-0.9-0.5-1.2c-0.3-0.3-0.7-0.4-1.1-0.4C387.9,14.9,387.5,15,387.2,15.3z M390.5,11.4h-4.2v1.2h4.2V11.4z"/>
	</g>
</g>
<g id="tumblr">
	<g>
		<path fill="#36475D" d="M310.4,32c8.8,0,16-7.2,16-16c0-8.8-7.2-16-16-16s-16,7.2-16,16C294.4,24.8,301.6,32,310.4,32"/>
		<path fill="#FFFFFF" d="M310.6,8v4h3.8v2.5h-3.8v4.1c0,0.9,0,1.5,0.1,1.8c0.1,0.3,0.3,0.5,0.5,0.6c0.4,0.2,0.8,0.3,1.2,0.3
			c0.8,0,1.6-0.3,2.4-0.8v2.5c-0.7,0.3-1.3,0.5-1.9,0.7c-0.6,0.1-1.2,0.2-1.8,0.2c-0.7,0-1.4-0.1-1.9-0.3c-0.6-0.2-1-0.4-1.4-0.8
			c-0.4-0.3-0.7-0.7-0.8-1.1c-0.2-0.4-0.2-0.9-0.2-1.7v-5.6H305v-2.3c0.6-0.2,1.2-0.5,1.6-0.9c0.4-0.4,0.8-0.8,1.1-1.4
			c0.3-0.5,0.5-1.2,0.6-2H310.6z"/>
	</g>
</g>
<g id="wordpress">
	<g>
		<path fill="#343434" d="M236.8,32c8.8,0,16-7.2,16-16s-7.2-16-16-16c-8.8,0-16,7.2-16,16S228,32,236.8,32"/>
		<path fill="#FFFFFF" d="M228.8,16c0,3.2,1.8,5.9,4.5,7.2l-3.8-10.5C229,13.7,228.8,14.8,228.8,16z M242.2,15.6
			c0-1-0.4-1.7-0.7-2.2c-0.4-0.7-0.8-1.2-0.8-1.9c0-0.7,0.6-1.4,1.3-1.4c0,0,0.1,0,0.1,0c-1.4-1.3-3.3-2.1-5.4-2.1
			c-2.8,0-5.3,1.4-6.7,3.6c0.2,0,0.4,0,0.5,0c0.8,0,2.1-0.1,2.1-0.1c0.4,0,0.5,0.6,0.1,0.7c0,0-0.4,0.1-0.9,0.1l2.9,8.7l1.8-5.2
			l-1.2-3.4c-0.4,0-0.8-0.1-0.8-0.1c-0.4,0-0.4-0.7,0.1-0.7c0,0,1.3,0.1,2.1,0.1c0.8,0,2.1-0.1,2.1-0.1c0.4,0,0.5,0.6,0.1,0.7
			c0,0-0.4,0.1-0.9,0.1l2.9,8.6l0.8-2.7C242,17.1,242.2,16.3,242.2,15.6z M236.9,16.7l-2.4,7c0.7,0.2,1.5,0.3,2.3,0.3
			c0.9,0,1.8-0.2,2.7-0.5c0,0,0-0.1-0.1-0.1L236.9,16.7z M243.8,12.2c0,0.3,0.1,0.5,0.1,0.8c0,0.8-0.2,1.7-0.6,2.9l-2.4,7.1
			c2.4-1.4,4-4,4-6.9C244.8,14.6,244.4,13.3,243.8,12.2z"/>
	</g>
</g>
<g id="youtube">
	<g>
		<path fill="#CD3434" d="M163.2,32c8.8,0,16-7.2,16-16s-7.2-16-16-16c-8.8,0-16,7.2-16,16S154.4,32,163.2,32"/>
		<path fill="#FFFFFF" d="M166.3,16l-5.2,3.1v-6.2L166.3,16z M171.2,18.9v-5.7c0,0,0-2.8-2.8-2.8H158c0,0-2.8,0-2.8,2.8v5.7
			c0,0,0,2.8,2.8,2.8h10.5C168.4,21.6,171.2,21.6,171.2,18.9"/>
	</g>
</g>
<g id="youtube-2">
	<g>
		<path fill="#CD3434" d="M89.6,32c8.8,0,16-7.2,16-16s-7.2-16-16-16s-16,7.2-16,16S80.8,32,89.6,32"/>
		<path fill="#FFFFFF" d="M92.9,10.6v3c-0.1,0.1-0.2,0.2-0.2,0.2c-0.1,0.1-0.2,0.1-0.2,0.1c-0.1,0-0.1,0-0.2-0.1
			c0,0-0.1-0.1-0.1-0.2v-3.1h-0.8V14c0,0.2,0,0.4,0.1,0.5c0.1,0.1,0.2,0.2,0.4,0.2c0.2,0,0.3,0,0.5-0.1c0.2-0.1,0.3-0.2,0.5-0.4v0.4
			h0.8v-4L92.9,10.6L92.9,10.6z M90.4,10.8c-0.2-0.2-0.5-0.3-0.8-0.3c-0.4,0-0.7,0.1-0.9,0.3c-0.2,0.2-0.3,0.4-0.3,0.7v2.1
			c0,0.3,0.1,0.6,0.3,0.8c0.2,0.2,0.5,0.3,0.9,0.3c0.4,0,0.7-0.1,0.9-0.3c0.2-0.2,0.3-0.5,0.3-0.8v-2.1C90.7,11.2,90.6,11,90.4,10.8
			z M89.8,13.7c0,0.1,0,0.2-0.1,0.2C89.7,14,89.6,14,89.5,14c-0.1,0-0.2,0-0.2-0.1c-0.1-0.1-0.1-0.1-0.1-0.2v-2.2
			c0-0.1,0-0.2,0.1-0.2c0.1-0.1,0.1-0.1,0.2-0.1c0.1,0,0.2,0,0.3,0.1c0.1,0,0.1,0.1,0.1,0.2V13.7z M87.3,9.2l-0.6,2.2h-0.1l-0.6-2.2
			h-0.9l1.1,3.3v2.2h0.9v-2.3l1.1-3.2C88.2,9.2,87.3,9.2,87.3,9.2z M93.7,18.8c0,0.1,0.1,0.2,0.1,0.3v0.4h-0.6v-0.4
			c0-0.1,0-0.3,0.1-0.3c0-0.1,0.1-0.1,0.2-0.1C93.6,18.7,93.7,18.7,93.7,18.8z M91.2,18.7c0-0.1-0.1-0.1-0.2-0.1c0,0-0.1,0-0.2,0
			c0,0-0.1,0.1-0.2,0.1v2.3c0.1,0.1,0.1,0.1,0.2,0.1c0.1,0,0.1,0,0.2,0c0.1,0,0.2,0,0.2-0.1c0,0,0.1-0.1,0.1-0.2V19
			C91.3,18.9,91.2,18.8,91.2,18.7z M91.2,18.7c0-0.1-0.1-0.1-0.2-0.1c0,0-0.1,0-0.2,0c0,0-0.1,0.1-0.2,0.1v2.3
			c0.1,0.1,0.1,0.1,0.2,0.1c0.1,0,0.1,0,0.2,0c0.1,0,0.2,0,0.2-0.1c0,0,0.1-0.1,0.1-0.2V19C91.3,18.9,91.2,18.8,91.2,18.7z
			 M95.3,15.9H83.9c-1.2,0-2.3,1-2.3,2.3v2.3c0,1.3,1,2.3,2.3,2.3h11.4c1.2,0,2.3-1,2.3-2.3v-2.3C97.6,17,96.6,15.9,95.3,15.9z
			 M87,17.5h-0.9v4.2h-0.8v-4.2h-0.8v-0.7H87L87,17.5L87,17.5z M89.4,21.8h-0.7v-0.4c-0.1,0.2-0.3,0.3-0.4,0.3
			c-0.1,0.1-0.3,0.1-0.4,0.1c-0.2,0-0.3-0.1-0.4-0.2c-0.1-0.1-0.1-0.3-0.1-0.5v-3.1H88v2.8c0,0.1,0,0.1,0,0.2c0,0,0.1,0.1,0.1,0.1
			c0.1,0,0.1,0,0.2-0.1c0.1,0,0.2-0.1,0.2-0.2v-2.8h0.7L89.4,21.8L89.4,21.8z M92,21c0,0.3-0.1,0.5-0.2,0.6
			c-0.1,0.1-0.3,0.2-0.5,0.2c-0.1,0-0.3,0-0.4-0.1c-0.1-0.1-0.2-0.1-0.3-0.2v0.3h-0.7v-4.9h0.7v1.6c0.1-0.1,0.2-0.2,0.3-0.2
			c0.1-0.1,0.2-0.1,0.3-0.1c0.2,0,0.4,0.1,0.5,0.2c0.1,0.2,0.2,0.4,0.2,0.7L92,21L92,21z M94.5,20h-1.4v0.7c0,0.2,0,0.3,0.1,0.4
			c0,0.1,0.1,0.1,0.2,0.1c0.1,0,0.2,0,0.2-0.1c0-0.1,0.1-0.2,0.1-0.4v-0.2h0.8v0.2c0,0.4-0.1,0.7-0.3,0.8c-0.2,0.2-0.5,0.3-0.8,0.3
			c-0.3,0-0.6-0.1-0.8-0.3c-0.2-0.2-0.3-0.5-0.3-0.8v-1.6c0-0.3,0.1-0.6,0.3-0.8c0.2-0.2,0.5-0.3,0.8-0.3c0.3,0,0.6,0.1,0.8,0.3
			c0.2,0.2,0.3,0.4,0.3,0.8L94.5,20L94.5,20z M91,18.6c0,0-0.1,0-0.2,0c0,0-0.1,0.1-0.2,0.1v2.3c0.1,0.1,0.1,0.1,0.2,0.1
			c0.1,0,0.1,0,0.2,0c0.1,0,0.2,0,0.2-0.1c0,0,0.1-0.1,0.1-0.2V19c0-0.1,0-0.2-0.1-0.3C91.1,18.7,91.1,18.6,91,18.6z M91.2,18.7
			c0-0.1-0.1-0.1-0.2-0.1c0,0-0.1,0-0.2,0c0,0-0.1,0.1-0.2,0.1v2.3c0.1,0.1,0.1,0.1,0.2,0.1c0.1,0,0.1,0,0.2,0c0.1,0,0.2,0,0.2-0.1
			c0,0,0.1-0.1,0.1-0.2V19C91.3,18.9,91.2,18.8,91.2,18.7z M91.2,18.7c0-0.1-0.1-0.1-0.2-0.1c0,0-0.1,0-0.2,0c0,0-0.1,0.1-0.2,0.1
			v2.3c0.1,0.1,0.1,0.1,0.2,0.1c0.1,0,0.1,0,0.2,0c0.1,0,0.2,0,0.2-0.1c0,0,0.1-0.1,0.1-0.2V19C91.3,18.9,91.2,18.8,91.2,18.7z"/>
	</g>
</g>
<g id="facebook">
	<g>
		<path fill="#35679A" d="M16,32c8.8,0,16-7.2,16-16c0-8.8-7.2-16-16-16S0,7.2,0,16C0,24.8,7.2,32,16,32"/>
		<path fill="#FFFFFF" d="M12.1,13.3h1.7v-1.6c0-0.7,0-1.8,0.5-2.5C14.9,8.5,15.6,8,16.9,8c2.1,0,3,0.3,3,0.3l-0.4,2.5
			c0,0-0.7-0.2-1.3-0.2c-0.6,0-1.2,0.2-1.2,0.9v1.9h2.6l-0.2,2.4h-2.5V24h-3.1v-8.3h-1.7V13.3z"/>
	</g>
</g>
<g id="twitter">
	<g>
		<path fill="#28AAE2" d="M384,89c8.8,0,16-7.2,16-16c0-8.8-7.2-16-16-16c-8.8,0-16,7.2-16,16C368,81.8,375.2,89,384,89"/>
		<path fill="#FFFFFF" d="M392,68.8c-0.6,0.3-1.2,0.4-1.9,0.5c0.7-0.4,1.2-1.1,1.4-1.8c-0.6,0.4-1.3,0.6-2.1,0.8
			c-0.6-0.6-1.5-1-2.4-1c-1.8,0-3.3,1.5-3.3,3.3c0,0.3,0,0.5,0.1,0.7c-2.7-0.1-5.2-1.4-6.8-3.4c-0.3,0.5-0.4,1.1-0.4,1.7
			c0,1.1,0.6,2.1,1.5,2.7c-0.5,0-1-0.2-1.5-0.4v0c0,1.6,1.1,2.9,2.6,3.2c-0.3,0.1-0.6,0.1-0.9,0.1c-0.2,0-0.4,0-0.6-0.1
			c0.4,1.3,1.6,2.3,3.1,2.3c-1.1,0.9-2.5,1.4-4.1,1.4c-0.3,0-0.5,0-0.8,0c1.5,0.9,3.2,1.5,5,1.5c6,0,9.4-5,9.4-9.4
			c0-0.1,0-0.3,0-0.4C391,70,391.6,69.5,392,68.8"/>
	</g>
</g>
</svg>
