<?xml version="1.0" encoding="utf-8"?>
<!-- Generator: Adobe Illustrator 18.1.1, SVG Export Plug-In . SVG Version: 6.00 Build 0)  -->
<!DOCTYPE svg PUBLIC "-//W3C//DTD SVG 1.1//EN" "http://www.w3.org/Graphics/SVG/1.1/DTD/svg11.dtd">
<svg version="1.1" id="svg-source" xmlns="http://www.w3.org/2000/svg" xmlns:xlink="http://www.w3.org/1999/xlink" x="0px" y="0px"
	 width="25.9px" height="32px" viewBox="215.4 187.5 25.9 32" enable-background="new 215.4 187.5 25.9 32" xml:space="preserve">
<g id="github">
	<g>
		<path d="M230.2,203c-0.3,0-0.4,0.1-0.8,0.1c-0.6,0-0.6-0.6-1.2-0.6c0,0.1-0.1,0.2-0.3,0.3c0.1,0.9,0.9,1.1,1.9,1.2
			c0.2,0,0.3-0.1,0.6-0.1c0.4-0.3,1.4-0.7,0.9-1.4C230.8,202.5,230.6,202.9,230.2,203z"/>
		<path d="M229.9,202.1c0-0.1,0.1-0.1,0.3-0.1c0.2-0.2,0.2-0.6,0.1-0.9c-0.3-0.3-0.9-0.1-0.9,0.3C229.3,201.8,229.5,202,229.9,202.1
			z"/>
		<path d="M240.2,194.4c-0.3-0.2-0.6-0.5-0.8-0.8c-0.4-0.2-0.7-0.4-0.9-0.7c0.2-0.1,0-0.5,0.1-0.7c0.2-0.1,0-0.5,0.1-0.7
			c0.2,0-0.1-0.6,0.2-0.6c-0.1-0.4,0.1-0.4,0.1-0.8c0.2-0.8,0.7-1.9,0.2-2.6c-0.1-0.1-0.4-0.1-0.6-0.1c-0.1,0-0.2,0.1-0.3,0.2
			c-0.4,0.1-0.5,0.4-0.9,0.6c-0.2,0.3-0.6,0.4-0.8,0.7c-0.6,0.4-1,1-1.6,1.4c-0.4,0-0.5,0.2-0.9,0.3c-0.4,0-0.6,0.1-0.9,0.2
			c-0.7,0.1-1.3,0.2-2,0.3c-0.3,0-0.5,0-0.7-0.1c-0.3,0-0.2,0.3-0.5,0.2c-0.9-0.1-2.1,0.1-3.2,0c-0.3-0.1-0.7-0.1-1.1-0.2
			c-0.4-0.3-0.8-0.6-1.1-1c-0.7-0.2-1.2-0.7-2-0.9c-0.4-0.1-0.5-0.7-1.1-0.6c-0.7,0-0.8,0.7-1,1.3c0,1.3-0.1,2.4,0,3.6
			c0,0.3-0.3,0.4-0.4,0.5c-0.2,0.2-0.2,0.4-0.4,0.5c-0.3,0.4-0.4,0.8-0.7,1.2c0,0.5-0.2,0.9-0.3,1.5v2.2c0.2,0.3,0.1,0.6,0.2,0.9
			c0,0,0.2,0.2,0.2,0.3c0,0.1,0.1,0.3,0.1,0.3c0.1,0.3,0.2,0.4,0.2,0.6c0,0.1,0.1,0.1,0.1,0.1c0.2,0.5,0.2,1,0.4,1.4
			c0.1,0.2,0.2,0.3,0.3,0.5c0.1,0.2,0.2,0.3,0.3,0.4c0,0,0,0.1,0,0.2c0.3,0.4,0.7,0.6,0.9,0.9c0.7,0.3,1.3,0.8,2.4,0.8
			c0.1,0.2,0.5,0,0.7,0.1c0.1,0.1,0.4,0.1,0.7,0.1c0.4,0.1,0.9,0.2,1.5,0.2c-0.2,0.2-0.4,0.5-0.6,0.7c-0.2,0.3-0.5,0.4-0.6,0.8
			c-0.3,0.2-0.2,0.9-0.4,1.1c-1,0-1.8,0-2.4-0.3c-0.8-0.9-1.2-2.3-2.3-2.9c-0.9-0.2-1.7,0.1-2.7,0.1c-0.4,0.3-0.8,0.5-1.2,0.8
			c-0.4,0.2-0.9,0.4-0.9,1c0.9,0.7,1.6-0.5,2.6-0.6c0.6,0,0.9,0.2,1.6,0.1c0.4,0.5,0.6,1,0.9,1.6c0.3,0.4,0.6,0.7,0.9,1.1
			c0.2,0,0.3,0.1,0.3,0.3c0.6,0.3,1.3,0.5,2.2,0.6h1.3c0.4,0.5,0.5,1.2,0.4,2c0,0.1-0.1,0.3-0.2,0.4c-0.1,0.3-0.1,0.5-0.2,0.7
			c-0.1,0.3-0.4,0.6-0.3,0.9c-0.6,0.4-1,0.9-2,0.9c-0.6,0-0.6-0.6-1.3-0.5c-0.1-0.3-0.1-0.7-0.6-0.6c-0.4,0.1-0.4,0.9-0.3,1.3
			c0.1,0.4,0.4,0.8,0.5,1.2c0.7,0.5,2,0.4,3.2,0.4c0.2-0.2,0.4-0.3,0.7-0.3c0.6-0.7,1.1-1.6,1.7-2.3c0.1-0.4,0.3-0.6,0.3-1
			c0.1-0.3,0.4-0.7,0.7-0.5c0.2,1.3,0.1,2.8,0.1,4.2c-0.2,0.3-0.3,0.7-0.4,1c-0.5,0-0.8,0.1-1,0.3c0.1,0.5,0.4,0.8,0.7,1
			c0.9,0.1,1.4-0.2,1.9-0.5c0.2-0.5,0.5-1.1,0.6-1.7c0-1.1,0-2.4,0-3.7c0.1-0.5,0.3-0.9,0.3-1.6c0.2-0.4,0-1.2,0.3-1.6
			c0,0.6,0.1,1,0.1,1.6c0.3,2,1.4,3.2,2,4.8c0.6,0.6,1.2,1.2,2.3,1.2c0.1-0.1,0.3-0.1,0.4-0.2c0.2-0.3,0.4-0.6,0.3-1.1
			c-0.1,0-0.1-0.1-0.1-0.2c-0.2-0.5-1-0.5-1.4-0.9c-0.2-0.8-0.7-1.3-1-2c-0.2-0.7-0.4-1.3-0.7-1.9c0-0.5-0.2-0.6-0.2-1.1
			c-0.2,0,0-0.4-0.2-0.4c-0.1-0.3,0.4-0.1,0.3-0.4c0.4,0.4,0.5,0.9,0.7,1.5c0.6,0.8,1.1,1.7,1.9,2.3c0.7,0.8,1.6,1.3,2.8,1.6h1.1
			c0-0.2,0.3-0.1,0.3-0.2c0.1-0.1,0.2-0.2,0.3-0.2c0.3-0.3,0.5-0.7,0.8-1.1c0.2-0.4,0.3-1.3-0.1-1.6c-1.1,0-1.2,0.9-2.1,1.1
			c-1.6-0.4-2.7-1.7-3.4-2.8c-0.1-0.1,0-0.2-0.1-0.3c-0.5-0.9-1-1.7-1.4-2.7c-0.3-0.2-0.4-0.5-0.6-0.8c-0.1-0.1-0.3-0.2-0.3-0.3
			c-0.2,0-0.4-0.2-0.3-0.3c1,0,1.5-0.5,2.3-0.7c0.6-0.4,1.7-0.4,2.3-0.8c0.8-0.2,1.4-0.7,2-1.1c0.6-0.5,1.1-0.9,1.7-1.4
			c0.4-0.7,1-1.3,1.1-2.3v-2.2c-0.1-1-0.4-1.9-0.7-2.8C240.4,194.8,240.3,194.6,240.2,194.4z M238.9,195.4c0.2,0.3,0.6,1,0.3,1.4
			c-0.3-0.1-0.3-0.5-0.6-0.7C238.6,195.7,238.8,195.6,238.9,195.4z M238.9,198.8c0-0.3,0.2-0.3,0.3-0.5
			C239.5,198.4,239.1,199,238.9,198.8z M238.4,194.8c0,0.2-0.2,0.1-0.2,0.3c-0.3,0-0.4-0.4-0.4-0.7
			C238.2,194.4,238.3,194.6,238.4,194.8z M238.1,196.8c0.3,0.2,0.6,0.7,0.3,1c-0.3-0.1-0.2-0.4-0.5-0.5
			C237.9,197.2,238,197,238.1,196.8z M237.7,189.4c0.2,0.3-0.2,0.6-0.1,1c-0.4,0-0.4-0.3-0.6-0.4
			C237.2,189.8,237.6,189.7,237.7,189.4z M236.4,190.4h0.3c0,0.6,0.9,0.6,0.6,1.2c-0.4-0.2-0.6-0.6-0.9-0.9
			C236.3,190.5,236.4,190.5,236.4,190.4z M235.9,191.5c0.1,0,0.1,0.1,0.3,0.1c0,0.4,0.5,0.4,0.5,0.8c-0.1,0.1-0.2,0.2-0.3,0.3
			c-0.4-0.1-0.4-0.5-0.8-0.7C235.7,191.8,235.9,191.7,235.9,191.5z M235.9,196c-0.3,0.1-0.3-0.3-0.2-0.4
			C235.9,195.7,236.1,195.9,235.9,196z M235.2,191.3C235.2,191.2,235.2,191.3,235.2,191.3C235.1,191.4,235.1,191.3,235.2,191.3z
			 M235.2,192.8c0.1,0,0.1,0.1,0.3,0.1c0,0.4,0.4,0.3,0.4,0.7c-0.3,0.4-0.4,0.8-0.7,1.2c-0.4,0-0.6-0.3-0.9-0.4
			C234.7,193.8,234.9,193.3,235.2,192.8z M234.8,195.7h-1.1c0-0.3,0.2-0.3,0.3-0.5c0.2,0,0.3,0.2,0.4,0.3
			C234.6,195.5,234.8,195.5,234.8,195.7z M234.1,192c0-0.1,0.1-0.1,0.1-0.3c0.3-0.1,0.3,0.2,0.5,0.3c-0.1,0.4-0.4,0.5-0.5,0.9
			c-0.3,0.2-0.3,0.7-0.7,0.8c-0.3-0.3,0-0.7,0.2-0.9C233.8,192.5,233.9,192.2,234.1,192z M233.4,191.8c-0.2,0.4-0.5,0.7-0.7,1.1
			C232.1,192.7,232.5,191.5,233.4,191.8z M232.8,194.3c0.2,0,0.1,0.2,0.3,0.2c0,0.5-0.4,0.7-0.3,1.4c-0.1-0.1-0.2-0.1-0.3-0.1
			c0.2-0.3,0-0.5-0.2-0.7C232.5,194.8,232.7,194.6,232.8,194.3z M232.2,193.7c-0.1,0.4-0.4,0.6-0.5,1.1c-0.2-0.1-0.3-0.2-0.5-0.3
			c0.2-0.4,0.5-0.7,0.6-1.2C232,193.4,232.1,193.6,232.2,193.7z M231.9,191.9C231.9,191.9,231.8,192,231.9,191.9
			C231.7,191.9,231.9,191.9,231.9,191.9z M230.4,193.3c0.2-0.2,0.2-0.5,0.4-0.6c0-0.1,0.1-0.1,0.1-0.3c0.2,0,0.2,0.2,0.3,0.3
			c-0.1,0.3-0.3,0.4-0.4,0.7c-0.2,0.2-0.2,0.5-0.5,0.6C230,193.8,230.3,193.6,230.4,193.3z M231.1,195.6c0,0.2-0.4,0-0.6,0.1
			c0-0.1,0.2-0.1,0.2-0.3C230.9,195.4,230.8,195.7,231.1,195.6z M228,191.9h2.3c-0.1,0.6-0.6,0.8-0.8,1.3c-0.3,0-0.3-0.2-0.5-0.3
			c0.1-0.4,0.4-0.5,0.3-0.9c-0.4,0-0.5,0.3-0.8,0.4c-0.2,0-0.3-0.1-0.3-0.3C228.2,192.1,227.9,192.1,228,191.9z M229.9,195.7
			c-0.1,0.2-0.7,0-0.9,0.1c0.2-0.4,0.5-0.7,0.6-1.1c0.1,0,0.2,0.1,0.3,0.2C229.7,195,229.7,195.5,229.9,195.7z M228.5,194.8
			c-0.3,0-0.3-0.2-0.4-0.3c0.1-0.3,0.3-0.5,0.4-0.8c0.2,0.1,0.2,0.3,0.4,0.3C228.8,194.3,228.7,194.6,228.5,194.8z M228.1,195.8
			c-0.2,0.1-0.7-0.1-0.8,0.1c-0.3-0.2,0.2-0.4,0.2-0.6C227.7,195.4,228.1,195.4,228.1,195.8z M227.3,192.7c0.3,0.1,0.4,0.3,0.6,0.4
			c-0.1,0.4-0.4,0.5-0.5,0.9c-0.3,0-0.4-0.3-0.6-0.3C226.8,193.2,227.2,193.1,227.3,192.7z M225.2,191.9L225.2,191.9
			c0.7-0.1,1,0.4,1.6,0.2c0,0.3-0.3,0.3-0.3,0.5c-0.2,0.1-0.2,0.4-0.4,0.4c-0.4-0.1-0.7-0.4-0.9-0.7
			C225.1,192.2,225.3,192.1,225.2,191.9c-0.2,0.1-0.2,0.2-0.4,0.2C224.7,191.8,225.1,191.9,225.2,191.9z M226.7,194.7
			c-0.1,0.6-0.7,0.7-0.7,1.4c-0.2-0.1-0.5-0.1-0.6-0.3c0.1-0.5,0.5-0.8,0.7-1.3C226.4,194.4,226.5,194.6,226.7,194.7z M224.6,193.1
			C224.7,193.2,224.6,193.2,224.6,193.1C224.5,193.2,224.6,193.1,224.6,193.1z M224.8,193.3c0.2,0.2,0.5,0.3,0.6,0.5
			c-0.2,0.5-0.7,0.9-0.9,1.5c-0.4-0.1-0.6-0.3-0.9-0.5C223.8,194.1,224.6,193.9,224.8,193.3z M223.9,196.8c-0.3,0.1-0.4,0.3-0.7,0.3
			c-0.3-0.1-0.5-0.3-0.8-0.4c0.1-0.5,0.4-0.8,0.6-1.2c0.5,0,0.6,0.4,1,0.5C224,196.3,223.9,196.5,223.9,196.8z M222.1,195.6
			c-0.2,0.2-0.3,0.6-0.5,0.4c0.1-0.5,0.4-0.9,0.7-1.3c0.1,0,0.1,0.2,0.3,0.2C222.4,195.2,222.2,195.3,222.1,195.6z M222.7,194.1
			C222.8,194.1,222.7,194.2,222.7,194.1C222.6,194.1,222.7,194,222.7,194.1z M224.5,191.6c-0.2,0.3-0.5-0.2-0.7-0.3
			C224,191.1,224.2,191.5,224.5,191.6z M223.8,192.3c-0.3,0.5-0.7,0.8-0.9,1.4c-0.2,0-0.2-0.2-0.3-0.3c0.2-0.6,0.6-1.1,0.9-1.6
			C223.6,192,223.5,192.3,223.8,192.3z M221.9,191.5v-1.3c0.4,0.2,0.9,0.4,1.3,0.6c-0.2,0.1-0.2,0.3-0.3,0.4c0,0.3-0.3,0.2-0.3,0.5
			c-0.3,0.2-0.4,0.6-0.6,0.9C221.8,192.4,221.9,191.9,221.9,191.5z M221.6,193.5C221.7,193.3,221.7,193.5,221.6,193.5
			C221.6,193.6,221.5,193.5,221.6,193.5z M221.4,194.1c0.4,0.2-0.2,0.4-0.2,0.7c-0.3,0.1-0.2,0.6-0.5,0.6
			C220.8,194.8,221.2,194.5,221.4,194.1z M220.4,198.5c0.2-0.6,0.5-1.2,0.7-1.8h0.3c-0.2,0.5-0.5,1.2-0.3,1.8
			c-0.2,0.2-0.4,0.4-0.5,0.8C220.4,199.2,220.4,198.9,220.4,198.5z M222.3,197.9c-0.2,0-0.2,0.3-0.3,0.4c0,0.2,0.2,0.2,0.1,0.4
			c-0.7,0.8-1,3-0.3,4.1c0.1,0,0.1,0.1,0,0c-0.5-0.4-0.7-1.2-0.9-1.9c0.1-0.8,0.5-1.4,0.7-2.2c0.2-0.1,0.2-0.3,0.4-0.3
			c-0.1-0.3,0.1-0.4,0.1-0.7c0.1-0.1,0.1-0.6,0.3-0.3C222.7,197.5,222.3,197.8,222.3,197.9z M236.7,201c-0.3,0.9-0.7,1.8-1.1,2.5
			c-0.3,0.2-0.8,0.3-1.1,0.5c-0.2,0.1-0.3,0.2-0.6,0.2c0,0.2-0.4,0.1-0.5,0.3c-2.3,0.2-4.3-0.1-6.6-0.1c-0.9-0.1-1.7-0.2-2.6-0.3
			c-0.3-0.3-0.6-0.6-0.9-0.9c-0.1-0.2-0.2-0.4-0.3-0.6c-0.2-0.1-0.1-0.5-0.3-0.6c0-0.8,0.1-1.6,0.2-2.3c0.1-0.5,0.5-0.7,0.8-1.1
			c0.4-0.3,0.6-0.6,1-0.9c0.2-0.1,0.4-0.1,0.6-0.2c0.2-0.1,0.5,0,0.6-0.2c2.1,0.1,3.6-0.4,5.7-0.3c0.4,0.1,0.6-0.2,0.9-0.2h1.9
			c0.1,0,0.1-0.1,0.3-0.1c0.3-0.1,0.3,0.1,0.5,0.1c0.2,0,0.3,0.1,0.3,0.3c0.1,0.1,0.3,0.1,0.4,0.2c0.3,0.8,0.6,1.5,0.8,2.3
			L236.7,201L236.7,201z M236.4,195.4c-0.2,0-0.2-0.2-0.3-0.3c0.1-0.5,0.4-0.8,0.5-1.2c0.2,0,0.2,0.1,0.3,0.1
			C237,194.7,236.5,194.8,236.4,195.4z M236.9,193.2c0,0,0.1-0.2,0.1-0.2c0,0,0-0.1,0-0.1C237.3,192.9,237,193.3,236.9,193.2z
			 M237,196.2c0-0.4,0.2-0.5,0.3-0.8c0.2,0.1,0.2,0.3,0.3,0.4c0,0.3-0.3,0.3-0.3,0.6C237.1,196.4,237.1,196.2,237,196.2z
			 M237.6,198.8c-0.3-0.2,0-0.4-0.1-0.9c0.2,0.1,0.2,0.3,0.3,0.4C237.9,198.6,237.6,198.6,237.6,198.8z M237.9,200.4
			c-0.3-0.2,0.1-0.6,0.2-0.7c0.2-0.2,0.3-0.4,0.4-0.6c0.1,0,0.2,0.1,0.2,0.3C238.4,199.7,238.1,200.1,237.9,200.4z M239.3,200.5
			c-0.3,0.2-0.2,0.7-0.7,0.7c-0.4,0,0.1-0.2,0.1-0.3c0.1-0.2,0.2-0.3,0.3-0.4c0.3-0.2,0.4-0.6,0.6-0.9c0.2,0,0,0.4-0.1,0.4
			C239.5,200.3,239.3,200.3,239.3,200.5z"/>
		<path d="M225,202c0.4,0.2,0.9,0.3,1.3,0.1c0.6-0.6,0.3-2.3-0.1-2.9C224.7,198.7,224.4,200.9,225,202z"/>
		<path d="M233.9,198.5h-0.2c-0.4,0.4-0.8,0.7-0.9,1.2c0,0.5,0,0.9,0.1,1.3c0.3,0.2,0.3,0.8,0.9,0.8c0.7,0.1,0.8-0.5,1-0.9
			C234.8,199.8,235,198.5,233.9,198.5z"/>
	</g>
</g>
</svg>
