<?xml version="1.0" encoding="utf-8"?>
<!-- Generator: Adobe Illustrator 18.1.1, SVG Export Plug-In . SVG Version: 6.00 Build 0)  -->
<!DOCTYPE svg PUBLIC "-//W3C//DTD SVG 1.1//EN" "http://www.w3.org/Graphics/SVG/1.1/DTD/svg11.dtd">
<svg version="1.1" id="Layer_1" xmlns="http://www.w3.org/2000/svg" xmlns:xlink="http://www.w3.org/1999/xlink" x="0px" y="0px"
	 width="30px" height="30px" viewBox="0 0 30 30" enable-background="new 0 0 30 30" xml:space="preserve">
<g>
	<path fill="#FF0000" d="M23.9,20.7c0,0.4-0.1,0.7-0.4,1l-2,2c-0.3,0.3-0.6,0.4-1,0.4s-0.7-0.1-1-0.4l-4.3-4.3l-4.3,4.3
		c-0.3,0.3-0.6,0.4-1,0.4c-0.4,0-0.7-0.1-1-0.4l-2-2c-0.3-0.3-0.4-0.6-0.4-1s0.1-0.7,0.4-1l4.3-4.3l-4.3-4.3c-0.3-0.3-0.4-0.6-0.4-1
		s0.1-0.7,0.4-1l2-2c0.3-0.3,0.6-0.4,1-0.4c0.4,0,0.7,0.1,1,0.4l4.3,4.3l4.3-4.3c0.3-0.3,0.6-0.4,1-0.4s0.7,0.1,1,0.4l2,2
		c0.3,0.3,0.4,0.6,0.4,1s-0.1,0.7-0.4,1l-4.3,4.3l4.3,4.3C23.7,19.9,23.9,20.3,23.9,20.7z"/>
</g>
<g>
</g>
<g>
</g>
<g>
</g>
<g>
</g>
<g>
</g>
<g>
</g>
<g>
</g>
<g>
</g>
<g>
</g>
<g>
</g>
<g>
</g>
<g>
</g>
<g>
</g>
<g>
</g>
<g>
</g>
</svg>
