<?xml version="1.0" encoding="utf-8"?>
<!-- Generator: Adobe Illustrator 18.1.1, SVG Export Plug-In . SVG Version: 6.00 Build 0)  -->
<!DOCTYPE svg PUBLIC "-//W3C//DTD SVG 1.1//EN" "http://www.w3.org/Graphics/SVG/1.1/DTD/svg11.dtd">
<svg version="1.1" id="Layer_1" xmlns="http://www.w3.org/2000/svg" xmlns:xlink="http://www.w3.org/1999/xlink" x="0px" y="0px"
	 width="30px" height="30px" viewBox="0 0 30 30" enable-background="new 0 0 30 30" xml:space="preserve">
<g>
	<path fill="#008000" d="M26.3,9.6c0,0.4-0.1,0.7-0.4,1L15.3,21.2l-2,2c-0.3,0.3-0.6,0.4-1,0.4c-0.4,0-0.7-0.1-1-0.4l-2-2l-5.3-5.3
		c-0.3-0.3-0.4-0.6-0.4-1c0-0.4,0.1-0.7,0.4-1l2-2c0.3-0.3,0.6-0.4,1-0.4c0.4,0,0.7,0.1,1,0.4l4.3,4.3l9.6-9.6
		c0.3-0.3,0.6-0.4,1-0.4c0.4,0,0.7,0.1,1,0.4l2,2C26.2,8.9,26.3,9.2,26.3,9.6z"/>
</g>
<g>
</g>
<g>
</g>
<g>
</g>
<g>
</g>
<g>
</g>
<g>
</g>
<g>
</g>
<g>
</g>
<g>
</g>
<g>
</g>
<g>
</g>
<g>
</g>
<g>
</g>
<g>
</g>
<g>
</g>
</svg>
